<ttFont>
    <TTGlyph name="A" xMin="18" yMin="-24" xMax="745" yMax="664">
      <contour>
        <pt x="723" y="130" on="1"/>
        <pt x="717" y="165" on="1"/>
        <pt x="717" y="175" on="0"/>
        <pt x="735" y="186" on="0"/>
        <pt x="742" y="166" on="1"/>
        <pt x="745" y="156" on="0"/>
        <pt x="745" y="145" on="1"/>
        <pt x="745" y="114" on="0"/>
        <pt x="720" y="64" on="1"/>
        <pt x="688" y="1" on="0"/>
        <pt x="637" y="0" on="1"/>
        <pt x="626" y="0" on="0"/>
        <pt x="579" y="29" on="0"/>
        <pt x="571" y="39" on="1"/>
        <pt x="534" y="83" on="0"/>
        <pt x="521" y="214" on="1"/>
        <pt x="515" y="271" on="0"/>
        <pt x="510" y="304" on="1"/>
        <pt x="397" y="284" on="0"/>
        <pt x="351" y="230" on="1"/>
        <pt x="347" y="225" on="0"/>
        <pt x="336" y="228" on="0"/>
        <pt x="333" y="237" on="0"/>
        <pt x="337" y="242" on="1"/>
        <pt x="410" y="323" on="0"/>
        <pt x="506" y="356" on="1"/>
        <pt x="505" y="373" on="0"/>
        <pt x="505" y="441" on="0"/>
        <pt x="532" y="572" on="0"/>
        <pt x="532" y="613" on="0"/>
        <pt x="532" y="625" on="0"/>
        <pt x="541" y="631" on="0"/>
        <pt x="551" y="626" on="0"/>
        <pt x="551" y="619" on="1"/>
        <pt x="562" y="500" on="0"/>
        <pt x="562" y="382" on="0"/>
        <pt x="564" y="368" on="1"/>
        <pt x="575" y="371" on="0"/>
        <pt x="584" y="368" on="1"/>
        <pt x="607" y="368" on="0"/>
        <pt x="634" y="356" on="1"/>
        <pt x="673" y="339" on="0"/>
        <pt x="673" y="310" on="1"/>
        <pt x="673" y="294" on="0"/>
        <pt x="654" y="286" on="1"/>
        <pt x="645" y="283" on="0"/>
        <pt x="623" y="283" on="0"/>
        <pt x="615" y="300" on="1"/>
        <pt x="594" y="311" on="0"/>
        <pt x="572" y="311" on="0"/>
        <pt x="567" y="310" on="1"/>
        <pt x="570" y="297" on="0"/>
        <pt x="573" y="236" on="1"/>
        <pt x="581" y="100" on="0"/>
        <pt x="608" y="72" on="1"/>
        <pt x="612" y="67" on="0"/>
        <pt x="633" y="53" on="0"/>
        <pt x="637" y="52" on="1"/>
        <pt x="667" y="52" on="0"/>
        <pt x="723" y="104" on="0"/>
      </contour>
      <contour>
        <pt x="150" y="-24" on="1"/>
        <pt x="138" y="-24" on="0"/>
        <pt x="115" y="-12" on="0"/>
        <pt x="107" y="-10" on="0"/>
        <pt x="98" y="-8" on="1"/>
        <pt x="79" y="-3" on="0"/>
        <pt x="69" y="6" on="1"/>
        <pt x="18" y="53" on="0"/>
        <pt x="18" y="131" on="1"/>
        <pt x="18" y="168" on="0"/>
        <pt x="31" y="194" on="1"/>
        <pt x="36" y="204" on="0"/>
        <pt x="64" y="246" on="1"/>
        <pt x="79" y="271" on="0"/>
        <pt x="132" y="271" on="1"/>
        <pt x="153" y="271" on="0"/>
        <pt x="189" y="230" on="0"/>
        <pt x="189" y="203" on="1"/>
        <pt x="189" y="154" on="0"/>
        <pt x="148" y="134" on="1"/>
        <pt x="143" y="132" on="0"/>
        <pt x="135" y="138" on="0"/>
        <pt x="135" y="149" on="0"/>
        <pt x="140" y="151" on="1"/>
        <pt x="140" y="152" on="1"/>
        <pt x="169" y="166" on="0"/>
        <pt x="169" y="207" on="1"/>
        <pt x="169" y="222" on="0"/>
        <pt x="146" y="250" on="0"/>
        <pt x="132" y="250" on="1"/>
        <pt x="96" y="250" on="0"/>
        <pt x="86" y="234" on="1"/>
        <pt x="66" y="205" on="0"/>
        <pt x="66" y="160" on="1"/>
        <pt x="66" y="147" on="0"/>
        <pt x="67" y="131" on="1"/>
        <pt x="67" y="70" on="0"/>
        <pt x="84" y="39" on="0"/>
        <pt x="95" y="29" on="0"/>
        <pt x="98" y="26" on="1"/>
        <pt x="109" y="15" on="0"/>
        <pt x="111" y="14" on="0"/>
        <pt x="116" y="11" on="0"/>
        <pt x="118" y="10" on="0"/>
        <pt x="125" y="7" on="0"/>
        <pt x="127" y="6" on="1"/>
        <pt x="135" y="2" on="0"/>
        <pt x="155" y="2" on="0"/>
        <pt x="162" y="6" on="1"/>
        <pt x="175" y="14" on="0"/>
        <pt x="188" y="27" on="1"/>
        <pt x="225" y="56" on="0"/>
        <pt x="240" y="106" on="1"/>
        <pt x="247" y="132" on="0"/>
        <pt x="277" y="212" on="1"/>
        <pt x="285" y="237" on="0"/>
        <pt x="293" y="332" on="0"/>
        <pt x="304" y="370" on="0"/>
        <pt x="311" y="400" on="1"/>
        <pt x="326" y="461" on="0"/>
        <pt x="380" y="567" on="0"/>
        <pt x="437" y="628" on="0"/>
        <pt x="502" y="661" on="1"/>
        <pt x="507" y="664" on="0"/>
        <pt x="517" y="664" on="0"/>
        <pt x="533" y="652" on="0"/>
        <pt x="533" y="631" on="0"/>
        <pt x="521" y="624" on="1"/>
        <pt x="500" y="614" on="0"/>
        <pt x="409" y="519" on="0"/>
        <pt x="360" y="419" on="0"/>
        <pt x="337" y="339" on="0"/>
        <pt x="334" y="332" on="1"/>
        <pt x="330" y="320" on="0"/>
        <pt x="326" y="290" on="0"/>
        <pt x="316" y="258" on="0"/>
        <pt x="300" y="219" on="0"/>
        <pt x="291" y="191" on="0"/>
        <pt x="280" y="114" on="0"/>
        <pt x="273" y="93" on="0"/>
        <pt x="266" y="67" on="0"/>
        <pt x="264" y="61" on="0"/>
        <pt x="257" y="39" on="0"/>
        <pt x="253" y="30" on="0"/>
        <pt x="245" y="13" on="0"/>
        <pt x="241" y="8" on="1"/>
        <pt x="228" y="-8" on="0"/>
        <pt x="222" y="-13" on="1"/>
        <pt x="209" y="-24" on="0"/>
      </contour>
    </TTGlyph>
    <TTGlyph name="AE" xMin="18" yMin="-67" xMax="1000" yMax="706">
      <contour>
        <pt x="560" y="512" on="1"/>
        <pt x="560" y="468" on="1"/>
        <pt x="560" y="400" on="0"/>
        <pt x="564" y="368" on="1"/>
        <pt x="563" y="365" on="0"/>
        <pt x="563" y="350" on="0"/>
        <pt x="577" y="310" on="0"/>
        <pt x="577" y="305" on="1"/>
        <pt x="602" y="337" on="0"/>
        <pt x="634" y="366" on="1"/>
        <pt x="607" y="407" on="0"/>
        <pt x="607" y="468" on="1"/>
        <pt x="607" y="555" on="0"/>
        <pt x="730" y="706" on="0"/>
        <pt x="815" y="706" on="1"/>
        <pt x="879" y="706" on="0"/>
        <pt x="952" y="628" on="0"/>
        <pt x="952" y="564" on="1"/>
        <pt x="952" y="529" on="0"/>
        <pt x="892" y="448" on="0"/>
        <pt x="858" y="448" on="1"/>
        <pt x="835" y="448" on="0"/>
        <pt x="799" y="484" on="0"/>
        <pt x="799" y="522" on="0"/>
        <pt x="831" y="578" on="0"/>
        <pt x="853" y="578" on="0"/>
        <pt x="853" y="568" on="1"/>
        <pt x="850" y="561" on="1"/>
        <pt x="818" y="529" on="0"/>
        <pt x="818" y="491" on="0"/>
        <pt x="842" y="467" on="0"/>
        <pt x="857" y="467" on="1"/>
        <pt x="882" y="467" on="0"/>
        <pt x="909" y="535" on="0"/>
        <pt x="909" y="602" on="0"/>
        <pt x="854" y="656" on="0"/>
        <pt x="816" y="656" on="1"/>
        <pt x="732" y="656" on="0"/>
        <pt x="673" y="594" on="0"/>
        <pt x="633" y="507" on="0"/>
        <pt x="633" y="422" on="0"/>
        <pt x="654" y="384" on="1"/>
        <pt x="724" y="441" on="0"/>
        <pt x="821" y="441" on="0"/>
        <pt x="821" y="367" on="0"/>
        <pt x="755" y="318" on="0"/>
        <pt x="680" y="318" on="0"/>
        <pt x="651" y="344" on="1"/>
        <pt x="550" y="252" on="0"/>
        <pt x="550" y="151" on="1"/>
        <pt x="550" y="97" on="0"/>
        <pt x="612" y="-9" on="0"/>
        <pt x="663" y="-9" on="1"/>
        <pt x="700" y="-9" on="0"/>
        <pt x="864" y="38" on="0"/>
        <pt x="915" y="84" on="0"/>
        <pt x="952" y="165" on="0"/>
        <pt x="952" y="228" on="0"/>
        <pt x="926" y="277" on="0"/>
        <pt x="902" y="277" on="1"/>
        <pt x="861" y="277" on="0"/>
        <pt x="809" y="205" on="0"/>
        <pt x="809" y="162" on="1"/>
        <pt x="809" y="148" on="0"/>
        <pt x="824" y="120" on="0"/>
        <pt x="855" y="120" on="0"/>
        <pt x="883" y="152" on="0"/>
        <pt x="883" y="183" on="0"/>
        <pt x="859" y="185" on="0"/>
        <pt x="859" y="204" on="0"/>
        <pt x="874" y="204" on="1"/>
        <pt x="900" y="204" on="0"/>
        <pt x="900" y="144" on="0"/>
        <pt x="864" y="101" on="0"/>
        <pt x="813" y="101" on="0"/>
        <pt x="791" y="140" on="0"/>
        <pt x="791" y="167" on="1"/>
        <pt x="791" y="218" on="0"/>
        <pt x="853" y="309" on="0"/>
        <pt x="942" y="309" on="0"/>
        <pt x="1000" y="243" on="0"/>
        <pt x="1000" y="203" on="1"/>
        <pt x="1000" y="136" on="0"/>
        <pt x="917" y="0" on="0"/>
        <pt x="857" y="-25" on="1"/>
        <pt x="828" y="-37" on="0"/>
        <pt x="693" y="-67" on="0"/>
        <pt x="623" y="-67" on="0"/>
        <pt x="563" y="-26" on="0"/>
        <pt x="548" y="8" on="1"/>
        <pt x="519" y="71" on="0"/>
        <pt x="519" y="152" on="1"/>
        <pt x="517" y="155" on="0"/>
        <pt x="511" y="298" on="0"/>
        <pt x="510" y="304" on="1"/>
        <pt x="406" y="285" on="0"/>
        <pt x="351" y="230" on="1"/>
        <pt x="347" y="226" on="0"/>
        <pt x="344" y="226" on="1"/>
        <pt x="336" y="226" on="0"/>
        <pt x="334" y="235" on="1"/>
        <pt x="341" y="260" on="0"/>
        <pt x="469" y="343" on="0"/>
        <pt x="506" y="356" on="1"/>
        <pt x="505" y="375" on="0"/>
        <pt x="505" y="447" on="0"/>
        <pt x="532" y="583" on="0"/>
        <pt x="532" y="619" on="1"/>
        <pt x="532" y="629" on="0"/>
        <pt x="541" y="629" on="1"/>
        <pt x="560" y="629" on="0"/>
      </contour>
      <contour>
        <pt x="520" y="663" on="0"/>
        <pt x="532" y="650" on="0"/>
        <pt x="532" y="630" on="0"/>
        <pt x="521" y="624" on="1"/>
        <pt x="493" y="607" on="0"/>
        <pt x="408" y="518" on="0"/>
        <pt x="339" y="375" on="0"/>
        <pt x="328" y="307" on="1"/>
        <pt x="325" y="285" on="0"/>
        <pt x="300" y="218" on="0"/>
        <pt x="291" y="188" on="0"/>
        <pt x="274" y="83" on="0"/>
        <pt x="247" y="6" on="0"/>
        <pt x="222" y="-13" on="1"/>
        <pt x="208" y="-24" on="0"/>
        <pt x="150" y="-24" on="1"/>
        <pt x="145" y="-24" on="0"/>
        <pt x="107" y="-10" on="0"/>
        <pt x="93" y="-7" on="0"/>
        <pt x="89" y="-6" on="1"/>
        <pt x="75" y="0" on="0"/>
        <pt x="69" y="6" on="1"/>
        <pt x="18" y="50" on="0"/>
        <pt x="18" y="131" on="1"/>
        <pt x="18" y="151" on="0"/>
        <pt x="23" y="170" on="0"/>
        <pt x="25" y="180" on="0"/>
        <pt x="32" y="195" on="0"/>
        <pt x="35" y="202" on="0"/>
        <pt x="46" y="219" on="0"/>
        <pt x="49" y="223" on="0"/>
        <pt x="62" y="244" on="0"/>
        <pt x="64" y="246" on="1"/>
        <pt x="81" y="271" on="0"/>
        <pt x="132" y="271" on="1"/>
        <pt x="153" y="271" on="0"/>
        <pt x="189" y="230" on="0"/>
        <pt x="189" y="185" on="0"/>
        <pt x="162" y="133" on="0"/>
        <pt x="141" y="133" on="1"/>
        <pt x="134" y="133" on="0"/>
        <pt x="134" y="143" on="1"/>
        <pt x="140" y="151" on="1"/>
        <pt x="140" y="152" on="1"/>
        <pt x="169" y="166" on="0"/>
        <pt x="169" y="207" on="1"/>
        <pt x="169" y="221" on="0"/>
        <pt x="146" y="250" on="0"/>
        <pt x="132" y="250" on="1"/>
        <pt x="93" y="250" on="0"/>
        <pt x="67" y="202" on="0"/>
        <pt x="67" y="132" on="0"/>
        <pt x="68" y="105" on="0"/>
        <pt x="76" y="53" on="0"/>
        <pt x="92" y="25" on="0"/>
        <pt x="125" y="2" on="0"/>
        <pt x="154" y="2" on="0"/>
        <pt x="165" y="8" on="0"/>
        <pt x="173" y="14" on="0"/>
        <pt x="186" y="26" on="0"/>
        <pt x="188" y="27" on="1"/>
        <pt x="225" y="56" on="0"/>
        <pt x="240" y="106" on="1"/>
        <pt x="247" y="129" on="0"/>
        <pt x="277" y="212" on="1"/>
        <pt x="285" y="236" on="0"/>
        <pt x="293" y="332" on="0"/>
        <pt x="299" y="354" on="1"/>
        <pt x="335" y="480" on="0"/>
        <pt x="357" y="523" on="1"/>
        <pt x="403" y="613" on="0"/>
        <pt x="502" y="661" on="1"/>
        <pt x="508" y="663" on="0"/>
      </contour>
      <contour>
        <pt x="790" y="403" on="1"/>
        <pt x="790" y="414" on="0"/>
        <pt x="739" y="414" on="0"/>
        <pt x="674" y="364" on="1"/>
        <pt x="694" y="349" on="0"/>
        <pt x="742" y="349" on="0"/>
        <pt x="790" y="380" on="0"/>
      </contour>
    </TTGlyph>
    <TTGlyph name="Aacute" xMin="18" yMin="-24" xMax="745" yMax="802">
      <contour>
        <pt x="574" y="802" on="0"/>
        <pt x="590" y="802" on="0"/>
        <pt x="612" y="796" on="0"/>
        <pt x="609" y="755" on="0"/>
        <pt x="564" y="736" on="0"/>
        <pt x="447" y="716" on="0"/>
        <pt x="406" y="701" on="0"/>
        <pt x="399" y="720" on="0"/>
        <pt x="411" y="725" on="1"/>
        <pt x="442" y="736" on="0"/>
        <pt x="553" y="793" on="0"/>
      </contour>
      <contour>
        <pt x="723" y="130" on="1"/>
        <pt x="717" y="165" on="1"/>
        <pt x="717" y="175" on="0"/>
        <pt x="735" y="186" on="0"/>
        <pt x="742" y="166" on="1"/>
        <pt x="745" y="156" on="0"/>
        <pt x="745" y="145" on="1"/>
        <pt x="745" y="114" on="0"/>
        <pt x="720" y="64" on="1"/>
        <pt x="688" y="1" on="0"/>
        <pt x="637" y="0" on="1"/>
        <pt x="626" y="0" on="0"/>
        <pt x="579" y="29" on="0"/>
        <pt x="571" y="39" on="1"/>
        <pt x="534" y="83" on="0"/>
        <pt x="521" y="214" on="1"/>
        <pt x="515" y="271" on="0"/>
        <pt x="510" y="304" on="1"/>
        <pt x="397" y="284" on="0"/>
        <pt x="351" y="230" on="1"/>
        <pt x="347" y="225" on="0"/>
        <pt x="336" y="228" on="0"/>
        <pt x="333" y="237" on="0"/>
        <pt x="337" y="242" on="1"/>
        <pt x="410" y="323" on="0"/>
        <pt x="506" y="356" on="1"/>
        <pt x="505" y="373" on="0"/>
        <pt x="505" y="441" on="0"/>
        <pt x="532" y="572" on="0"/>
        <pt x="532" y="613" on="0"/>
        <pt x="532" y="625" on="0"/>
        <pt x="541" y="631" on="0"/>
        <pt x="551" y="626" on="0"/>
        <pt x="551" y="619" on="1"/>
        <pt x="562" y="500" on="0"/>
        <pt x="562" y="382" on="0"/>
        <pt x="564" y="368" on="1"/>
        <pt x="575" y="371" on="0"/>
        <pt x="584" y="368" on="1"/>
        <pt x="607" y="368" on="0"/>
        <pt x="634" y="356" on="1"/>
        <pt x="673" y="339" on="0"/>
        <pt x="673" y="310" on="1"/>
        <pt x="673" y="294" on="0"/>
        <pt x="654" y="286" on="1"/>
        <pt x="645" y="283" on="0"/>
        <pt x="623" y="283" on="0"/>
        <pt x="615" y="300" on="1"/>
        <pt x="594" y="311" on="0"/>
        <pt x="572" y="311" on="0"/>
        <pt x="567" y="310" on="1"/>
        <pt x="570" y="297" on="0"/>
        <pt x="573" y="236" on="1"/>
        <pt x="581" y="100" on="0"/>
        <pt x="608" y="72" on="1"/>
        <pt x="612" y="67" on="0"/>
        <pt x="633" y="53" on="0"/>
        <pt x="637" y="52" on="1"/>
        <pt x="667" y="52" on="0"/>
        <pt x="723" y="104" on="0"/>
      </contour>
      <contour>
        <pt x="150" y="-24" on="1"/>
        <pt x="138" y="-24" on="0"/>
        <pt x="115" y="-12" on="0"/>
        <pt x="107" y="-10" on="0"/>
        <pt x="98" y="-8" on="1"/>
        <pt x="79" y="-3" on="0"/>
        <pt x="69" y="6" on="1"/>
        <pt x="18" y="53" on="0"/>
        <pt x="18" y="131" on="1"/>
        <pt x="18" y="168" on="0"/>
        <pt x="31" y="194" on="1"/>
        <pt x="36" y="204" on="0"/>
        <pt x="64" y="246" on="1"/>
        <pt x="79" y="271" on="0"/>
        <pt x="132" y="271" on="1"/>
        <pt x="153" y="271" on="0"/>
        <pt x="189" y="230" on="0"/>
        <pt x="189" y="203" on="1"/>
        <pt x="189" y="154" on="0"/>
        <pt x="148" y="134" on="1"/>
        <pt x="143" y="132" on="0"/>
        <pt x="135" y="138" on="0"/>
        <pt x="135" y="149" on="0"/>
        <pt x="140" y="151" on="1"/>
        <pt x="140" y="152" on="1"/>
        <pt x="169" y="166" on="0"/>
        <pt x="169" y="207" on="1"/>
        <pt x="169" y="222" on="0"/>
        <pt x="146" y="250" on="0"/>
        <pt x="132" y="250" on="1"/>
        <pt x="96" y="250" on="0"/>
        <pt x="86" y="234" on="1"/>
        <pt x="66" y="205" on="0"/>
        <pt x="66" y="160" on="1"/>
        <pt x="66" y="147" on="0"/>
        <pt x="67" y="131" on="1"/>
        <pt x="67" y="70" on="0"/>
        <pt x="84" y="39" on="0"/>
        <pt x="95" y="29" on="0"/>
        <pt x="98" y="26" on="1"/>
        <pt x="109" y="15" on="0"/>
        <pt x="111" y="14" on="0"/>
        <pt x="116" y="11" on="0"/>
        <pt x="118" y="10" on="0"/>
        <pt x="125" y="7" on="0"/>
        <pt x="127" y="6" on="1"/>
        <pt x="135" y="2" on="0"/>
        <pt x="155" y="2" on="0"/>
        <pt x="162" y="6" on="1"/>
        <pt x="175" y="14" on="0"/>
        <pt x="188" y="27" on="1"/>
        <pt x="225" y="56" on="0"/>
        <pt x="240" y="106" on="1"/>
        <pt x="247" y="132" on="0"/>
        <pt x="277" y="212" on="1"/>
        <pt x="285" y="237" on="0"/>
        <pt x="293" y="332" on="0"/>
        <pt x="304" y="370" on="0"/>
        <pt x="311" y="400" on="1"/>
        <pt x="326" y="461" on="0"/>
        <pt x="380" y="567" on="0"/>
        <pt x="437" y="628" on="0"/>
        <pt x="502" y="661" on="1"/>
        <pt x="507" y="664" on="0"/>
        <pt x="517" y="664" on="0"/>
        <pt x="533" y="652" on="0"/>
        <pt x="533" y="631" on="0"/>
        <pt x="521" y="624" on="1"/>
        <pt x="500" y="614" on="0"/>
        <pt x="409" y="519" on="0"/>
        <pt x="360" y="419" on="0"/>
        <pt x="337" y="339" on="0"/>
        <pt x="334" y="332" on="1"/>
        <pt x="330" y="320" on="0"/>
        <pt x="326" y="290" on="0"/>
        <pt x="316" y="258" on="0"/>
        <pt x="300" y="219" on="0"/>
        <pt x="291" y="191" on="0"/>
        <pt x="280" y="114" on="0"/>
        <pt x="273" y="93" on="0"/>
        <pt x="266" y="67" on="0"/>
        <pt x="264" y="61" on="0"/>
        <pt x="257" y="39" on="0"/>
        <pt x="253" y="30" on="0"/>
        <pt x="245" y="13" on="0"/>
        <pt x="241" y="8" on="1"/>
        <pt x="228" y="-8" on="0"/>
        <pt x="222" y="-13" on="1"/>
        <pt x="209" y="-24" on="0"/>
      </contour>
    </TTGlyph>
    <TTGlyph name="Acircumflex" xMin="18" yMin="-24" xMax="745" yMax="829">
      <contour>
        <pt x="689" y="691" on="1"/>
        <pt x="689" y="670" on="0"/>
        <pt x="663" y="684" on="1"/>
        <pt x="648" y="692" on="0"/>
        <pt x="558" y="724" on="0"/>
        <pt x="511" y="755" on="0"/>
        <pt x="484" y="755" on="0"/>
        <pt x="450" y="732" on="0"/>
        <pt x="362" y="690" on="0"/>
        <pt x="336" y="671" on="0"/>
        <pt x="324" y="671" on="0"/>
        <pt x="321" y="674" on="1"/>
        <pt x="315" y="682" on="0"/>
        <pt x="332" y="699" on="1"/>
        <pt x="462" y="829" on="0"/>
        <pt x="508" y="829" on="1"/>
        <pt x="511" y="829" on="0"/>
        <pt x="545" y="804" on="1"/>
        <pt x="658" y="721" on="0"/>
        <pt x="689" y="705" on="0"/>
      </contour>
      <contour>
        <pt x="723" y="130" on="1"/>
        <pt x="717" y="165" on="1"/>
        <pt x="717" y="175" on="0"/>
        <pt x="735" y="186" on="0"/>
        <pt x="742" y="166" on="1"/>
        <pt x="745" y="156" on="0"/>
        <pt x="745" y="145" on="1"/>
        <pt x="745" y="114" on="0"/>
        <pt x="720" y="64" on="1"/>
        <pt x="688" y="1" on="0"/>
        <pt x="637" y="0" on="1"/>
        <pt x="626" y="0" on="0"/>
        <pt x="579" y="29" on="0"/>
        <pt x="571" y="39" on="1"/>
        <pt x="534" y="83" on="0"/>
        <pt x="521" y="214" on="1"/>
        <pt x="515" y="271" on="0"/>
        <pt x="510" y="304" on="1"/>
        <pt x="397" y="284" on="0"/>
        <pt x="351" y="230" on="1"/>
        <pt x="347" y="225" on="0"/>
        <pt x="336" y="228" on="0"/>
        <pt x="333" y="237" on="0"/>
        <pt x="337" y="242" on="1"/>
        <pt x="410" y="323" on="0"/>
        <pt x="506" y="356" on="1"/>
        <pt x="505" y="373" on="0"/>
        <pt x="505" y="441" on="0"/>
        <pt x="532" y="572" on="0"/>
        <pt x="532" y="613" on="0"/>
        <pt x="532" y="625" on="0"/>
        <pt x="541" y="631" on="0"/>
        <pt x="551" y="626" on="0"/>
        <pt x="551" y="619" on="1"/>
        <pt x="562" y="500" on="0"/>
        <pt x="562" y="382" on="0"/>
        <pt x="564" y="368" on="1"/>
        <pt x="575" y="371" on="0"/>
        <pt x="584" y="368" on="1"/>
        <pt x="607" y="368" on="0"/>
        <pt x="634" y="356" on="1"/>
        <pt x="673" y="339" on="0"/>
        <pt x="673" y="310" on="1"/>
        <pt x="673" y="294" on="0"/>
        <pt x="654" y="286" on="1"/>
        <pt x="645" y="283" on="0"/>
        <pt x="623" y="283" on="0"/>
        <pt x="615" y="300" on="1"/>
        <pt x="594" y="311" on="0"/>
        <pt x="572" y="311" on="0"/>
        <pt x="567" y="310" on="1"/>
        <pt x="570" y="297" on="0"/>
        <pt x="573" y="236" on="1"/>
        <pt x="581" y="100" on="0"/>
        <pt x="608" y="72" on="1"/>
        <pt x="612" y="67" on="0"/>
        <pt x="633" y="53" on="0"/>
        <pt x="637" y="52" on="1"/>
        <pt x="667" y="52" on="0"/>
        <pt x="723" y="104" on="0"/>
      </contour>
      <contour>
        <pt x="150" y="-24" on="1"/>
        <pt x="138" y="-24" on="0"/>
        <pt x="115" y="-12" on="0"/>
        <pt x="107" y="-10" on="0"/>
        <pt x="98" y="-8" on="1"/>
        <pt x="79" y="-3" on="0"/>
        <pt x="69" y="6" on="1"/>
        <pt x="18" y="53" on="0"/>
        <pt x="18" y="131" on="1"/>
        <pt x="18" y="168" on="0"/>
        <pt x="31" y="194" on="1"/>
        <pt x="36" y="204" on="0"/>
        <pt x="64" y="246" on="1"/>
        <pt x="79" y="271" on="0"/>
        <pt x="132" y="271" on="1"/>
        <pt x="153" y="271" on="0"/>
        <pt x="189" y="230" on="0"/>
        <pt x="189" y="203" on="1"/>
        <pt x="189" y="154" on="0"/>
        <pt x="148" y="134" on="1"/>
        <pt x="143" y="132" on="0"/>
        <pt x="135" y="138" on="0"/>
        <pt x="135" y="149" on="0"/>
        <pt x="140" y="151" on="1"/>
        <pt x="140" y="152" on="1"/>
        <pt x="169" y="166" on="0"/>
        <pt x="169" y="207" on="1"/>
        <pt x="169" y="222" on="0"/>
        <pt x="146" y="250" on="0"/>
        <pt x="132" y="250" on="1"/>
        <pt x="96" y="250" on="0"/>
        <pt x="86" y="234" on="1"/>
        <pt x="66" y="205" on="0"/>
        <pt x="66" y="160" on="1"/>
        <pt x="66" y="147" on="0"/>
        <pt x="67" y="131" on="1"/>
        <pt x="67" y="70" on="0"/>
        <pt x="84" y="39" on="0"/>
        <pt x="95" y="29" on="0"/>
        <pt x="98" y="26" on="1"/>
        <pt x="109" y="15" on="0"/>
        <pt x="111" y="14" on="0"/>
        <pt x="116" y="11" on="0"/>
        <pt x="118" y="10" on="0"/>
        <pt x="125" y="7" on="0"/>
        <pt x="127" y="6" on="1"/>
        <pt x="135" y="2" on="0"/>
        <pt x="155" y="2" on="0"/>
        <pt x="162" y="6" on="1"/>
        <pt x="175" y="14" on="0"/>
        <pt x="188" y="27" on="1"/>
        <pt x="225" y="56" on="0"/>
        <pt x="240" y="106" on="1"/>
        <pt x="247" y="132" on="0"/>
        <pt x="277" y="212" on="1"/>
        <pt x="285" y="237" on="0"/>
        <pt x="293" y="332" on="0"/>
        <pt x="304" y="370" on="0"/>
        <pt x="311" y="400" on="1"/>
        <pt x="326" y="461" on="0"/>
        <pt x="380" y="567" on="0"/>
        <pt x="437" y="628" on="0"/>
        <pt x="502" y="661" on="1"/>
        <pt x="507" y="664" on="0"/>
        <pt x="517" y="664" on="0"/>
        <pt x="533" y="652" on="0"/>
        <pt x="533" y="631" on="0"/>
        <pt x="521" y="624" on="1"/>
        <pt x="500" y="614" on="0"/>
        <pt x="409" y="519" on="0"/>
        <pt x="360" y="419" on="0"/>
        <pt x="337" y="339" on="0"/>
        <pt x="334" y="332" on="1"/>
        <pt x="330" y="320" on="0"/>
        <pt x="326" y="290" on="0"/>
        <pt x="316" y="258" on="0"/>
        <pt x="300" y="219" on="0"/>
        <pt x="291" y="191" on="0"/>
        <pt x="280" y="114" on="0"/>
        <pt x="273" y="93" on="0"/>
        <pt x="266" y="67" on="0"/>
        <pt x="264" y="61" on="0"/>
        <pt x="257" y="39" on="0"/>
        <pt x="253" y="30" on="0"/>
        <pt x="245" y="13" on="0"/>
        <pt x="241" y="8" on="1"/>
        <pt x="228" y="-8" on="0"/>
        <pt x="222" y="-13" on="1"/>
        <pt x="209" y="-24" on="0"/>
      </contour>
    </TTGlyph>
    <TTGlyph name="Adieresis" xMin="18" yMin="-24" xMax="745" yMax="778">
      <contour>
        <pt x="575" y="777" on="0"/>
        <pt x="599" y="760" on="0"/>
        <pt x="599" y="731" on="0"/>
        <pt x="573" y="706" on="0"/>
        <pt x="544" y="706" on="0"/>
        <pt x="524" y="724" on="0"/>
        <pt x="520" y="753" on="0"/>
        <pt x="544" y="777" on="0"/>
      </contour>
      <contour>
        <pt x="423" y="778" on="0"/>
        <pt x="442" y="757" on="0"/>
        <pt x="442" y="726" on="0"/>
        <pt x="423" y="704" on="0"/>
        <pt x="393" y="704" on="0"/>
        <pt x="368" y="727" on="0"/>
        <pt x="373" y="757" on="0"/>
        <pt x="394" y="778" on="0"/>
      </contour>
      <contour>
        <pt x="723" y="130" on="1"/>
        <pt x="717" y="165" on="1"/>
        <pt x="717" y="175" on="0"/>
        <pt x="735" y="186" on="0"/>
        <pt x="742" y="166" on="1"/>
        <pt x="745" y="156" on="0"/>
        <pt x="745" y="145" on="1"/>
        <pt x="745" y="114" on="0"/>
        <pt x="720" y="64" on="1"/>
        <pt x="688" y="1" on="0"/>
        <pt x="637" y="0" on="1"/>
        <pt x="626" y="0" on="0"/>
        <pt x="579" y="29" on="0"/>
        <pt x="571" y="39" on="1"/>
        <pt x="534" y="83" on="0"/>
        <pt x="521" y="214" on="1"/>
        <pt x="515" y="271" on="0"/>
        <pt x="510" y="304" on="1"/>
        <pt x="397" y="284" on="0"/>
        <pt x="351" y="230" on="1"/>
        <pt x="347" y="225" on="0"/>
        <pt x="336" y="228" on="0"/>
        <pt x="333" y="237" on="0"/>
        <pt x="337" y="242" on="1"/>
        <pt x="410" y="323" on="0"/>
        <pt x="506" y="356" on="1"/>
        <pt x="505" y="373" on="0"/>
        <pt x="505" y="441" on="0"/>
        <pt x="532" y="572" on="0"/>
        <pt x="532" y="613" on="0"/>
        <pt x="532" y="625" on="0"/>
        <pt x="541" y="631" on="0"/>
        <pt x="551" y="626" on="0"/>
        <pt x="551" y="619" on="1"/>
        <pt x="562" y="500" on="0"/>
        <pt x="562" y="382" on="0"/>
        <pt x="564" y="368" on="1"/>
        <pt x="575" y="371" on="0"/>
        <pt x="584" y="368" on="1"/>
        <pt x="607" y="368" on="0"/>
        <pt x="634" y="356" on="1"/>
        <pt x="673" y="339" on="0"/>
        <pt x="673" y="310" on="1"/>
        <pt x="673" y="294" on="0"/>
        <pt x="654" y="286" on="1"/>
        <pt x="645" y="283" on="0"/>
        <pt x="623" y="283" on="0"/>
        <pt x="615" y="300" on="1"/>
        <pt x="594" y="311" on="0"/>
        <pt x="572" y="311" on="0"/>
        <pt x="567" y="310" on="1"/>
        <pt x="570" y="297" on="0"/>
        <pt x="573" y="236" on="1"/>
        <pt x="581" y="100" on="0"/>
        <pt x="608" y="72" on="1"/>
        <pt x="612" y="67" on="0"/>
        <pt x="633" y="53" on="0"/>
        <pt x="637" y="52" on="1"/>
        <pt x="667" y="52" on="0"/>
        <pt x="723" y="104" on="0"/>
      </contour>
      <contour>
        <pt x="150" y="-24" on="1"/>
        <pt x="138" y="-24" on="0"/>
        <pt x="115" y="-12" on="0"/>
        <pt x="107" y="-10" on="0"/>
        <pt x="98" y="-8" on="1"/>
        <pt x="79" y="-3" on="0"/>
        <pt x="69" y="6" on="1"/>
        <pt x="18" y="53" on="0"/>
        <pt x="18" y="131" on="1"/>
        <pt x="18" y="168" on="0"/>
        <pt x="31" y="194" on="1"/>
        <pt x="36" y="204" on="0"/>
        <pt x="64" y="246" on="1"/>
        <pt x="79" y="271" on="0"/>
        <pt x="132" y="271" on="1"/>
        <pt x="153" y="271" on="0"/>
        <pt x="189" y="230" on="0"/>
        <pt x="189" y="203" on="1"/>
        <pt x="189" y="154" on="0"/>
        <pt x="148" y="134" on="1"/>
        <pt x="143" y="132" on="0"/>
        <pt x="135" y="138" on="0"/>
        <pt x="135" y="149" on="0"/>
        <pt x="140" y="151" on="1"/>
        <pt x="140" y="152" on="1"/>
        <pt x="169" y="166" on="0"/>
        <pt x="169" y="207" on="1"/>
        <pt x="169" y="222" on="0"/>
        <pt x="146" y="250" on="0"/>
        <pt x="132" y="250" on="1"/>
        <pt x="96" y="250" on="0"/>
        <pt x="86" y="234" on="1"/>
        <pt x="66" y="205" on="0"/>
        <pt x="66" y="160" on="1"/>
        <pt x="66" y="147" on="0"/>
        <pt x="67" y="131" on="1"/>
        <pt x="67" y="70" on="0"/>
        <pt x="84" y="39" on="0"/>
        <pt x="95" y="29" on="0"/>
        <pt x="98" y="26" on="1"/>
        <pt x="109" y="15" on="0"/>
        <pt x="111" y="14" on="0"/>
        <pt x="116" y="11" on="0"/>
        <pt x="118" y="10" on="0"/>
        <pt x="125" y="7" on="0"/>
        <pt x="127" y="6" on="1"/>
        <pt x="135" y="2" on="0"/>
        <pt x="155" y="2" on="0"/>
        <pt x="162" y="6" on="1"/>
        <pt x="175" y="14" on="0"/>
        <pt x="188" y="27" on="1"/>
        <pt x="225" y="56" on="0"/>
        <pt x="240" y="106" on="1"/>
        <pt x="247" y="132" on="0"/>
        <pt x="277" y="212" on="1"/>
        <pt x="285" y="237" on="0"/>
        <pt x="293" y="332" on="0"/>
        <pt x="304" y="370" on="0"/>
        <pt x="311" y="400" on="1"/>
        <pt x="326" y="461" on="0"/>
        <pt x="380" y="567" on="0"/>
        <pt x="437" y="628" on="0"/>
        <pt x="502" y="661" on="1"/>
        <pt x="507" y="664" on="0"/>
        <pt x="517" y="664" on="0"/>
        <pt x="533" y="652" on="0"/>
        <pt x="533" y="631" on="0"/>
        <pt x="521" y="624" on="1"/>
        <pt x="500" y="614" on="0"/>
        <pt x="409" y="519" on="0"/>
        <pt x="360" y="419" on="0"/>
        <pt x="337" y="339" on="0"/>
        <pt x="334" y="332" on="1"/>
        <pt x="330" y="320" on="0"/>
        <pt x="326" y="290" on="0"/>
        <pt x="316" y="258" on="0"/>
        <pt x="300" y="219" on="0"/>
        <pt x="291" y="191" on="0"/>
        <pt x="280" y="114" on="0"/>
        <pt x="273" y="93" on="0"/>
        <pt x="266" y="67" on="0"/>
        <pt x="264" y="61" on="0"/>
        <pt x="257" y="39" on="0"/>
        <pt x="253" y="30" on="0"/>
        <pt x="245" y="13" on="0"/>
        <pt x="241" y="8" on="1"/>
        <pt x="228" y="-8" on="0"/>
        <pt x="222" y="-13" on="1"/>
        <pt x="209" y="-24" on="0"/>
      </contour>
    </TTGlyph>
    <TTGlyph name="Agrave" xMin="18" yMin="-24" xMax="745" yMax="801">
      <contour>
        <pt x="319" y="801" on="0"/>
        <pt x="334" y="801" on="0"/>
        <pt x="360" y="790" on="0"/>
        <pt x="468" y="734" on="0"/>
        <pt x="496" y="724" on="1"/>
        <pt x="509" y="719" on="0"/>
        <pt x="498" y="701" on="0"/>
        <pt x="460" y="715" on="0"/>
        <pt x="343" y="735" on="0"/>
        <pt x="298" y="754" on="0"/>
        <pt x="295" y="795" on="0"/>
        <pt x="309" y="799" on="1"/>
      </contour>
      <contour>
        <pt x="723" y="130" on="1"/>
        <pt x="717" y="165" on="1"/>
        <pt x="717" y="175" on="0"/>
        <pt x="735" y="186" on="0"/>
        <pt x="742" y="166" on="1"/>
        <pt x="745" y="156" on="0"/>
        <pt x="745" y="145" on="1"/>
        <pt x="745" y="114" on="0"/>
        <pt x="720" y="64" on="1"/>
        <pt x="688" y="1" on="0"/>
        <pt x="637" y="0" on="1"/>
        <pt x="626" y="0" on="0"/>
        <pt x="579" y="29" on="0"/>
        <pt x="571" y="39" on="1"/>
        <pt x="534" y="83" on="0"/>
        <pt x="521" y="214" on="1"/>
        <pt x="515" y="271" on="0"/>
        <pt x="510" y="304" on="1"/>
        <pt x="397" y="284" on="0"/>
        <pt x="351" y="230" on="1"/>
        <pt x="347" y="225" on="0"/>
        <pt x="336" y="228" on="0"/>
        <pt x="333" y="237" on="0"/>
        <pt x="337" y="242" on="1"/>
        <pt x="410" y="323" on="0"/>
        <pt x="506" y="356" on="1"/>
        <pt x="505" y="373" on="0"/>
        <pt x="505" y="441" on="0"/>
        <pt x="532" y="572" on="0"/>
        <pt x="532" y="613" on="0"/>
        <pt x="532" y="625" on="0"/>
        <pt x="541" y="631" on="0"/>
        <pt x="551" y="626" on="0"/>
        <pt x="551" y="619" on="1"/>
        <pt x="562" y="500" on="0"/>
        <pt x="562" y="382" on="0"/>
        <pt x="564" y="368" on="1"/>
        <pt x="575" y="371" on="0"/>
        <pt x="584" y="368" on="1"/>
        <pt x="607" y="368" on="0"/>
        <pt x="634" y="356" on="1"/>
        <pt x="673" y="339" on="0"/>
        <pt x="673" y="310" on="1"/>
        <pt x="673" y="294" on="0"/>
        <pt x="654" y="286" on="1"/>
        <pt x="645" y="283" on="0"/>
        <pt x="623" y="283" on="0"/>
        <pt x="615" y="300" on="1"/>
        <pt x="594" y="311" on="0"/>
        <pt x="572" y="311" on="0"/>
        <pt x="567" y="310" on="1"/>
        <pt x="570" y="297" on="0"/>
        <pt x="573" y="236" on="1"/>
        <pt x="581" y="100" on="0"/>
        <pt x="608" y="72" on="1"/>
        <pt x="612" y="67" on="0"/>
        <pt x="633" y="53" on="0"/>
        <pt x="637" y="52" on="1"/>
        <pt x="667" y="52" on="0"/>
        <pt x="723" y="104" on="0"/>
      </contour>
      <contour>
        <pt x="150" y="-24" on="1"/>
        <pt x="138" y="-24" on="0"/>
        <pt x="115" y="-12" on="0"/>
        <pt x="107" y="-10" on="0"/>
        <pt x="98" y="-8" on="1"/>
        <pt x="79" y="-3" on="0"/>
        <pt x="69" y="6" on="1"/>
        <pt x="18" y="53" on="0"/>
        <pt x="18" y="131" on="1"/>
        <pt x="18" y="168" on="0"/>
        <pt x="31" y="194" on="1"/>
        <pt x="36" y="204" on="0"/>
        <pt x="64" y="246" on="1"/>
        <pt x="79" y="271" on="0"/>
        <pt x="132" y="271" on="1"/>
        <pt x="153" y="271" on="0"/>
        <pt x="189" y="230" on="0"/>
        <pt x="189" y="203" on="1"/>
        <pt x="189" y="154" on="0"/>
        <pt x="148" y="134" on="1"/>
        <pt x="143" y="132" on="0"/>
        <pt x="135" y="138" on="0"/>
        <pt x="135" y="149" on="0"/>
        <pt x="140" y="151" on="1"/>
        <pt x="140" y="152" on="1"/>
        <pt x="169" y="166" on="0"/>
        <pt x="169" y="207" on="1"/>
        <pt x="169" y="222" on="0"/>
        <pt x="146" y="250" on="0"/>
        <pt x="132" y="250" on="1"/>
        <pt x="96" y="250" on="0"/>
        <pt x="86" y="234" on="1"/>
        <pt x="66" y="205" on="0"/>
        <pt x="66" y="160" on="1"/>
        <pt x="66" y="147" on="0"/>
        <pt x="67" y="131" on="1"/>
        <pt x="67" y="70" on="0"/>
        <pt x="84" y="39" on="0"/>
        <pt x="95" y="29" on="0"/>
        <pt x="98" y="26" on="1"/>
        <pt x="109" y="15" on="0"/>
        <pt x="111" y="14" on="0"/>
        <pt x="116" y="11" on="0"/>
        <pt x="118" y="10" on="0"/>
        <pt x="125" y="7" on="0"/>
        <pt x="127" y="6" on="1"/>
        <pt x="135" y="2" on="0"/>
        <pt x="155" y="2" on="0"/>
        <pt x="162" y="6" on="1"/>
        <pt x="175" y="14" on="0"/>
        <pt x="188" y="27" on="1"/>
        <pt x="225" y="56" on="0"/>
        <pt x="240" y="106" on="1"/>
        <pt x="247" y="132" on="0"/>
        <pt x="277" y="212" on="1"/>
        <pt x="285" y="237" on="0"/>
        <pt x="293" y="332" on="0"/>
        <pt x="304" y="370" on="0"/>
        <pt x="311" y="400" on="1"/>
        <pt x="326" y="461" on="0"/>
        <pt x="380" y="567" on="0"/>
        <pt x="437" y="628" on="0"/>
        <pt x="502" y="661" on="1"/>
        <pt x="507" y="664" on="0"/>
        <pt x="517" y="664" on="0"/>
        <pt x="533" y="652" on="0"/>
        <pt x="533" y="631" on="0"/>
        <pt x="521" y="624" on="1"/>
        <pt x="500" y="614" on="0"/>
        <pt x="409" y="519" on="0"/>
        <pt x="360" y="419" on="0"/>
        <pt x="337" y="339" on="0"/>
        <pt x="334" y="332" on="1"/>
        <pt x="330" y="320" on="0"/>
        <pt x="326" y="290" on="0"/>
        <pt x="316" y="258" on="0"/>
        <pt x="300" y="219" on="0"/>
        <pt x="291" y="191" on="0"/>
        <pt x="280" y="114" on="0"/>
        <pt x="273" y="93" on="0"/>
        <pt x="266" y="67" on="0"/>
        <pt x="264" y="61" on="0"/>
        <pt x="257" y="39" on="0"/>
        <pt x="253" y="30" on="0"/>
        <pt x="245" y="13" on="0"/>
        <pt x="241" y="8" on="1"/>
        <pt x="228" y="-8" on="0"/>
        <pt x="222" y="-13" on="1"/>
        <pt x="209" y="-24" on="0"/>
      </contour>
    </TTGlyph>
    <TTGlyph name="Aring" xMin="18" yMin="-24" xMax="745" yMax="825">
      <contour>
        <pt x="513" y="825" on="0"/>
        <pt x="568" y="785" on="0"/>
        <pt x="568" y="687" on="0"/>
        <pt x="523" y="687" on="1"/>
        <pt x="469" y="687" on="0"/>
        <pt x="438" y="716" on="1"/>
        <pt x="418" y="733" on="0"/>
        <pt x="418" y="798" on="0"/>
        <pt x="454" y="820" on="1"/>
        <pt x="461" y="825" on="0"/>
      </contour>
      <contour>
        <pt x="723" y="130" on="1"/>
        <pt x="717" y="165" on="1"/>
        <pt x="717" y="175" on="0"/>
        <pt x="735" y="186" on="0"/>
        <pt x="742" y="166" on="1"/>
        <pt x="745" y="156" on="0"/>
        <pt x="745" y="145" on="1"/>
        <pt x="745" y="114" on="0"/>
        <pt x="720" y="64" on="1"/>
        <pt x="688" y="1" on="0"/>
        <pt x="637" y="0" on="1"/>
        <pt x="626" y="0" on="0"/>
        <pt x="579" y="29" on="0"/>
        <pt x="571" y="39" on="1"/>
        <pt x="534" y="83" on="0"/>
        <pt x="521" y="214" on="1"/>
        <pt x="515" y="271" on="0"/>
        <pt x="510" y="304" on="1"/>
        <pt x="397" y="284" on="0"/>
        <pt x="351" y="230" on="1"/>
        <pt x="347" y="225" on="0"/>
        <pt x="336" y="228" on="0"/>
        <pt x="333" y="237" on="0"/>
        <pt x="337" y="242" on="1"/>
        <pt x="410" y="323" on="0"/>
        <pt x="506" y="356" on="1"/>
        <pt x="505" y="373" on="0"/>
        <pt x="505" y="441" on="0"/>
        <pt x="532" y="572" on="0"/>
        <pt x="532" y="613" on="0"/>
        <pt x="532" y="625" on="0"/>
        <pt x="541" y="631" on="0"/>
        <pt x="551" y="626" on="0"/>
        <pt x="551" y="619" on="1"/>
        <pt x="562" y="500" on="0"/>
        <pt x="562" y="382" on="0"/>
        <pt x="564" y="368" on="1"/>
        <pt x="575" y="371" on="0"/>
        <pt x="584" y="368" on="1"/>
        <pt x="607" y="368" on="0"/>
        <pt x="634" y="356" on="1"/>
        <pt x="673" y="339" on="0"/>
        <pt x="673" y="310" on="1"/>
        <pt x="673" y="294" on="0"/>
        <pt x="654" y="286" on="1"/>
        <pt x="645" y="283" on="0"/>
        <pt x="623" y="283" on="0"/>
        <pt x="615" y="300" on="1"/>
        <pt x="594" y="311" on="0"/>
        <pt x="572" y="311" on="0"/>
        <pt x="567" y="310" on="1"/>
        <pt x="570" y="297" on="0"/>
        <pt x="573" y="236" on="1"/>
        <pt x="581" y="100" on="0"/>
        <pt x="608" y="72" on="1"/>
        <pt x="612" y="67" on="0"/>
        <pt x="633" y="53" on="0"/>
        <pt x="637" y="52" on="1"/>
        <pt x="667" y="52" on="0"/>
        <pt x="723" y="104" on="0"/>
      </contour>
      <contour>
        <pt x="150" y="-24" on="1"/>
        <pt x="138" y="-24" on="0"/>
        <pt x="115" y="-12" on="0"/>
        <pt x="107" y="-10" on="0"/>
        <pt x="98" y="-8" on="1"/>
        <pt x="79" y="-3" on="0"/>
        <pt x="69" y="6" on="1"/>
        <pt x="18" y="53" on="0"/>
        <pt x="18" y="131" on="1"/>
        <pt x="18" y="168" on="0"/>
        <pt x="31" y="194" on="1"/>
        <pt x="36" y="204" on="0"/>
        <pt x="64" y="246" on="1"/>
        <pt x="79" y="271" on="0"/>
        <pt x="132" y="271" on="1"/>
        <pt x="153" y="271" on="0"/>
        <pt x="189" y="230" on="0"/>
        <pt x="189" y="203" on="1"/>
        <pt x="189" y="154" on="0"/>
        <pt x="148" y="134" on="1"/>
        <pt x="143" y="132" on="0"/>
        <pt x="135" y="138" on="0"/>
        <pt x="135" y="149" on="0"/>
        <pt x="140" y="151" on="1"/>
        <pt x="140" y="152" on="1"/>
        <pt x="169" y="166" on="0"/>
        <pt x="169" y="207" on="1"/>
        <pt x="169" y="222" on="0"/>
        <pt x="146" y="250" on="0"/>
        <pt x="132" y="250" on="1"/>
        <pt x="96" y="250" on="0"/>
        <pt x="86" y="234" on="1"/>
        <pt x="66" y="205" on="0"/>
        <pt x="66" y="160" on="1"/>
        <pt x="66" y="147" on="0"/>
        <pt x="67" y="131" on="1"/>
        <pt x="67" y="70" on="0"/>
        <pt x="84" y="39" on="0"/>
        <pt x="95" y="29" on="0"/>
        <pt x="98" y="26" on="1"/>
        <pt x="109" y="15" on="0"/>
        <pt x="111" y="14" on="0"/>
        <pt x="116" y="11" on="0"/>
        <pt x="118" y="10" on="0"/>
        <pt x="125" y="7" on="0"/>
        <pt x="127" y="6" on="1"/>
        <pt x="135" y="2" on="0"/>
        <pt x="155" y="2" on="0"/>
        <pt x="162" y="6" on="1"/>
        <pt x="175" y="14" on="0"/>
        <pt x="188" y="27" on="1"/>
        <pt x="225" y="56" on="0"/>
        <pt x="240" y="106" on="1"/>
        <pt x="247" y="132" on="0"/>
        <pt x="277" y="212" on="1"/>
        <pt x="285" y="237" on="0"/>
        <pt x="293" y="332" on="0"/>
        <pt x="304" y="370" on="0"/>
        <pt x="311" y="400" on="1"/>
        <pt x="326" y="461" on="0"/>
        <pt x="380" y="567" on="0"/>
        <pt x="437" y="628" on="0"/>
        <pt x="502" y="661" on="1"/>
        <pt x="513" y="667" on="0"/>
        <pt x="533" y="652" on="0"/>
        <pt x="532" y="631" on="0"/>
        <pt x="521" y="624" on="1"/>
        <pt x="500" y="614" on="0"/>
        <pt x="409" y="519" on="0"/>
        <pt x="360" y="419" on="0"/>
        <pt x="337" y="339" on="0"/>
        <pt x="334" y="332" on="1"/>
        <pt x="330" y="320" on="0"/>
        <pt x="326" y="290" on="0"/>
        <pt x="316" y="258" on="0"/>
        <pt x="300" y="219" on="0"/>
        <pt x="291" y="191" on="0"/>
        <pt x="280" y="114" on="0"/>
        <pt x="273" y="93" on="0"/>
        <pt x="266" y="67" on="0"/>
        <pt x="264" y="61" on="0"/>
        <pt x="257" y="39" on="0"/>
        <pt x="253" y="30" on="0"/>
        <pt x="245" y="13" on="0"/>
        <pt x="241" y="8" on="1"/>
        <pt x="228" y="-8" on="0"/>
        <pt x="222" y="-13" on="1"/>
        <pt x="209" y="-24" on="0"/>
      </contour>
      <contour>
        <pt x="523" y="720" on="1"/>
        <pt x="526" y="720" on="0"/>
        <pt x="534" y="722" on="0"/>
        <pt x="534" y="766" on="0"/>
        <pt x="501" y="791" on="0"/>
        <pt x="477" y="791" on="1"/>
        <pt x="475" y="791" on="0"/>
        <pt x="473" y="791" on="1"/>
        <pt x="470" y="791" on="1"/>
        <pt x="451" y="779" on="0"/>
        <pt x="451" y="743" on="0"/>
        <pt x="493" y="720" on="0"/>
      </contour>
    </TTGlyph>
    <TTGlyph name="Atilde" xMin="18" yMin="-24" xMax="745" yMax="786">
      <contour>
        <pt x="306" y="724" on="1"/>
        <pt x="302" y="700" on="0"/>
        <pt x="267" y="700" on="0"/>
        <pt x="267" y="717" on="1"/>
        <pt x="267" y="731" on="0"/>
        <pt x="314" y="778" on="0"/>
        <pt x="338" y="781" on="0"/>
        <pt x="346" y="781" on="1"/>
        <pt x="389" y="781" on="0"/>
        <pt x="493" y="745" on="0"/>
        <pt x="514" y="745" on="1"/>
        <pt x="540" y="745" on="1"/>
        <pt x="562" y="745" on="0"/>
        <pt x="567" y="750" on="1"/>
        <pt x="581" y="762" on="0"/>
        <pt x="579" y="785" on="0"/>
        <pt x="583" y="785" on="1"/>
        <pt x="595" y="785" on="0"/>
        <pt x="605" y="766" on="0"/>
        <pt x="605" y="739" on="0"/>
        <pt x="557" y="700" on="0"/>
        <pt x="520" y="700" on="1"/>
        <pt x="486" y="700" on="0"/>
        <pt x="459" y="709" on="1"/>
        <pt x="370" y="739" on="0"/>
        <pt x="308" y="739" on="0"/>
      </contour>
      <contour>
        <pt x="723" y="130" on="1"/>
        <pt x="717" y="165" on="1"/>
        <pt x="717" y="175" on="0"/>
        <pt x="735" y="186" on="0"/>
        <pt x="742" y="166" on="1"/>
        <pt x="745" y="156" on="0"/>
        <pt x="745" y="145" on="1"/>
        <pt x="745" y="114" on="0"/>
        <pt x="720" y="64" on="1"/>
        <pt x="688" y="1" on="0"/>
        <pt x="637" y="0" on="1"/>
        <pt x="626" y="0" on="0"/>
        <pt x="579" y="29" on="0"/>
        <pt x="571" y="39" on="1"/>
        <pt x="534" y="83" on="0"/>
        <pt x="521" y="214" on="1"/>
        <pt x="515" y="271" on="0"/>
        <pt x="510" y="304" on="1"/>
        <pt x="397" y="284" on="0"/>
        <pt x="351" y="230" on="1"/>
        <pt x="347" y="225" on="0"/>
        <pt x="336" y="228" on="0"/>
        <pt x="333" y="237" on="0"/>
        <pt x="337" y="242" on="1"/>
        <pt x="410" y="323" on="0"/>
        <pt x="506" y="356" on="1"/>
        <pt x="505" y="373" on="0"/>
        <pt x="505" y="441" on="0"/>
        <pt x="532" y="572" on="0"/>
        <pt x="532" y="613" on="0"/>
        <pt x="532" y="625" on="0"/>
        <pt x="541" y="631" on="0"/>
        <pt x="551" y="626" on="0"/>
        <pt x="551" y="619" on="1"/>
        <pt x="562" y="500" on="0"/>
        <pt x="562" y="382" on="0"/>
        <pt x="564" y="368" on="1"/>
        <pt x="575" y="371" on="0"/>
        <pt x="584" y="368" on="1"/>
        <pt x="607" y="368" on="0"/>
        <pt x="634" y="356" on="1"/>
        <pt x="673" y="339" on="0"/>
        <pt x="673" y="310" on="1"/>
        <pt x="673" y="294" on="0"/>
        <pt x="654" y="286" on="1"/>
        <pt x="645" y="283" on="0"/>
        <pt x="623" y="283" on="0"/>
        <pt x="615" y="300" on="1"/>
        <pt x="594" y="311" on="0"/>
        <pt x="572" y="311" on="0"/>
        <pt x="567" y="310" on="1"/>
        <pt x="570" y="297" on="0"/>
        <pt x="573" y="236" on="1"/>
        <pt x="581" y="100" on="0"/>
        <pt x="608" y="72" on="1"/>
        <pt x="612" y="67" on="0"/>
        <pt x="633" y="53" on="0"/>
        <pt x="637" y="52" on="1"/>
        <pt x="667" y="52" on="0"/>
        <pt x="723" y="104" on="0"/>
      </contour>
      <contour>
        <pt x="150" y="-24" on="1"/>
        <pt x="138" y="-24" on="0"/>
        <pt x="115" y="-12" on="0"/>
        <pt x="107" y="-10" on="0"/>
        <pt x="98" y="-8" on="1"/>
        <pt x="79" y="-3" on="0"/>
        <pt x="69" y="6" on="1"/>
        <pt x="18" y="53" on="0"/>
        <pt x="18" y="131" on="1"/>
        <pt x="18" y="168" on="0"/>
        <pt x="31" y="194" on="1"/>
        <pt x="36" y="204" on="0"/>
        <pt x="64" y="246" on="1"/>
        <pt x="79" y="271" on="0"/>
        <pt x="132" y="271" on="1"/>
        <pt x="153" y="271" on="0"/>
        <pt x="189" y="230" on="0"/>
        <pt x="189" y="203" on="1"/>
        <pt x="189" y="154" on="0"/>
        <pt x="148" y="134" on="1"/>
        <pt x="143" y="132" on="0"/>
        <pt x="135" y="138" on="0"/>
        <pt x="135" y="149" on="0"/>
        <pt x="140" y="151" on="1"/>
        <pt x="140" y="152" on="1"/>
        <pt x="169" y="166" on="0"/>
        <pt x="169" y="207" on="1"/>
        <pt x="169" y="222" on="0"/>
        <pt x="146" y="250" on="0"/>
        <pt x="132" y="250" on="1"/>
        <pt x="96" y="250" on="0"/>
        <pt x="86" y="234" on="1"/>
        <pt x="66" y="205" on="0"/>
        <pt x="66" y="160" on="1"/>
        <pt x="66" y="147" on="0"/>
        <pt x="67" y="131" on="1"/>
        <pt x="67" y="70" on="0"/>
        <pt x="84" y="39" on="0"/>
        <pt x="95" y="29" on="0"/>
        <pt x="98" y="26" on="1"/>
        <pt x="109" y="15" on="0"/>
        <pt x="111" y="14" on="0"/>
        <pt x="116" y="11" on="0"/>
        <pt x="118" y="10" on="0"/>
        <pt x="125" y="7" on="0"/>
        <pt x="127" y="6" on="1"/>
        <pt x="135" y="2" on="0"/>
        <pt x="155" y="2" on="0"/>
        <pt x="162" y="6" on="1"/>
        <pt x="175" y="14" on="0"/>
        <pt x="188" y="27" on="1"/>
        <pt x="225" y="56" on="0"/>
        <pt x="240" y="106" on="1"/>
        <pt x="247" y="132" on="0"/>
        <pt x="277" y="212" on="1"/>
        <pt x="285" y="237" on="0"/>
        <pt x="293" y="332" on="0"/>
        <pt x="304" y="370" on="0"/>
        <pt x="311" y="400" on="1"/>
        <pt x="326" y="461" on="0"/>
        <pt x="380" y="567" on="0"/>
        <pt x="437" y="628" on="0"/>
        <pt x="502" y="661" on="1"/>
        <pt x="507" y="664" on="0"/>
        <pt x="517" y="664" on="0"/>
        <pt x="533" y="652" on="0"/>
        <pt x="533" y="631" on="0"/>
        <pt x="521" y="624" on="1"/>
        <pt x="500" y="614" on="0"/>
        <pt x="409" y="519" on="0"/>
        <pt x="360" y="419" on="0"/>
        <pt x="337" y="339" on="0"/>
        <pt x="334" y="332" on="1"/>
        <pt x="330" y="320" on="0"/>
        <pt x="326" y="290" on="0"/>
        <pt x="316" y="258" on="0"/>
        <pt x="300" y="219" on="0"/>
        <pt x="291" y="191" on="0"/>
        <pt x="280" y="114" on="0"/>
        <pt x="273" y="93" on="0"/>
        <pt x="266" y="67" on="0"/>
        <pt x="264" y="61" on="0"/>
        <pt x="257" y="39" on="0"/>
        <pt x="253" y="30" on="0"/>
        <pt x="245" y="13" on="0"/>
        <pt x="241" y="8" on="1"/>
        <pt x="228" y="-8" on="0"/>
        <pt x="222" y="-13" on="1"/>
        <pt x="209" y="-24" on="0"/>
      </contour>
    </TTGlyph>
    <TTGlyph name="B" xMin="-2" yMin="-104" xMax="618" yMax="755">
      <contour>
        <pt x="118" y="343" on="1"/>
        <pt x="83" y="337" on="1"/>
        <pt x="42" y="337" on="0"/>
        <pt x="-2" y="387" on="0"/>
        <pt x="-2" y="480" on="0"/>
        <pt x="103" y="581" on="0"/>
        <pt x="201" y="612" on="0"/>
        <pt x="236" y="619" on="1"/>
        <pt x="261" y="755" on="0"/>
        <pt x="338" y="755" on="1"/>
        <pt x="359" y="755" on="0"/>
        <pt x="388" y="724" on="0"/>
        <pt x="388" y="697" on="0"/>
        <pt x="384" y="686" on="0"/>
        <pt x="380" y="679" on="0"/>
        <pt x="371" y="669" on="0"/>
        <pt x="368" y="667" on="1"/>
        <pt x="356" y="657" on="0"/>
        <pt x="348" y="650" on="0"/>
        <pt x="338" y="655" on="0"/>
        <pt x="336" y="665" on="0"/>
        <pt x="340" y="669" on="1"/>
        <pt x="381" y="696" on="0"/>
        <pt x="358" y="726" on="1"/>
        <pt x="350" y="735" on="0"/>
        <pt x="338" y="735" on="1"/>
        <pt x="276" y="734" on="0"/>
        <pt x="268" y="623" on="1"/>
        <pt x="305" y="626" on="1"/>
        <pt x="423" y="626" on="0"/>
        <pt x="519" y="578" on="1"/>
        <pt x="618" y="525" on="0"/>
        <pt x="618" y="385" on="0"/>
        <pt x="550" y="310" on="1"/>
        <pt x="599" y="270" on="0"/>
        <pt x="599" y="208" on="1"/>
        <pt x="599" y="166" on="0"/>
        <pt x="553" y="40" on="0"/>
        <pt x="472" y="-58" on="0"/>
        <pt x="424" y="-58" on="1"/>
        <pt x="398" y="-58" on="0"/>
        <pt x="351" y="4" on="0"/>
        <pt x="351" y="31" on="1"/>
        <pt x="351" y="45" on="0"/>
        <pt x="360" y="65" on="0"/>
        <pt x="362" y="72" on="0"/>
        <pt x="374" y="87" on="0"/>
        <pt x="375" y="91" on="1"/>
        <pt x="377" y="97" on="0"/>
        <pt x="388" y="98" on="0"/>
        <pt x="396" y="90" on="0"/>
        <pt x="393" y="82" on="0"/>
        <pt x="393" y="63" on="0"/>
        <pt x="390" y="55" on="0"/>
        <pt x="393" y="39" on="0"/>
        <pt x="393" y="24" on="0"/>
        <pt x="414" y="1" on="0"/>
        <pt x="424" y="1" on="1"/>
        <pt x="451" y="1" on="0"/>
        <pt x="497" y="47" on="0"/>
        <pt x="511" y="81" on="1"/>
        <pt x="537" y="145" on="0"/>
        <pt x="546" y="213" on="0"/>
        <pt x="545" y="218" on="1"/>
        <pt x="545" y="252" on="0"/>
        <pt x="516" y="279" on="1"/>
        <pt x="488" y="259" on="0"/>
        <pt x="458" y="247" on="1"/>
        <pt x="421" y="232" on="0"/>
        <pt x="351" y="196" on="0"/>
        <pt x="346" y="196" on="1"/>
        <pt x="316" y="196" on="0"/>
        <pt x="305" y="212" on="1"/>
        <pt x="290" y="-23" on="0"/>
        <pt x="158" y="-97" on="1"/>
        <pt x="145" y="-104" on="0"/>
        <pt x="70" y="-104" on="0"/>
        <pt x="43" y="-61" on="1"/>
        <pt x="-3" y="12" on="0"/>
        <pt x="28" y="104" on="1"/>
        <pt x="29" y="110" on="0"/>
        <pt x="40" y="112" on="0"/>
        <pt x="47" y="106" on="0"/>
        <pt x="43" y="90" on="0"/>
        <pt x="43" y="29" on="1"/>
        <pt x="43" y="13" on="0"/>
        <pt x="57" y="-19" on="1"/>
        <pt x="72" y="-59" on="0"/>
        <pt x="112" y="-59" on="1"/>
        <pt x="115" y="-59" on="0"/>
        <pt x="127" y="-47" on="0"/>
        <pt x="130" y="-46" on="1"/>
        <pt x="191" y="-11" on="0"/>
        <pt x="249" y="158" on="0"/>
        <pt x="249" y="367" on="0"/>
        <pt x="228" y="497" on="0"/>
        <pt x="228" y="545" on="0"/>
        <pt x="230" y="568" on="1"/>
        <pt x="200" y="565" on="0"/>
        <pt x="122" y="541" on="0"/>
        <pt x="29" y="470" on="0"/>
        <pt x="29" y="431" on="1"/>
        <pt x="29" y="407" on="0"/>
        <pt x="62" y="359" on="0"/>
        <pt x="83" y="358" on="1"/>
        <pt x="118" y="361" on="1"/>
        <pt x="124" y="361" on="0"/>
        <pt x="128" y="352" on="0"/>
        <pt x="124" y="343" on="0"/>
      </contour>
      <contour>
        <pt x="487" y="536" on="0"/>
        <pt x="404" y="564" on="0"/>
        <pt x="342" y="573" on="0"/>
        <pt x="279" y="573" on="0"/>
        <pt x="265" y="572" on="1"/>
        <pt x="268" y="515" on="0"/>
        <pt x="277" y="460" on="0"/>
        <pt x="286" y="414" on="1"/>
        <pt x="307" y="316" on="0"/>
        <pt x="307" y="264" on="1"/>
        <pt x="307" y="263" on="1"/>
        <pt x="317" y="281" on="0"/>
        <pt x="348" y="304" on="1"/>
        <pt x="402" y="339" on="0"/>
        <pt x="475" y="339" on="1"/>
        <pt x="488" y="339" on="0"/>
        <pt x="508" y="335" on="1"/>
        <pt x="564" y="393" on="0"/>
        <pt x="564" y="458" on="1"/>
        <pt x="565" y="485" on="0"/>
      </contour>
      <contour>
        <pt x="352" y="240" on="1"/>
        <pt x="354" y="239" on="0"/>
        <pt x="366" y="239" on="0"/>
        <pt x="384" y="242" on="1"/>
        <pt x="404" y="245" on="0"/>
        <pt x="411" y="249" on="1"/>
        <pt x="440" y="263" on="0"/>
        <pt x="474" y="296" on="1"/>
        <pt x="415" y="296" on="0"/>
        <pt x="372" y="270" on="1"/>
        <pt x="352" y="255" on="0"/>
        <pt x="351" y="240" on="1"/>
      </contour>
    </TTGlyph>
    <TTGlyph name="C" xMin="19" yMin="-25" xMax="463" yMax="675">
      <contour>
        <pt x="262" y="-25" on="1"/>
        <pt x="198" y="-25" on="0"/>
        <pt x="99" y="49" on="0"/>
        <pt x="46" y="162" on="0"/>
        <pt x="19" y="276" on="0"/>
        <pt x="19" y="378" on="0"/>
        <pt x="29" y="418" on="1"/>
        <pt x="52" y="507" on="0"/>
        <pt x="226" y="675" on="0"/>
        <pt x="314" y="675" on="1"/>
        <pt x="354" y="675" on="0"/>
        <pt x="428" y="594" on="0"/>
        <pt x="428" y="517" on="0"/>
        <pt x="373" y="431" on="0"/>
        <pt x="338" y="431" on="1"/>
        <pt x="319" y="431" on="0"/>
        <pt x="278" y="456" on="0"/>
        <pt x="278" y="473" on="1"/>
        <pt x="278" y="506" on="0"/>
        <pt x="297" y="529" on="1"/>
        <pt x="303" y="536" on="0"/>
        <pt x="333" y="550" on="1"/>
        <pt x="339" y="552" on="0"/>
        <pt x="347" y="544" on="0"/>
        <pt x="346" y="534" on="0"/>
        <pt x="340" y="532" on="1"/>
        <pt x="339" y="532" on="1"/>
        <pt x="324" y="525" on="0"/>
        <pt x="304" y="491" on="0"/>
        <pt x="304" y="463" on="0"/>
        <pt x="326" y="450" on="0"/>
        <pt x="338" y="450" on="1"/>
        <pt x="363" y="450" on="0"/>
        <pt x="409" y="521" on="0"/>
        <pt x="410" y="580" on="0"/>
        <pt x="358" y="645" on="0"/>
        <pt x="312" y="645" on="1"/>
        <pt x="236" y="645" on="0"/>
        <pt x="172" y="566" on="1"/>
        <pt x="77" y="447" on="0"/>
        <pt x="77" y="322" on="1"/>
        <pt x="77" y="216" on="0"/>
        <pt x="176" y="34" on="0"/>
        <pt x="260" y="34" on="1"/>
        <pt x="261" y="34" on="0"/>
        <pt x="262" y="34" on="1"/>
        <pt x="327" y="34" on="0"/>
        <pt x="358" y="65" on="1"/>
        <pt x="418" y="121" on="0"/>
        <pt x="418" y="165" on="1"/>
        <pt x="418" y="193" on="0"/>
        <pt x="392" y="240" on="0"/>
        <pt x="338" y="240" on="0"/>
        <pt x="315" y="192" on="0"/>
        <pt x="315" y="163" on="0"/>
        <pt x="317" y="149" on="0"/>
        <pt x="308" y="142" on="0"/>
        <pt x="303" y="144" on="1"/>
        <pt x="295" y="146" on="0"/>
        <pt x="295" y="201" on="0"/>
        <pt x="308" y="226" on="1"/>
        <pt x="327" y="261" on="0"/>
        <pt x="407" y="261" on="0"/>
        <pt x="463" y="202" on="0"/>
        <pt x="462" y="126" on="0"/>
        <pt x="426" y="48" on="0"/>
        <pt x="399" y="21" on="1"/>
        <pt x="348" y="-25" on="0"/>
      </contour>
    </TTGlyph>
    <TTGlyph name="Ccedilla" xMin="19" yMin="-301" xMax="463" yMax="675">
      <contour>
        <pt x="164" y="-125" on="0"/>
        <pt x="203" y="-152" on="0"/>
        <pt x="203" y="-217" on="0"/>
        <pt x="172" y="-217" on="1"/>
        <pt x="162" y="-217" on="0"/>
        <pt x="142" y="-208" on="0"/>
        <pt x="151" y="-185" on="0"/>
        <pt x="178" y="-196" on="0"/>
        <pt x="181" y="-183" on="1"/>
        <pt x="181" y="-181" on="0"/>
        <pt x="181" y="-179" on="1"/>
        <pt x="181" y="-165" on="0"/>
        <pt x="145" y="-150" on="0"/>
        <pt x="102" y="-150" on="0"/>
        <pt x="69" y="-188" on="0"/>
        <pt x="69" y="-213" on="1"/>
        <pt x="69" y="-267" on="0"/>
        <pt x="211" y="-267" on="1"/>
        <pt x="264" y="-267" on="0"/>
        <pt x="353" y="-206" on="0"/>
        <pt x="353" y="-115" on="0"/>
        <pt x="303" y="-78" on="0"/>
        <pt x="246" y="-78" on="1"/>
        <pt x="219" y="-78" on="0"/>
        <pt x="184" y="-91" on="0"/>
        <pt x="173" y="-81" on="0"/>
        <pt x="191" y="-43" on="0"/>
        <pt x="195" y="-13" on="1"/>
        <pt x="149" y="4" on="0"/>
        <pt x="78" y="85" on="0"/>
        <pt x="58" y="136" on="1"/>
        <pt x="19" y="238" on="0"/>
        <pt x="19" y="327" on="1"/>
        <pt x="19" y="378" on="0"/>
        <pt x="29" y="418" on="1"/>
        <pt x="52" y="507" on="0"/>
        <pt x="226" y="675" on="0"/>
        <pt x="314" y="675" on="1"/>
        <pt x="354" y="675" on="0"/>
        <pt x="428" y="594" on="0"/>
        <pt x="428" y="517" on="0"/>
        <pt x="373" y="431" on="0"/>
        <pt x="338" y="431" on="1"/>
        <pt x="319" y="431" on="0"/>
        <pt x="278" y="456" on="0"/>
        <pt x="278" y="473" on="1"/>
        <pt x="278" y="506" on="0"/>
        <pt x="297" y="529" on="1"/>
        <pt x="303" y="536" on="0"/>
        <pt x="333" y="550" on="1"/>
        <pt x="339" y="552" on="0"/>
        <pt x="347" y="544" on="0"/>
        <pt x="346" y="534" on="0"/>
        <pt x="340" y="532" on="1"/>
        <pt x="339" y="532" on="1"/>
        <pt x="324" y="525" on="0"/>
        <pt x="304" y="491" on="0"/>
        <pt x="304" y="463" on="0"/>
        <pt x="326" y="450" on="0"/>
        <pt x="338" y="450" on="1"/>
        <pt x="363" y="450" on="0"/>
        <pt x="409" y="521" on="0"/>
        <pt x="410" y="580" on="0"/>
        <pt x="358" y="645" on="0"/>
        <pt x="312" y="645" on="1"/>
        <pt x="236" y="645" on="0"/>
        <pt x="172" y="566" on="1"/>
        <pt x="77" y="447" on="0"/>
        <pt x="77" y="322" on="1"/>
        <pt x="77" y="216" on="0"/>
        <pt x="176" y="34" on="0"/>
        <pt x="260" y="34" on="1"/>
        <pt x="261" y="34" on="0"/>
        <pt x="262" y="34" on="1"/>
        <pt x="327" y="34" on="0"/>
        <pt x="358" y="65" on="1"/>
        <pt x="418" y="121" on="0"/>
        <pt x="418" y="165" on="1"/>
        <pt x="418" y="193" on="0"/>
        <pt x="392" y="240" on="0"/>
        <pt x="338" y="240" on="0"/>
        <pt x="315" y="192" on="0"/>
        <pt x="315" y="163" on="0"/>
        <pt x="317" y="149" on="0"/>
        <pt x="308" y="142" on="0"/>
        <pt x="303" y="144" on="1"/>
        <pt x="295" y="146" on="0"/>
        <pt x="295" y="201" on="0"/>
        <pt x="308" y="226" on="1"/>
        <pt x="327" y="261" on="0"/>
        <pt x="407" y="261" on="0"/>
        <pt x="463" y="202" on="0"/>
        <pt x="462" y="126" on="0"/>
        <pt x="426" y="48" on="0"/>
        <pt x="399" y="21" on="1"/>
        <pt x="348" y="-25" on="0"/>
        <pt x="262" y="-25" on="1"/>
        <pt x="241" y="-25" on="0"/>
        <pt x="219" y="-20" on="1"/>
        <pt x="211" y="-57" on="1"/>
        <pt x="229" y="-54" on="0"/>
        <pt x="246" y="-54" on="1"/>
        <pt x="313" y="-54" on="0"/>
        <pt x="399" y="-108" on="0"/>
        <pt x="399" y="-223" on="0"/>
        <pt x="270" y="-301" on="0"/>
        <pt x="209" y="-301" on="1"/>
        <pt x="160" y="-301" on="0"/>
        <pt x="116" y="-287" on="1"/>
        <pt x="32" y="-260" on="0"/>
        <pt x="32" y="-207" on="1"/>
        <pt x="32" y="-171" on="0"/>
        <pt x="92" y="-125" on="0"/>
      </contour>
    </TTGlyph>
    <TTGlyph name="D" xMin="25" yMin="-52" xMax="716" yMax="785">
      <contour>
        <pt x="45" y="447" on="1"/>
        <pt x="45" y="438" on="0"/>
        <pt x="54" y="438" on="1"/>
        <pt x="66" y="438" on="1"/>
        <pt x="83" y="438" on="0"/>
        <pt x="122" y="451" on="1"/>
        <pt x="128" y="453" on="0"/>
        <pt x="135" y="446" on="0"/>
        <pt x="134" y="435" on="0"/>
        <pt x="129" y="433" on="1"/>
        <pt x="128" y="433" on="1"/>
        <pt x="68" y="417" on="0"/>
        <pt x="39" y="421" on="0"/>
        <pt x="26" y="434" on="0"/>
        <pt x="26" y="449" on="1"/>
        <pt x="26" y="484" on="0"/>
        <pt x="100" y="540" on="0"/>
        <pt x="141" y="556" on="1"/>
        <pt x="205" y="579" on="0"/>
        <pt x="244" y="589" on="1"/>
        <pt x="244" y="627" on="1"/>
        <pt x="244" y="686" on="0"/>
        <pt x="303" y="784" on="0"/>
        <pt x="350" y="784" on="1"/>
        <pt x="351" y="784" on="0"/>
        <pt x="352" y="784" on="1"/>
        <pt x="377" y="784" on="0"/>
        <pt x="412" y="748" on="0"/>
        <pt x="413" y="697" on="0"/>
        <pt x="378" y="655" on="0"/>
        <pt x="351" y="652" on="1"/>
        <pt x="345" y="651" on="0"/>
        <pt x="339" y="660" on="0"/>
        <pt x="342" y="671" on="0"/>
        <pt x="367" y="674" on="0"/>
        <pt x="394" y="704" on="0"/>
        <pt x="394" y="740" on="0"/>
        <pt x="370" y="763" on="0"/>
        <pt x="352" y="763" on="1"/>
        <pt x="313" y="762" on="0"/>
        <pt x="267" y="677" on="0"/>
        <pt x="267" y="627" on="1"/>
        <pt x="267" y="615" on="0"/>
        <pt x="271" y="595" on="1"/>
        <pt x="335" y="608" on="0"/>
        <pt x="446" y="608" on="0"/>
        <pt x="469" y="605" on="1"/>
        <pt x="565" y="589" on="0"/>
        <pt x="716" y="452" on="0"/>
        <pt x="716" y="365" on="1"/>
        <pt x="716" y="258" on="0"/>
        <pt x="676" y="160" on="1"/>
        <pt x="656" y="108" on="0"/>
        <pt x="458" y="4" on="0"/>
        <pt x="367" y="4" on="1"/>
        <pt x="366" y="4" on="0"/>
        <pt x="364" y="4" on="1"/>
        <pt x="337" y="4" on="0"/>
        <pt x="273" y="24" on="1"/>
        <pt x="254" y="-8" on="0"/>
        <pt x="221" y="-34" on="1"/>
        <pt x="197" y="-52" on="0"/>
        <pt x="150" y="-52" on="1"/>
        <pt x="119" y="-51" on="0"/>
        <pt x="90" y="-24" on="1"/>
        <pt x="32" y="32" on="0"/>
        <pt x="32" y="197" on="0"/>
        <pt x="118" y="329" on="0"/>
        <pt x="159" y="329" on="1"/>
        <pt x="160" y="329" on="0"/>
        <pt x="160" y="329" on="1"/>
        <pt x="191" y="329" on="0"/>
        <pt x="204" y="287" on="1"/>
        <pt x="212" y="264" on="0"/>
        <pt x="212" y="223" on="0"/>
        <pt x="205" y="199" on="0"/>
        <pt x="194" y="197" on="0"/>
        <pt x="187" y="205" on="0"/>
        <pt x="188" y="211" on="1"/>
        <pt x="194" y="225" on="0"/>
        <pt x="194" y="255" on="0"/>
        <pt x="190" y="271" on="1"/>
        <pt x="182" y="306" on="0"/>
        <pt x="158" y="306" on="1"/>
        <pt x="157" y="306" on="0"/>
        <pt x="157" y="306" on="1"/>
        <pt x="129" y="306" on="0"/>
        <pt x="71" y="212" on="0"/>
        <pt x="57" y="154" on="0"/>
        <pt x="57" y="76" on="0"/>
        <pt x="78" y="25" on="0"/>
        <pt x="127" y="-3" on="0"/>
        <pt x="162" y="-4" on="0"/>
        <pt x="185" y="12" on="1"/>
        <pt x="198" y="23" on="0"/>
        <pt x="215" y="41" on="1"/>
        <pt x="153" y="65" on="0"/>
        <pt x="128" y="72" on="0"/>
        <pt x="135" y="96" on="0"/>
        <pt x="148" y="93" on="1"/>
        <pt x="152" y="92" on="0"/>
        <pt x="160" y="89" on="1"/>
        <pt x="178" y="82" on="0"/>
        <pt x="235" y="74" on="1"/>
        <pt x="276" y="147" on="0"/>
        <pt x="276" y="347" on="0"/>
        <pt x="261" y="417" on="1"/>
        <pt x="253" y="456" on="0"/>
        <pt x="247" y="548" on="0"/>
        <pt x="245" y="563" on="1"/>
        <pt x="146" y="552" on="0"/>
        <pt x="78" y="498" on="1"/>
        <pt x="46" y="473" on="0"/>
      </contour>
      <contour>
        <pt x="669" y="366" on="1"/>
        <pt x="669" y="427" on="0"/>
        <pt x="584" y="525" on="0"/>
        <pt x="464" y="573" on="0"/>
        <pt x="328" y="573" on="0"/>
        <pt x="274" y="568" on="1"/>
        <pt x="279" y="543" on="0"/>
        <pt x="313" y="450" on="0"/>
        <pt x="318" y="430" on="1"/>
        <pt x="334" y="359" on="0"/>
        <pt x="334" y="146" on="0"/>
        <pt x="296" y="64" on="1"/>
        <pt x="296" y="63" on="1"/>
        <pt x="364" y="63" on="1"/>
        <pt x="439" y="64" on="0"/>
        <pt x="598" y="148" on="0"/>
        <pt x="627" y="192" on="1"/>
        <pt x="669" y="256" on="0"/>
      </contour>
    </TTGlyph>
    <TTGlyph name="Delta" xMin="37" yMin="-21" xMax="619" yMax="626">
      <contour>
        <pt x="618" y="19" on="1"/>
        <pt x="618" y="-7" on="0"/>
        <pt x="522" y="-7" on="1"/>
        <pt x="483" y="-6" on="0"/>
        <pt x="402" y="-6" on="1"/>
        <pt x="372" y="-4" on="0"/>
        <pt x="343" y="-4" on="1"/>
        <pt x="299" y="-4" on="0"/>
        <pt x="121" y="-21" on="0"/>
        <pt x="60" y="-21" on="0"/>
        <pt x="47" y="-17" on="1"/>
        <pt x="37" y="-11" on="0"/>
        <pt x="37" y="-2" on="0"/>
        <pt x="51" y="43" on="0"/>
        <pt x="101" y="138" on="0"/>
        <pt x="130" y="184" on="1"/>
        <pt x="159" y="228" on="0"/>
        <pt x="180" y="268" on="1"/>
        <pt x="180" y="275" on="0"/>
        <pt x="184" y="279" on="1"/>
        <pt x="232" y="376" on="0"/>
        <pt x="381" y="593" on="0"/>
        <pt x="441" y="624" on="1"/>
        <pt x="444" y="626" on="0"/>
        <pt x="448" y="626" on="1"/>
        <pt x="474" y="626" on="0"/>
        <pt x="501" y="472" on="0"/>
        <pt x="514" y="290" on="0"/>
        <pt x="514" y="288" on="1"/>
        <pt x="533" y="184" on="0"/>
        <pt x="559" y="128" on="1"/>
        <pt x="571" y="104" on="0"/>
        <pt x="592" y="72" on="1"/>
        <pt x="618" y="33" on="0"/>
      </contour>
      <contour>
        <pt x="100" y="27" on="1"/>
        <pt x="323" y="39" on="0"/>
        <pt x="347" y="39" on="1"/>
        <pt x="567" y="36" on="1"/>
        <pt x="567" y="46" on="0"/>
        <pt x="506" y="162" on="0"/>
        <pt x="503" y="170" on="1"/>
        <pt x="482" y="236" on="0"/>
        <pt x="448" y="543" on="0"/>
        <pt x="438" y="571" on="1"/>
        <pt x="422" y="549" on="0"/>
        <pt x="316" y="417" on="0"/>
        <pt x="293" y="381" on="1"/>
        <pt x="269" y="348" on="0"/>
        <pt x="231" y="276" on="1"/>
        <pt x="217" y="226" on="0"/>
        <pt x="211" y="218" on="1"/>
        <pt x="204" y="215" on="0"/>
        <pt x="199" y="215" on="1"/>
        <pt x="193" y="200" on="0"/>
        <pt x="163" y="151" on="1"/>
        <pt x="119" y="78" on="0"/>
      </contour>
    </TTGlyph>
    <TTGlyph name="E" xMin="52" yMin="-67" xMax="533" yMax="706">
      <contour>
        <pt x="370" y="101" on="1"/>
        <pt x="323" y="101" on="0"/>
        <pt x="323" y="171" on="1"/>
        <pt x="323" y="215" on="0"/>
        <pt x="384" y="309" on="0"/>
        <pt x="435" y="309" on="1"/>
        <pt x="473" y="309" on="0"/>
        <pt x="533" y="245" on="0"/>
        <pt x="533" y="155" on="0"/>
        <pt x="488" y="52" on="0"/>
        <pt x="454" y="21" on="1"/>
        <pt x="410" y="-17" on="0"/>
        <pt x="360" y="-36" on="0"/>
        <pt x="227" y="-67" on="0"/>
        <pt x="197" y="-67" on="1"/>
        <pt x="116" y="-67" on="0"/>
        <pt x="72" y="25" on="1"/>
        <pt x="52" y="67" on="0"/>
        <pt x="52" y="152" on="1"/>
        <pt x="52" y="264" on="0"/>
        <pt x="167" y="366" on="1"/>
        <pt x="140" y="407" on="0"/>
        <pt x="140" y="460" on="1"/>
        <pt x="140" y="560" on="0"/>
        <pt x="213" y="645" on="1"/>
        <pt x="235" y="670" on="0"/>
        <pt x="316" y="706" on="0"/>
        <pt x="391" y="706" on="0"/>
        <pt x="428" y="684" on="1"/>
        <pt x="485" y="649" on="0"/>
        <pt x="485" y="564" on="1"/>
        <pt x="485" y="527" on="0"/>
        <pt x="424" y="448" on="0"/>
        <pt x="367" y="448" on="0"/>
        <pt x="332" y="483" on="0"/>
        <pt x="332" y="539" on="0"/>
        <pt x="370" y="575" on="1"/>
        <pt x="374" y="579" on="0"/>
        <pt x="379" y="577" on="1"/>
        <pt x="392" y="572" on="0"/>
        <pt x="383" y="561" on="1"/>
        <pt x="351" y="531" on="0"/>
        <pt x="351" y="491" on="0"/>
        <pt x="374" y="467" on="0"/>
        <pt x="413" y="467" on="0"/>
        <pt x="442" y="533" on="0"/>
        <pt x="442" y="574" on="0"/>
        <pt x="423" y="628" on="0"/>
        <pt x="377" y="656" on="0"/>
        <pt x="349" y="656" on="1"/>
        <pt x="264" y="656" on="0"/>
        <pt x="235" y="625" on="1"/>
        <pt x="166" y="546" on="0"/>
        <pt x="166" y="468" on="1"/>
        <pt x="166" y="418" on="0"/>
        <pt x="187" y="384" on="1"/>
        <pt x="253" y="441" on="0"/>
        <pt x="354" y="441" on="0"/>
        <pt x="354" y="365" on="0"/>
        <pt x="286" y="318" on="0"/>
        <pt x="210" y="318" on="0"/>
        <pt x="184" y="344" on="1"/>
        <pt x="83" y="250" on="0"/>
        <pt x="83" y="151" on="1"/>
        <pt x="83" y="103" on="0"/>
        <pt x="112" y="45" on="1"/>
        <pt x="120" y="28" on="0"/>
        <pt x="177" y="-9" on="0"/>
        <pt x="232" y="-9" on="0"/>
        <pt x="398" y="39" on="0"/>
        <pt x="447" y="84" on="0"/>
        <pt x="485" y="164" on="0"/>
        <pt x="485" y="230" on="0"/>
        <pt x="457" y="277" on="0"/>
        <pt x="435" y="277" on="1"/>
        <pt x="434" y="277" on="0"/>
        <pt x="433" y="277" on="1"/>
        <pt x="393" y="277" on="0"/>
        <pt x="342" y="205" on="0"/>
        <pt x="342" y="162" on="1"/>
        <pt x="342" y="145" on="0"/>
        <pt x="358" y="120" on="0"/>
        <pt x="370" y="120" on="1"/>
        <pt x="371" y="120" on="0"/>
        <pt x="371" y="120" on="1"/>
        <pt x="397" y="120" on="0"/>
        <pt x="411" y="152" on="1"/>
        <pt x="416" y="164" on="0"/>
        <pt x="416" y="172" on="1"/>
        <pt x="416" y="186" on="0"/>
        <pt x="403" y="184" on="1"/>
        <pt x="397" y="183" on="0"/>
        <pt x="391" y="191" on="0"/>
        <pt x="392" y="196" on="1"/>
        <pt x="394" y="204" on="0"/>
        <pt x="407" y="204" on="1"/>
        <pt x="434" y="204" on="0"/>
        <pt x="434" y="140" on="0"/>
        <pt x="394" y="101" on="0"/>
        <pt x="371" y="101" on="1"/>
        <pt x="371" y="101" on="0"/>
      </contour>
      <contour>
        <pt x="323" y="403" on="1"/>
        <pt x="323" y="414" on="0"/>
        <pt x="302" y="414" on="1"/>
        <pt x="270" y="414" on="0"/>
        <pt x="207" y="364" on="1"/>
        <pt x="225" y="349" on="0"/>
        <pt x="277" y="349" on="0"/>
        <pt x="323" y="382" on="0"/>
      </contour>
    </TTGlyph>
    <TTGlyph name="Eacute" xMin="52" yMin="-67" xMax="533" yMax="842">
      <contour>
        <pt x="428" y="842" on="0"/>
        <pt x="444" y="842" on="0"/>
        <pt x="455" y="840" on="1"/>
        <pt x="469" y="836" on="0"/>
        <pt x="466" y="796" on="0"/>
        <pt x="447" y="787" on="1"/>
        <pt x="421" y="776" on="0"/>
        <pt x="304" y="756" on="0"/>
        <pt x="263" y="741" on="0"/>
        <pt x="256" y="760" on="0"/>
        <pt x="268" y="765" on="1"/>
        <pt x="296" y="775" on="0"/>
        <pt x="402" y="831" on="0"/>
      </contour>
      <contour>
        <pt x="370" y="101" on="1"/>
        <pt x="323" y="101" on="0"/>
        <pt x="323" y="171" on="1"/>
        <pt x="323" y="215" on="0"/>
        <pt x="384" y="309" on="0"/>
        <pt x="435" y="309" on="1"/>
        <pt x="473" y="309" on="0"/>
        <pt x="533" y="245" on="0"/>
        <pt x="533" y="155" on="0"/>
        <pt x="488" y="52" on="0"/>
        <pt x="454" y="21" on="1"/>
        <pt x="410" y="-17" on="0"/>
        <pt x="360" y="-36" on="0"/>
        <pt x="227" y="-67" on="0"/>
        <pt x="197" y="-67" on="1"/>
        <pt x="116" y="-67" on="0"/>
        <pt x="72" y="25" on="1"/>
        <pt x="52" y="67" on="0"/>
        <pt x="52" y="152" on="1"/>
        <pt x="52" y="264" on="0"/>
        <pt x="167" y="366" on="1"/>
        <pt x="140" y="407" on="0"/>
        <pt x="140" y="460" on="1"/>
        <pt x="140" y="560" on="0"/>
        <pt x="213" y="645" on="1"/>
        <pt x="235" y="670" on="0"/>
        <pt x="316" y="706" on="0"/>
        <pt x="391" y="706" on="0"/>
        <pt x="428" y="684" on="1"/>
        <pt x="485" y="649" on="0"/>
        <pt x="485" y="564" on="1"/>
        <pt x="485" y="527" on="0"/>
        <pt x="424" y="448" on="0"/>
        <pt x="367" y="448" on="0"/>
        <pt x="332" y="483" on="0"/>
        <pt x="332" y="539" on="0"/>
        <pt x="370" y="575" on="1"/>
        <pt x="374" y="579" on="0"/>
        <pt x="379" y="577" on="1"/>
        <pt x="392" y="572" on="0"/>
        <pt x="383" y="561" on="1"/>
        <pt x="351" y="531" on="0"/>
        <pt x="351" y="491" on="0"/>
        <pt x="374" y="467" on="0"/>
        <pt x="413" y="467" on="0"/>
        <pt x="442" y="533" on="0"/>
        <pt x="442" y="574" on="0"/>
        <pt x="423" y="628" on="0"/>
        <pt x="377" y="656" on="0"/>
        <pt x="349" y="656" on="1"/>
        <pt x="264" y="656" on="0"/>
        <pt x="235" y="625" on="1"/>
        <pt x="166" y="546" on="0"/>
        <pt x="166" y="468" on="1"/>
        <pt x="166" y="418" on="0"/>
        <pt x="187" y="384" on="1"/>
        <pt x="253" y="441" on="0"/>
        <pt x="354" y="441" on="0"/>
        <pt x="354" y="365" on="0"/>
        <pt x="286" y="318" on="0"/>
        <pt x="210" y="318" on="0"/>
        <pt x="184" y="344" on="1"/>
        <pt x="83" y="250" on="0"/>
        <pt x="83" y="151" on="1"/>
        <pt x="83" y="103" on="0"/>
        <pt x="112" y="45" on="1"/>
        <pt x="120" y="28" on="0"/>
        <pt x="177" y="-9" on="0"/>
        <pt x="232" y="-9" on="0"/>
        <pt x="398" y="39" on="0"/>
        <pt x="447" y="84" on="0"/>
        <pt x="485" y="164" on="0"/>
        <pt x="485" y="230" on="0"/>
        <pt x="457" y="277" on="0"/>
        <pt x="435" y="277" on="1"/>
        <pt x="434" y="277" on="0"/>
        <pt x="433" y="277" on="1"/>
        <pt x="393" y="277" on="0"/>
        <pt x="342" y="205" on="0"/>
        <pt x="342" y="162" on="1"/>
        <pt x="342" y="145" on="0"/>
        <pt x="358" y="120" on="0"/>
        <pt x="370" y="120" on="1"/>
        <pt x="371" y="120" on="0"/>
        <pt x="371" y="120" on="1"/>
        <pt x="397" y="120" on="0"/>
        <pt x="411" y="152" on="1"/>
        <pt x="416" y="164" on="0"/>
        <pt x="416" y="172" on="1"/>
        <pt x="416" y="186" on="0"/>
        <pt x="403" y="184" on="1"/>
        <pt x="397" y="183" on="0"/>
        <pt x="391" y="191" on="0"/>
        <pt x="392" y="196" on="1"/>
        <pt x="394" y="204" on="0"/>
        <pt x="407" y="204" on="1"/>
        <pt x="434" y="204" on="0"/>
        <pt x="434" y="140" on="0"/>
        <pt x="394" y="101" on="0"/>
        <pt x="371" y="101" on="1"/>
        <pt x="371" y="101" on="0"/>
      </contour>
      <contour>
        <pt x="323" y="403" on="1"/>
        <pt x="323" y="414" on="0"/>
        <pt x="302" y="414" on="1"/>
        <pt x="270" y="414" on="0"/>
        <pt x="207" y="364" on="1"/>
        <pt x="225" y="349" on="0"/>
        <pt x="277" y="349" on="0"/>
        <pt x="323" y="382" on="0"/>
      </contour>
    </TTGlyph>
    <TTGlyph name="Ecircumflex" xMin="52" yMin="-67" xMax="533" yMax="875">
      <contour>
        <pt x="284" y="776" on="0"/>
        <pt x="197" y="736" on="0"/>
        <pt x="172" y="717" on="0"/>
        <pt x="159" y="717" on="0"/>
        <pt x="157" y="720" on="1"/>
        <pt x="150" y="728" on="0"/>
        <pt x="167" y="745" on="1"/>
        <pt x="301" y="875" on="0"/>
        <pt x="345" y="875" on="1"/>
        <pt x="349" y="875" on="0"/>
        <pt x="494" y="767" on="0"/>
        <pt x="506" y="760" on="1"/>
        <pt x="529" y="749" on="0"/>
        <pt x="526" y="733" on="1"/>
        <pt x="521" y="719" on="0"/>
        <pt x="485" y="738" on="0"/>
        <pt x="393" y="770" on="0"/>
        <pt x="352" y="797" on="0"/>
        <pt x="330" y="804" on="0"/>
        <pt x="315" y="796" on="1"/>
      </contour>
      <contour>
        <pt x="370" y="101" on="1"/>
        <pt x="323" y="101" on="0"/>
        <pt x="323" y="171" on="1"/>
        <pt x="323" y="215" on="0"/>
        <pt x="384" y="309" on="0"/>
        <pt x="435" y="309" on="1"/>
        <pt x="473" y="309" on="0"/>
        <pt x="533" y="245" on="0"/>
        <pt x="533" y="155" on="0"/>
        <pt x="488" y="52" on="0"/>
        <pt x="454" y="21" on="1"/>
        <pt x="410" y="-17" on="0"/>
        <pt x="360" y="-36" on="0"/>
        <pt x="227" y="-67" on="0"/>
        <pt x="197" y="-67" on="1"/>
        <pt x="116" y="-67" on="0"/>
        <pt x="72" y="25" on="1"/>
        <pt x="52" y="67" on="0"/>
        <pt x="52" y="152" on="1"/>
        <pt x="52" y="264" on="0"/>
        <pt x="167" y="366" on="1"/>
        <pt x="140" y="407" on="0"/>
        <pt x="140" y="460" on="1"/>
        <pt x="140" y="560" on="0"/>
        <pt x="213" y="645" on="1"/>
        <pt x="235" y="670" on="0"/>
        <pt x="316" y="706" on="0"/>
        <pt x="391" y="706" on="0"/>
        <pt x="428" y="684" on="1"/>
        <pt x="485" y="649" on="0"/>
        <pt x="485" y="564" on="1"/>
        <pt x="485" y="527" on="0"/>
        <pt x="424" y="448" on="0"/>
        <pt x="367" y="448" on="0"/>
        <pt x="332" y="483" on="0"/>
        <pt x="332" y="539" on="0"/>
        <pt x="370" y="575" on="1"/>
        <pt x="374" y="579" on="0"/>
        <pt x="379" y="577" on="1"/>
        <pt x="392" y="572" on="0"/>
        <pt x="383" y="561" on="1"/>
        <pt x="351" y="531" on="0"/>
        <pt x="351" y="491" on="0"/>
        <pt x="374" y="467" on="0"/>
        <pt x="413" y="467" on="0"/>
        <pt x="442" y="533" on="0"/>
        <pt x="442" y="574" on="0"/>
        <pt x="423" y="628" on="0"/>
        <pt x="377" y="656" on="0"/>
        <pt x="349" y="656" on="1"/>
        <pt x="264" y="656" on="0"/>
        <pt x="235" y="625" on="1"/>
        <pt x="166" y="546" on="0"/>
        <pt x="166" y="468" on="1"/>
        <pt x="166" y="418" on="0"/>
        <pt x="187" y="384" on="1"/>
        <pt x="253" y="441" on="0"/>
        <pt x="354" y="441" on="0"/>
        <pt x="354" y="365" on="0"/>
        <pt x="286" y="318" on="0"/>
        <pt x="210" y="318" on="0"/>
        <pt x="184" y="344" on="1"/>
        <pt x="83" y="250" on="0"/>
        <pt x="83" y="151" on="1"/>
        <pt x="83" y="103" on="0"/>
        <pt x="112" y="45" on="1"/>
        <pt x="120" y="28" on="0"/>
        <pt x="177" y="-9" on="0"/>
        <pt x="232" y="-9" on="0"/>
        <pt x="398" y="39" on="0"/>
        <pt x="447" y="84" on="0"/>
        <pt x="485" y="164" on="0"/>
        <pt x="485" y="230" on="0"/>
        <pt x="457" y="277" on="0"/>
        <pt x="435" y="277" on="1"/>
        <pt x="434" y="277" on="0"/>
        <pt x="433" y="277" on="1"/>
        <pt x="393" y="277" on="0"/>
        <pt x="342" y="205" on="0"/>
        <pt x="342" y="162" on="1"/>
        <pt x="342" y="145" on="0"/>
        <pt x="358" y="120" on="0"/>
        <pt x="370" y="120" on="1"/>
        <pt x="371" y="120" on="0"/>
        <pt x="371" y="120" on="1"/>
        <pt x="397" y="120" on="0"/>
        <pt x="411" y="152" on="1"/>
        <pt x="416" y="164" on="0"/>
        <pt x="416" y="172" on="1"/>
        <pt x="416" y="186" on="0"/>
        <pt x="403" y="184" on="1"/>
        <pt x="397" y="183" on="0"/>
        <pt x="391" y="191" on="0"/>
        <pt x="392" y="196" on="1"/>
        <pt x="394" y="204" on="0"/>
        <pt x="407" y="204" on="1"/>
        <pt x="434" y="204" on="0"/>
        <pt x="434" y="140" on="0"/>
        <pt x="394" y="101" on="0"/>
        <pt x="371" y="101" on="1"/>
        <pt x="371" y="101" on="0"/>
      </contour>
      <contour>
        <pt x="323" y="403" on="1"/>
        <pt x="323" y="414" on="0"/>
        <pt x="302" y="414" on="1"/>
        <pt x="270" y="414" on="0"/>
        <pt x="207" y="364" on="1"/>
        <pt x="225" y="349" on="0"/>
        <pt x="277" y="349" on="0"/>
        <pt x="323" y="382" on="0"/>
      </contour>
    </TTGlyph>
    <TTGlyph name="Edieresis" xMin="52" yMin="-67" xMax="533" yMax="813">
      <contour>
        <pt x="467" y="795" on="0"/>
        <pt x="467" y="767" on="0"/>
        <pt x="441" y="740" on="0"/>
        <pt x="412" y="740" on="0"/>
        <pt x="392" y="759" on="0"/>
        <pt x="387" y="788" on="0"/>
        <pt x="411" y="812" on="0"/>
        <pt x="443" y="812" on="0"/>
      </contour>
      <contour>
        <pt x="310" y="791" on="0"/>
        <pt x="310" y="761" on="0"/>
        <pt x="291" y="739" on="0"/>
        <pt x="261" y="739" on="0"/>
        <pt x="236" y="761" on="0"/>
        <pt x="239" y="776" on="1"/>
        <pt x="241" y="791" on="0"/>
        <pt x="262" y="813" on="0"/>
        <pt x="291" y="813" on="0"/>
      </contour>
      <contour>
        <pt x="370" y="101" on="1"/>
        <pt x="323" y="101" on="0"/>
        <pt x="323" y="171" on="1"/>
        <pt x="323" y="215" on="0"/>
        <pt x="384" y="309" on="0"/>
        <pt x="435" y="309" on="1"/>
        <pt x="473" y="309" on="0"/>
        <pt x="533" y="245" on="0"/>
        <pt x="533" y="155" on="0"/>
        <pt x="488" y="52" on="0"/>
        <pt x="454" y="21" on="1"/>
        <pt x="410" y="-17" on="0"/>
        <pt x="360" y="-36" on="0"/>
        <pt x="227" y="-67" on="0"/>
        <pt x="197" y="-67" on="1"/>
        <pt x="116" y="-67" on="0"/>
        <pt x="72" y="25" on="1"/>
        <pt x="52" y="67" on="0"/>
        <pt x="52" y="152" on="1"/>
        <pt x="52" y="264" on="0"/>
        <pt x="167" y="366" on="1"/>
        <pt x="140" y="407" on="0"/>
        <pt x="140" y="460" on="1"/>
        <pt x="140" y="560" on="0"/>
        <pt x="213" y="645" on="1"/>
        <pt x="235" y="670" on="0"/>
        <pt x="316" y="706" on="0"/>
        <pt x="391" y="706" on="0"/>
        <pt x="428" y="684" on="1"/>
        <pt x="485" y="649" on="0"/>
        <pt x="485" y="564" on="1"/>
        <pt x="485" y="527" on="0"/>
        <pt x="424" y="448" on="0"/>
        <pt x="367" y="448" on="0"/>
        <pt x="332" y="483" on="0"/>
        <pt x="332" y="539" on="0"/>
        <pt x="370" y="575" on="1"/>
        <pt x="374" y="579" on="0"/>
        <pt x="379" y="577" on="1"/>
        <pt x="392" y="572" on="0"/>
        <pt x="383" y="561" on="1"/>
        <pt x="351" y="531" on="0"/>
        <pt x="351" y="491" on="0"/>
        <pt x="374" y="467" on="0"/>
        <pt x="413" y="467" on="0"/>
        <pt x="442" y="533" on="0"/>
        <pt x="442" y="574" on="0"/>
        <pt x="423" y="628" on="0"/>
        <pt x="377" y="656" on="0"/>
        <pt x="349" y="656" on="1"/>
        <pt x="264" y="656" on="0"/>
        <pt x="235" y="625" on="1"/>
        <pt x="166" y="546" on="0"/>
        <pt x="166" y="468" on="1"/>
        <pt x="166" y="418" on="0"/>
        <pt x="187" y="384" on="1"/>
        <pt x="253" y="441" on="0"/>
        <pt x="354" y="441" on="0"/>
        <pt x="354" y="365" on="0"/>
        <pt x="286" y="318" on="0"/>
        <pt x="210" y="318" on="0"/>
        <pt x="184" y="344" on="1"/>
        <pt x="83" y="250" on="0"/>
        <pt x="83" y="151" on="1"/>
        <pt x="83" y="103" on="0"/>
        <pt x="112" y="45" on="1"/>
        <pt x="120" y="28" on="0"/>
        <pt x="177" y="-9" on="0"/>
        <pt x="232" y="-9" on="0"/>
        <pt x="398" y="39" on="0"/>
        <pt x="447" y="84" on="0"/>
        <pt x="485" y="164" on="0"/>
        <pt x="485" y="230" on="0"/>
        <pt x="457" y="277" on="0"/>
        <pt x="435" y="277" on="1"/>
        <pt x="434" y="277" on="0"/>
        <pt x="433" y="277" on="1"/>
        <pt x="393" y="277" on="0"/>
        <pt x="342" y="205" on="0"/>
        <pt x="342" y="162" on="1"/>
        <pt x="342" y="145" on="0"/>
        <pt x="358" y="120" on="0"/>
        <pt x="370" y="120" on="1"/>
        <pt x="371" y="120" on="0"/>
        <pt x="371" y="120" on="1"/>
        <pt x="397" y="120" on="0"/>
        <pt x="411" y="152" on="1"/>
        <pt x="416" y="164" on="0"/>
        <pt x="416" y="172" on="1"/>
        <pt x="416" y="186" on="0"/>
        <pt x="403" y="184" on="1"/>
        <pt x="397" y="183" on="0"/>
        <pt x="391" y="191" on="0"/>
        <pt x="392" y="196" on="1"/>
        <pt x="394" y="204" on="0"/>
        <pt x="407" y="204" on="1"/>
        <pt x="434" y="204" on="0"/>
        <pt x="434" y="140" on="0"/>
        <pt x="394" y="101" on="0"/>
        <pt x="371" y="101" on="1"/>
        <pt x="371" y="101" on="0"/>
      </contour>
      <contour>
        <pt x="323" y="403" on="1"/>
        <pt x="323" y="414" on="0"/>
        <pt x="302" y="414" on="1"/>
        <pt x="270" y="414" on="0"/>
        <pt x="207" y="364" on="1"/>
        <pt x="225" y="349" on="0"/>
        <pt x="277" y="349" on="0"/>
        <pt x="323" y="382" on="0"/>
      </contour>
    </TTGlyph>
    <TTGlyph name="Egrave" xMin="52" yMin="-67" xMax="533" yMax="854">
      <contour>
        <pt x="371" y="775" on="1"/>
        <pt x="384" y="770" on="0"/>
        <pt x="373" y="752" on="0"/>
        <pt x="335" y="766" on="0"/>
        <pt x="218" y="786" on="0"/>
        <pt x="192" y="797" on="1"/>
        <pt x="174" y="806" on="0"/>
        <pt x="170" y="847" on="0"/>
        <pt x="184" y="850" on="1"/>
        <pt x="192" y="854" on="0"/>
        <pt x="199" y="854" on="1"/>
        <pt x="214" y="850" on="1"/>
        <pt x="235" y="841" on="0"/>
        <pt x="342" y="785" on="0"/>
      </contour>
      <contour>
        <pt x="370" y="101" on="1"/>
        <pt x="323" y="101" on="0"/>
        <pt x="323" y="171" on="1"/>
        <pt x="323" y="215" on="0"/>
        <pt x="384" y="309" on="0"/>
        <pt x="435" y="309" on="1"/>
        <pt x="473" y="309" on="0"/>
        <pt x="533" y="245" on="0"/>
        <pt x="533" y="155" on="0"/>
        <pt x="488" y="52" on="0"/>
        <pt x="454" y="21" on="1"/>
        <pt x="410" y="-17" on="0"/>
        <pt x="360" y="-36" on="0"/>
        <pt x="227" y="-67" on="0"/>
        <pt x="197" y="-67" on="1"/>
        <pt x="116" y="-67" on="0"/>
        <pt x="72" y="25" on="1"/>
        <pt x="52" y="67" on="0"/>
        <pt x="52" y="152" on="1"/>
        <pt x="52" y="264" on="0"/>
        <pt x="167" y="366" on="1"/>
        <pt x="140" y="407" on="0"/>
        <pt x="140" y="460" on="1"/>
        <pt x="140" y="560" on="0"/>
        <pt x="213" y="645" on="1"/>
        <pt x="235" y="670" on="0"/>
        <pt x="316" y="706" on="0"/>
        <pt x="391" y="706" on="0"/>
        <pt x="428" y="684" on="1"/>
        <pt x="485" y="649" on="0"/>
        <pt x="485" y="564" on="1"/>
        <pt x="485" y="527" on="0"/>
        <pt x="424" y="448" on="0"/>
        <pt x="367" y="448" on="0"/>
        <pt x="332" y="483" on="0"/>
        <pt x="332" y="539" on="0"/>
        <pt x="370" y="575" on="1"/>
        <pt x="374" y="579" on="0"/>
        <pt x="379" y="577" on="1"/>
        <pt x="392" y="572" on="0"/>
        <pt x="383" y="561" on="1"/>
        <pt x="351" y="531" on="0"/>
        <pt x="351" y="491" on="0"/>
        <pt x="374" y="467" on="0"/>
        <pt x="413" y="467" on="0"/>
        <pt x="442" y="533" on="0"/>
        <pt x="442" y="574" on="0"/>
        <pt x="423" y="628" on="0"/>
        <pt x="377" y="656" on="0"/>
        <pt x="349" y="656" on="1"/>
        <pt x="264" y="656" on="0"/>
        <pt x="235" y="625" on="1"/>
        <pt x="166" y="546" on="0"/>
        <pt x="166" y="468" on="1"/>
        <pt x="166" y="418" on="0"/>
        <pt x="187" y="384" on="1"/>
        <pt x="253" y="441" on="0"/>
        <pt x="354" y="441" on="0"/>
        <pt x="354" y="365" on="0"/>
        <pt x="286" y="318" on="0"/>
        <pt x="210" y="318" on="0"/>
        <pt x="184" y="344" on="1"/>
        <pt x="83" y="250" on="0"/>
        <pt x="83" y="151" on="1"/>
        <pt x="83" y="103" on="0"/>
        <pt x="112" y="45" on="1"/>
        <pt x="120" y="28" on="0"/>
        <pt x="177" y="-9" on="0"/>
        <pt x="232" y="-9" on="0"/>
        <pt x="398" y="39" on="0"/>
        <pt x="447" y="84" on="0"/>
        <pt x="485" y="164" on="0"/>
        <pt x="485" y="230" on="0"/>
        <pt x="457" y="277" on="0"/>
        <pt x="435" y="277" on="1"/>
        <pt x="434" y="277" on="0"/>
        <pt x="433" y="277" on="1"/>
        <pt x="393" y="277" on="0"/>
        <pt x="342" y="205" on="0"/>
        <pt x="342" y="162" on="1"/>
        <pt x="342" y="145" on="0"/>
        <pt x="358" y="120" on="0"/>
        <pt x="370" y="120" on="1"/>
        <pt x="371" y="120" on="0"/>
        <pt x="371" y="120" on="1"/>
        <pt x="397" y="120" on="0"/>
        <pt x="411" y="152" on="1"/>
        <pt x="416" y="164" on="0"/>
        <pt x="416" y="172" on="1"/>
        <pt x="416" y="186" on="0"/>
        <pt x="403" y="184" on="1"/>
        <pt x="397" y="183" on="0"/>
        <pt x="391" y="191" on="0"/>
        <pt x="392" y="196" on="1"/>
        <pt x="394" y="204" on="0"/>
        <pt x="407" y="204" on="1"/>
        <pt x="434" y="204" on="0"/>
        <pt x="434" y="140" on="0"/>
        <pt x="394" y="101" on="0"/>
        <pt x="371" y="101" on="1"/>
        <pt x="371" y="101" on="0"/>
      </contour>
      <contour>
        <pt x="323" y="403" on="1"/>
        <pt x="323" y="414" on="0"/>
        <pt x="302" y="414" on="1"/>
        <pt x="270" y="414" on="0"/>
        <pt x="207" y="364" on="1"/>
        <pt x="225" y="349" on="0"/>
        <pt x="277" y="349" on="0"/>
        <pt x="323" y="382" on="0"/>
      </contour>
    </TTGlyph>
    <TTGlyph name="Eth" xMin="25" yMin="-52" xMax="716" yMax="785">
      <contour>
        <pt x="45" y="447" on="1"/>
        <pt x="45" y="438" on="0"/>
        <pt x="54" y="438" on="1"/>
        <pt x="66" y="438" on="1"/>
        <pt x="83" y="438" on="0"/>
        <pt x="122" y="451" on="1"/>
        <pt x="128" y="453" on="0"/>
        <pt x="135" y="446" on="0"/>
        <pt x="134" y="435" on="0"/>
        <pt x="129" y="433" on="1"/>
        <pt x="128" y="433" on="1"/>
        <pt x="68" y="417" on="0"/>
        <pt x="39" y="421" on="0"/>
        <pt x="26" y="434" on="0"/>
        <pt x="26" y="449" on="1"/>
        <pt x="26" y="484" on="0"/>
        <pt x="100" y="540" on="0"/>
        <pt x="141" y="556" on="1"/>
        <pt x="205" y="579" on="0"/>
        <pt x="244" y="589" on="1"/>
        <pt x="244" y="627" on="1"/>
        <pt x="244" y="686" on="0"/>
        <pt x="303" y="784" on="0"/>
        <pt x="350" y="784" on="1"/>
        <pt x="351" y="784" on="0"/>
        <pt x="352" y="784" on="1"/>
        <pt x="377" y="784" on="0"/>
        <pt x="412" y="748" on="0"/>
        <pt x="413" y="697" on="0"/>
        <pt x="378" y="655" on="0"/>
        <pt x="351" y="652" on="1"/>
        <pt x="345" y="651" on="0"/>
        <pt x="339" y="660" on="0"/>
        <pt x="342" y="671" on="0"/>
        <pt x="367" y="674" on="0"/>
        <pt x="394" y="704" on="0"/>
        <pt x="394" y="740" on="0"/>
        <pt x="370" y="763" on="0"/>
        <pt x="352" y="763" on="1"/>
        <pt x="313" y="762" on="0"/>
        <pt x="267" y="677" on="0"/>
        <pt x="267" y="627" on="1"/>
        <pt x="267" y="615" on="0"/>
        <pt x="271" y="595" on="1"/>
        <pt x="335" y="608" on="0"/>
        <pt x="446" y="608" on="0"/>
        <pt x="469" y="605" on="1"/>
        <pt x="565" y="589" on="0"/>
        <pt x="716" y="452" on="0"/>
        <pt x="716" y="365" on="1"/>
        <pt x="716" y="258" on="0"/>
        <pt x="676" y="160" on="1"/>
        <pt x="656" y="108" on="0"/>
        <pt x="458" y="4" on="0"/>
        <pt x="367" y="4" on="1"/>
        <pt x="366" y="4" on="0"/>
        <pt x="364" y="4" on="1"/>
        <pt x="337" y="4" on="0"/>
        <pt x="273" y="24" on="1"/>
        <pt x="254" y="-8" on="0"/>
        <pt x="221" y="-34" on="1"/>
        <pt x="197" y="-52" on="0"/>
        <pt x="150" y="-52" on="1"/>
        <pt x="119" y="-51" on="0"/>
        <pt x="90" y="-24" on="1"/>
        <pt x="44" y="20" on="0"/>
        <pt x="44" y="56" on="1"/>
        <pt x="44" y="68" on="0"/>
        <pt x="52" y="68" on="1"/>
        <pt x="64" y="68" on="0"/>
        <pt x="70" y="51" on="1"/>
        <pt x="71" y="48" on="0"/>
        <pt x="71" y="44" on="1"/>
        <pt x="78" y="25" on="0"/>
        <pt x="127" y="-3" on="0"/>
        <pt x="162" y="-4" on="0"/>
        <pt x="185" y="12" on="1"/>
        <pt x="198" y="23" on="0"/>
        <pt x="215" y="41" on="1"/>
        <pt x="153" y="65" on="0"/>
        <pt x="128" y="72" on="0"/>
        <pt x="135" y="96" on="0"/>
        <pt x="148" y="93" on="1"/>
        <pt x="152" y="92" on="0"/>
        <pt x="160" y="89" on="1"/>
        <pt x="178" y="82" on="0"/>
        <pt x="235" y="74" on="1"/>
        <pt x="274" y="143" on="0"/>
        <pt x="276" y="231" on="1"/>
        <pt x="255" y="231" on="0"/>
        <pt x="228" y="239" on="0"/>
        <pt x="195" y="239" on="0"/>
        <pt x="165" y="217" on="0"/>
        <pt x="148" y="239" on="0"/>
        <pt x="164" y="251" on="0"/>
        <pt x="179" y="265" on="0"/>
        <pt x="184" y="268" on="1"/>
        <pt x="197" y="279" on="0"/>
        <pt x="224" y="279" on="0"/>
        <pt x="257" y="267" on="0"/>
        <pt x="264" y="267" on="1"/>
        <pt x="276" y="266" on="1"/>
        <pt x="274" y="356" on="0"/>
        <pt x="257" y="436" on="0"/>
        <pt x="251" y="484" on="0"/>
        <pt x="247" y="548" on="0"/>
        <pt x="245" y="563" on="1"/>
        <pt x="146" y="552" on="0"/>
        <pt x="78" y="498" on="1"/>
        <pt x="46" y="473" on="0"/>
      </contour>
      <contour>
        <pt x="347" y="231" on="1"/>
        <pt x="334" y="232" on="1"/>
        <pt x="332" y="143" on="0"/>
        <pt x="296" y="64" on="1"/>
        <pt x="296" y="63" on="1"/>
        <pt x="364" y="63" on="1"/>
        <pt x="439" y="64" on="0"/>
        <pt x="598" y="148" on="0"/>
        <pt x="627" y="192" on="1"/>
        <pt x="669" y="256" on="0"/>
        <pt x="669" y="366" on="1"/>
        <pt x="669" y="427" on="0"/>
        <pt x="584" y="525" on="0"/>
        <pt x="464" y="573" on="0"/>
        <pt x="328" y="573" on="0"/>
        <pt x="274" y="568" on="1"/>
        <pt x="279" y="543" on="0"/>
        <pt x="313" y="450" on="0"/>
        <pt x="318" y="430" on="1"/>
        <pt x="332" y="363" on="0"/>
        <pt x="334" y="266" on="1"/>
        <pt x="346" y="264" on="0"/>
        <pt x="348" y="264" on="1"/>
        <pt x="401" y="264" on="0"/>
        <pt x="425" y="279" on="0"/>
        <pt x="433" y="262" on="0"/>
        <pt x="425" y="258" on="1"/>
        <pt x="384" y="231" on="0"/>
      </contour>
    </TTGlyph>
    <TTGlyph name="Euro" xMin="-11" yMin="-25" xMax="493" yMax="675">
      <contour>
        <pt x="-11" y="426" on="1"/>
        <pt x="-11" y="439" on="0"/>
        <pt x="4" y="439" on="1"/>
        <pt x="65" y="439" on="1"/>
        <pt x="96" y="525" on="0"/>
        <pt x="261" y="675" on="0"/>
        <pt x="344" y="675" on="1"/>
        <pt x="389" y="675" on="0"/>
        <pt x="491" y="609" on="0"/>
        <pt x="491" y="526" on="0"/>
        <pt x="462" y="523" on="1"/>
        <pt x="444" y="520" on="0"/>
        <pt x="438" y="536" on="1"/>
        <pt x="435" y="544" on="0"/>
        <pt x="442" y="557" on="0"/>
        <pt x="444" y="565" on="0"/>
        <pt x="441" y="574" on="0"/>
        <pt x="438" y="582" on="0"/>
        <pt x="430" y="593" on="0"/>
        <pt x="426" y="599" on="0"/>
        <pt x="415" y="611" on="0"/>
        <pt x="414" y="613" on="1"/>
        <pt x="390" y="645" on="0"/>
        <pt x="343" y="645" on="1"/>
        <pt x="275" y="645" on="0"/>
        <pt x="158" y="518" on="0"/>
        <pt x="129" y="439" on="1"/>
        <pt x="281" y="439" on="1"/>
        <pt x="289" y="439" on="0"/>
        <pt x="299" y="432" on="0"/>
        <pt x="298" y="428" on="1"/>
        <pt x="306" y="427" on="0"/>
        <pt x="312" y="415" on="0"/>
        <pt x="305" y="403" on="0"/>
        <pt x="270" y="403" on="0"/>
        <pt x="143" y="395" on="0"/>
        <pt x="116" y="394" on="1"/>
        <pt x="108" y="364" on="0"/>
        <pt x="108" y="333" on="1"/>
        <pt x="138" y="333" on="0"/>
        <pt x="191" y="333" on="0"/>
        <pt x="230" y="332" on="0"/>
        <pt x="252" y="330" on="1"/>
        <pt x="301" y="326" on="0"/>
        <pt x="309" y="308" on="1"/>
        <pt x="313" y="301" on="0"/>
        <pt x="304" y="292" on="0"/>
        <pt x="262" y="292" on="0"/>
        <pt x="109" y="287" on="1"/>
        <pt x="117" y="186" on="0"/>
        <pt x="214" y="34" on="0"/>
        <pt x="290" y="34" on="1"/>
        <pt x="291" y="34" on="0"/>
        <pt x="292" y="34" on="1"/>
        <pt x="357" y="34" on="0"/>
        <pt x="389" y="65" on="1"/>
        <pt x="448" y="120" on="0"/>
        <pt x="448" y="165" on="1"/>
        <pt x="448" y="193" on="0"/>
        <pt x="422" y="240" on="0"/>
        <pt x="368" y="240" on="0"/>
        <pt x="345" y="192" on="0"/>
        <pt x="345" y="163" on="0"/>
        <pt x="347" y="149" on="0"/>
        <pt x="338" y="142" on="0"/>
        <pt x="333" y="144" on="1"/>
        <pt x="325" y="146" on="0"/>
        <pt x="325" y="201" on="0"/>
        <pt x="338" y="226" on="1"/>
        <pt x="357" y="261" on="0"/>
        <pt x="437" y="261" on="0"/>
        <pt x="493" y="202" on="0"/>
        <pt x="493" y="165" on="1"/>
        <pt x="491" y="82" on="0"/>
        <pt x="429" y="21" on="1"/>
        <pt x="379" y="-25" on="0"/>
        <pt x="292" y="-25" on="1"/>
        <pt x="234" y="-25" on="0"/>
        <pt x="142" y="36" on="0"/>
        <pt x="114" y="84" on="1"/>
        <pt x="61" y="178" on="0"/>
        <pt x="51" y="287" on="1"/>
        <pt x="28" y="287" on="0"/>
        <pt x="15" y="295" on="1"/>
        <pt x="8" y="295" on="1"/>
        <pt x="-2" y="295" on="0"/>
        <pt x="-9" y="308" on="0"/>
        <pt x="-4" y="312" on="1"/>
        <pt x="-4" y="319" on="0"/>
        <pt x="0" y="323" on="1"/>
        <pt x="-1" y="329" on="0"/>
        <pt x="12" y="338" on="0"/>
        <pt x="28" y="333" on="0"/>
        <pt x="49" y="331" on="1"/>
        <pt x="49" y="357" on="0"/>
        <pt x="54" y="395" on="1"/>
        <pt x="20" y="397" on="0"/>
        <pt x="3" y="402" on="1"/>
        <pt x="-16" y="406" on="0"/>
        <pt x="-6" y="418" on="1"/>
        <pt x="-11" y="421" on="0"/>
      </contour>
    </TTGlyph>
    <TTGlyph name="F" xMin="29" yMin="-55" xMax="743" yMax="698">
      <contour>
        <pt x="478" y="441" on="1"/>
        <pt x="484" y="540" on="1"/>
        <pt x="425" y="586" on="0"/>
        <pt x="323" y="640" on="0"/>
        <pt x="234" y="640" on="0"/>
        <pt x="153" y="610" on="0"/>
        <pt x="87" y="551" on="0"/>
        <pt x="56" y="503" on="0"/>
        <pt x="56" y="476" on="1"/>
        <pt x="56" y="439" on="0"/>
        <pt x="88" y="389" on="1"/>
        <pt x="102" y="365" on="0"/>
        <pt x="123" y="365" on="1"/>
        <pt x="168" y="366" on="0"/>
        <pt x="239" y="434" on="0"/>
        <pt x="240" y="506" on="0"/>
        <pt x="221" y="536" on="0"/>
        <pt x="196" y="536" on="1"/>
        <pt x="187" y="536" on="0"/>
        <pt x="187" y="556" on="0"/>
        <pt x="196" y="556" on="1"/>
        <pt x="259" y="556" on="0"/>
        <pt x="259" y="476" on="1"/>
        <pt x="260" y="425" on="0"/>
        <pt x="177" y="342" on="0"/>
        <pt x="125" y="342" on="1"/>
        <pt x="91" y="342" on="0"/>
        <pt x="74" y="366" on="1"/>
        <pt x="30" y="431" on="0"/>
        <pt x="30" y="485" on="1"/>
        <pt x="30" y="522" on="0"/>
        <pt x="66" y="610" on="0"/>
        <pt x="124" y="661" on="0"/>
        <pt x="224" y="698" on="0"/>
        <pt x="338" y="698" on="0"/>
        <pt x="408" y="661" on="1"/>
        <pt x="439" y="645" on="0"/>
        <pt x="485" y="599" on="1"/>
        <pt x="490" y="638" on="0"/>
        <pt x="525" y="688" on="1"/>
        <pt x="531" y="696" on="0"/>
        <pt x="547" y="684" on="0"/>
        <pt x="542" y="676" on="1"/>
        <pt x="525" y="653" on="0"/>
        <pt x="515" y="609" on="0"/>
        <pt x="514" y="572" on="1"/>
        <pt x="582" y="512" on="0"/>
        <pt x="632" y="512" on="1"/>
        <pt x="662" y="512" on="0"/>
        <pt x="718" y="559" on="0"/>
        <pt x="719" y="618" on="0"/>
        <pt x="698" y="632" on="1"/>
        <pt x="687" y="640" on="0"/>
        <pt x="666" y="640" on="0"/>
        <pt x="651" y="632" on="0"/>
        <pt x="642" y="639" on="0"/>
        <pt x="642" y="649" on="0"/>
        <pt x="647" y="653" on="1"/>
        <pt x="662" y="661" on="0"/>
        <pt x="694" y="661" on="0"/>
        <pt x="711" y="650" on="1"/>
        <pt x="742" y="631" on="0"/>
        <pt x="743" y="549" on="0"/>
        <pt x="672" y="483" on="0"/>
        <pt x="632" y="483" on="1"/>
        <pt x="569" y="483" on="0"/>
        <pt x="515" y="517" on="1"/>
        <pt x="515" y="431" on="1"/>
        <pt x="543" y="420" on="0"/>
        <pt x="568" y="420" on="0"/>
        <pt x="574" y="421" on="0"/>
        <pt x="592" y="424" on="0"/>
        <pt x="602" y="426" on="0"/>
        <pt x="610" y="428" on="1"/>
        <pt x="624" y="433" on="0"/>
        <pt x="643" y="449" on="1"/>
        <pt x="654" y="458" on="0"/>
        <pt x="669" y="447" on="0"/>
        <pt x="665" y="442" on="1"/>
        <pt x="646" y="417" on="0"/>
        <pt x="580" y="388" on="0"/>
        <pt x="535" y="388" on="0"/>
        <pt x="516" y="393" on="1"/>
        <pt x="515" y="393" on="1"/>
        <pt x="522" y="251" on="1"/>
        <pt x="522" y="186" on="0"/>
        <pt x="513" y="152" on="0"/>
        <pt x="507" y="138" on="1"/>
        <pt x="492" y="103" on="0"/>
        <pt x="482" y="89" on="1"/>
        <pt x="450" y="44" on="0"/>
        <pt x="391" y="-15" on="1"/>
        <pt x="349" y="-55" on="0"/>
        <pt x="278" y="-55" on="0"/>
        <pt x="181" y="5" on="0"/>
        <pt x="167" y="34" on="1"/>
        <pt x="152" y="64" on="0"/>
        <pt x="152" y="114" on="1"/>
        <pt x="152" y="159" on="1"/>
        <pt x="152" y="197" on="0"/>
        <pt x="186" y="259" on="1"/>
        <pt x="249" y="374" on="0"/>
        <pt x="330" y="374" on="1"/>
        <pt x="360" y="374" on="0"/>
        <pt x="405" y="303" on="0"/>
        <pt x="405" y="217" on="0"/>
        <pt x="359" y="127" on="0"/>
        <pt x="317" y="127" on="1"/>
        <pt x="251" y="127" on="0"/>
        <pt x="251" y="198" on="1"/>
        <pt x="251" y="230" on="0"/>
        <pt x="295" y="282" on="0"/>
        <pt x="319" y="282" on="1"/>
        <pt x="335" y="282" on="0"/>
        <pt x="344" y="266" on="1"/>
        <pt x="346" y="262" on="0"/>
        <pt x="347" y="260" on="1"/>
        <pt x="353" y="252" on="0"/>
        <pt x="353" y="246" on="1"/>
        <pt x="355" y="241" on="0"/>
        <pt x="349" y="233" on="0"/>
        <pt x="339" y="233" on="0"/>
        <pt x="336" y="239" on="1"/>
        <pt x="327" y="261" on="0"/>
        <pt x="319" y="261" on="1"/>
        <pt x="302" y="261" on="0"/>
        <pt x="274" y="223" on="0"/>
        <pt x="274" y="203" on="1"/>
        <pt x="277" y="149" on="0"/>
        <pt x="316" y="149" on="1"/>
        <pt x="339" y="149" on="0"/>
        <pt x="355" y="170" on="1"/>
        <pt x="381" y="204" on="0"/>
        <pt x="383" y="269" on="1"/>
        <pt x="383" y="297" on="0"/>
        <pt x="353" y="354" on="0"/>
        <pt x="330" y="354" on="1"/>
        <pt x="275" y="354" on="0"/>
        <pt x="244" y="300" on="1"/>
        <pt x="239" y="292" on="0"/>
        <pt x="236" y="288" on="1"/>
        <pt x="193" y="224" on="0"/>
        <pt x="193" y="111" on="0"/>
        <pt x="220" y="59" on="1"/>
        <pt x="226" y="45" on="0"/>
        <pt x="294" y="3" on="0"/>
        <pt x="316" y="3" on="0"/>
        <pt x="330" y="8" on="0"/>
        <pt x="343" y="20" on="0"/>
        <pt x="352" y="28" on="0"/>
        <pt x="366" y="44" on="0"/>
        <pt x="368" y="46" on="1"/>
        <pt x="444" y="120" on="0"/>
        <pt x="460" y="181" on="1"/>
        <pt x="460" y="182" on="0"/>
        <pt x="482" y="235" on="0"/>
        <pt x="482" y="251" on="1"/>
        <pt x="477" y="392" on="1"/>
        <pt x="477" y="400" on="0"/>
        <pt x="477" y="407" on="1"/>
        <pt x="464" y="412" on="0"/>
        <pt x="396" y="412" on="0"/>
        <pt x="373" y="392" on="1"/>
        <pt x="366" y="386" on="0"/>
        <pt x="354" y="400" on="0"/>
        <pt x="361" y="408" on="0"/>
        <pt x="379" y="422" on="0"/>
        <pt x="385" y="426" on="0"/>
        <pt x="402" y="437" on="0"/>
        <pt x="407" y="439" on="1"/>
        <pt x="422" y="445" on="0"/>
        <pt x="435" y="445" on="1"/>
        <pt x="466" y="445" on="0"/>
      </contour>
    </TTGlyph>
    <TTGlyph name="G" xMin="18" yMin="-270" xMax="534" yMax="632">
      <contour>
        <pt x="435" y="73" on="1"/>
        <pt x="359" y="3" on="0"/>
        <pt x="175" y="3" on="0"/>
        <pt x="70" y="69" on="0"/>
        <pt x="18" y="183" on="0"/>
        <pt x="18" y="293" on="0"/>
        <pt x="50" y="386" on="0"/>
        <pt x="64" y="409" on="1"/>
        <pt x="101" y="466" on="0"/>
        <pt x="130" y="503" on="1"/>
        <pt x="171" y="560" on="0"/>
        <pt x="279" y="631" on="0"/>
        <pt x="340" y="631" on="1"/>
        <pt x="341" y="631" on="0"/>
        <pt x="342" y="631" on="1"/>
        <pt x="485" y="631" on="0"/>
        <pt x="522" y="551" on="1"/>
        <pt x="533" y="527" on="0"/>
        <pt x="533" y="469" on="0"/>
        <pt x="512" y="433" on="1"/>
        <pt x="474" y="368" on="0"/>
        <pt x="406" y="368" on="1"/>
        <pt x="368" y="368" on="0"/>
        <pt x="301" y="405" on="0"/>
        <pt x="301" y="440" on="1"/>
        <pt x="301" y="461" on="0"/>
        <pt x="309" y="485" on="1"/>
        <pt x="316" y="501" on="0"/>
        <pt x="338" y="514" on="1"/>
        <pt x="362" y="528" on="0"/>
        <pt x="380" y="528" on="1"/>
        <pt x="412" y="528" on="0"/>
        <pt x="426" y="485" on="1"/>
        <pt x="428" y="479" on="0"/>
        <pt x="420" y="472" on="0"/>
        <pt x="409" y="473" on="0"/>
        <pt x="407" y="479" on="1"/>
        <pt x="401" y="498" on="0"/>
        <pt x="385" y="498" on="1"/>
        <pt x="376" y="498" on="0"/>
        <pt x="364" y="492" on="1"/>
        <pt x="335" y="477" on="0"/>
        <pt x="328" y="449" on="1"/>
        <pt x="327" y="445" on="0"/>
        <pt x="327" y="440" on="1"/>
        <pt x="328" y="411" on="0"/>
        <pt x="364" y="394" on="1"/>
        <pt x="380" y="387" on="0"/>
        <pt x="419" y="387" on="0"/>
        <pt x="442" y="398" on="1"/>
        <pt x="485" y="419" on="0"/>
        <pt x="501" y="482" on="1"/>
        <pt x="504" y="495" on="0"/>
        <pt x="504" y="525" on="0"/>
        <pt x="484" y="564" on="0"/>
        <pt x="456" y="576" on="1"/>
        <pt x="407" y="596" on="0"/>
        <pt x="342" y="596" on="1"/>
        <pt x="240" y="596" on="0"/>
        <pt x="160" y="483" on="1"/>
        <pt x="111" y="414" on="0"/>
        <pt x="67" y="313" on="0"/>
        <pt x="67" y="256" on="1"/>
        <pt x="67" y="139" on="0"/>
        <pt x="149" y="86" on="1"/>
        <pt x="189" y="62" on="0"/>
        <pt x="299" y="62" on="0"/>
        <pt x="335" y="75" on="1"/>
        <pt x="388" y="96" on="0"/>
        <pt x="421" y="140" on="1"/>
        <pt x="405" y="203" on="0"/>
        <pt x="405" y="279" on="0"/>
        <pt x="420" y="295" on="1"/>
        <pt x="426" y="301" on="0"/>
        <pt x="439" y="304" on="1"/>
        <pt x="468" y="304" on="0"/>
        <pt x="503" y="239" on="0"/>
        <pt x="503" y="208" on="1"/>
        <pt x="503" y="155" on="0"/>
        <pt x="461" y="103" on="1"/>
        <pt x="468" y="76" on="0"/>
        <pt x="468" y="22" on="1"/>
        <pt x="468" y="-206" on="0"/>
        <pt x="364" y="-259" on="1"/>
        <pt x="342" y="-270" on="0"/>
        <pt x="304" y="-270" on="0"/>
        <pt x="264" y="-253" on="0"/>
        <pt x="239" y="-218" on="0"/>
        <pt x="239" y="-136" on="0"/>
        <pt x="294" y="-66" on="0"/>
        <pt x="335" y="-65" on="1"/>
        <pt x="384" y="-65" on="0"/>
        <pt x="363" y="-155" on="1"/>
        <pt x="362" y="-161" on="0"/>
        <pt x="351" y="-163" on="0"/>
        <pt x="344" y="-156" on="0"/>
        <pt x="348" y="-137" on="0"/>
        <pt x="348" y="-111" on="0"/>
        <pt x="337" y="-111" on="1"/>
        <pt x="314" y="-111" on="0"/>
        <pt x="287" y="-153" on="0"/>
        <pt x="287" y="-180" on="1"/>
        <pt x="287" y="-224" on="0"/>
        <pt x="321" y="-224" on="1"/>
        <pt x="358" y="-224" on="0"/>
        <pt x="409" y="-167" on="0"/>
        <pt x="420" y="-122" on="1"/>
        <pt x="437" y="-47" on="0"/>
        <pt x="437" y="21" on="1"/>
        <pt x="437" y="39" on="0"/>
      </contour>
      <contour>
        <pt x="444" y="269" on="1"/>
        <pt x="438" y="266" on="0"/>
        <pt x="438" y="215" on="0"/>
        <pt x="445" y="184" on="1"/>
        <pt x="446" y="187" on="0"/>
        <pt x="464" y="206" on="0"/>
        <pt x="463" y="211" on="1"/>
        <pt x="463" y="261" on="0"/>
      </contour>
    </TTGlyph>
    <TTGlyph name="H" xMin="14" yMin="-79" xMax="639" yMax="651">
      <contour>
        <pt x="119" y="119" on="1"/>
        <pt x="82" y="119" on="0"/>
        <pt x="85" y="169" on="1"/>
        <pt x="85" y="175" on="0"/>
        <pt x="95" y="179" on="0"/>
        <pt x="104" y="173" on="0"/>
        <pt x="104" y="163" on="0"/>
        <pt x="104" y="159" on="1"/>
        <pt x="104" y="138" on="0"/>
        <pt x="118" y="137" on="1"/>
        <pt x="131" y="137" on="0"/>
        <pt x="153" y="178" on="0"/>
        <pt x="155" y="212" on="0"/>
        <pt x="138" y="232" on="0"/>
        <pt x="127" y="232" on="1"/>
        <pt x="87" y="231" on="0"/>
        <pt x="61" y="190" on="1"/>
        <pt x="7" y="105" on="0"/>
        <pt x="60" y="16" on="1"/>
        <pt x="70" y="2" on="0"/>
        <pt x="113" y="-25" on="0"/>
        <pt x="141" y="-25" on="0"/>
        <pt x="151" y="-12" on="1"/>
        <pt x="180" y="6" on="0"/>
        <pt x="223" y="84" on="0"/>
        <pt x="231" y="112" on="1"/>
        <pt x="260" y="214" on="0"/>
        <pt x="263" y="279" on="1"/>
        <pt x="226" y="271" on="0"/>
        <pt x="218" y="234" on="1"/>
        <pt x="217" y="228" on="0"/>
        <pt x="206" y="226" on="0"/>
        <pt x="198" y="233" on="0"/>
        <pt x="199" y="239" on="1"/>
        <pt x="212" y="293" on="0"/>
        <pt x="263" y="304" on="1"/>
        <pt x="263" y="351" on="0"/>
        <pt x="255" y="431" on="0"/>
        <pt x="253" y="499" on="0"/>
        <pt x="244" y="556" on="0"/>
        <pt x="215" y="626" on="0"/>
        <pt x="194" y="626" on="1"/>
        <pt x="154" y="626" on="0"/>
        <pt x="80" y="546" on="0"/>
        <pt x="80" y="507" on="1"/>
        <pt x="80" y="506" on="0"/>
        <pt x="80" y="479" on="0"/>
        <pt x="83" y="451" on="0"/>
        <pt x="104" y="420" on="0"/>
        <pt x="152" y="420" on="0"/>
        <pt x="158" y="438" on="1"/>
        <pt x="159" y="440" on="0"/>
        <pt x="166" y="447" on="0"/>
        <pt x="167" y="449" on="1"/>
        <pt x="167" y="462" on="0"/>
        <pt x="153" y="479" on="0"/>
        <pt x="158" y="488" on="0"/>
        <pt x="168" y="489" on="0"/>
        <pt x="171" y="485" on="1"/>
        <pt x="187" y="464" on="0"/>
        <pt x="188" y="431" on="0"/>
        <pt x="186" y="426" on="1"/>
        <pt x="171" y="391" on="0"/>
        <pt x="124" y="391" on="1"/>
        <pt x="50" y="392" on="0"/>
        <pt x="50" y="506" on="1"/>
        <pt x="50" y="543" on="0"/>
        <pt x="117" y="621" on="0"/>
        <pt x="186" y="651" on="0"/>
        <pt x="194" y="651" on="1"/>
        <pt x="225" y="651" on="0"/>
        <pt x="301" y="564" on="0"/>
        <pt x="307" y="531" on="1"/>
        <pt x="316" y="476" on="0"/>
        <pt x="316" y="451" on="1"/>
        <pt x="316" y="401" on="0"/>
        <pt x="305" y="307" on="1"/>
        <pt x="374" y="307" on="0"/>
        <pt x="414" y="306" on="1"/>
        <pt x="481" y="317" on="0"/>
        <pt x="529" y="330" on="1"/>
        <pt x="534" y="386" on="0"/>
        <pt x="537" y="446" on="0"/>
        <pt x="540" y="487" on="0"/>
        <pt x="552" y="549" on="0"/>
        <pt x="570" y="588" on="0"/>
        <pt x="604" y="621" on="0"/>
        <pt x="618" y="624" on="1"/>
        <pt x="639" y="627" on="0"/>
        <pt x="639" y="615" on="1"/>
        <pt x="639" y="606" on="0"/>
        <pt x="631" y="605" on="1"/>
        <pt x="609" y="600" on="0"/>
        <pt x="580" y="559" on="0"/>
        <pt x="575" y="531" on="1"/>
        <pt x="566" y="480" on="0"/>
        <pt x="566" y="434" on="1"/>
        <pt x="567" y="393" on="1"/>
        <pt x="567" y="377" on="0"/>
        <pt x="561" y="343" on="1"/>
        <pt x="593" y="358" on="0"/>
        <pt x="606" y="382" on="1"/>
        <pt x="610" y="387" on="0"/>
        <pt x="620" y="387" on="0"/>
        <pt x="626" y="378" on="0"/>
        <pt x="623" y="373" on="1"/>
        <pt x="597" y="328" on="0"/>
        <pt x="559" y="304" on="1"/>
        <pt x="559" y="276" on="1"/>
        <pt x="559" y="174" on="0"/>
        <pt x="599" y="19" on="1"/>
        <pt x="611" y="-21" on="0"/>
        <pt x="632" y="-41" on="0"/>
        <pt x="632" y="-60" on="0"/>
        <pt x="613" y="-79" on="0"/>
        <pt x="595" y="-79" on="0"/>
        <pt x="575" y="-59" on="0"/>
        <pt x="559" y="-31" on="0"/>
        <pt x="548" y="-2" on="0"/>
        <pt x="538" y="41" on="0"/>
        <pt x="532" y="72" on="0"/>
        <pt x="528" y="123" on="0"/>
        <pt x="526" y="151" on="0"/>
        <pt x="525" y="204" on="0"/>
        <pt x="525" y="214" on="1"/>
        <pt x="525" y="283" on="1"/>
        <pt x="477" y="260" on="0"/>
        <pt x="414" y="253" on="1"/>
        <pt x="391" y="253" on="0"/>
        <pt x="318" y="278" on="0"/>
        <pt x="300" y="280" on="1"/>
        <pt x="293" y="223" on="0"/>
        <pt x="270" y="121" on="0"/>
        <pt x="266" y="102" on="0"/>
        <pt x="253" y="54" on="0"/>
        <pt x="242" y="31" on="0"/>
        <pt x="223" y="-7" on="0"/>
        <pt x="213" y="-18" on="1"/>
        <pt x="170" y="-65" on="0"/>
        <pt x="130" y="-65" on="1"/>
        <pt x="108" y="-65" on="0"/>
        <pt x="83" y="-42" on="1"/>
        <pt x="15" y="19" on="0"/>
        <pt x="15" y="100" on="1"/>
        <pt x="15" y="103" on="0"/>
        <pt x="15" y="106" on="1"/>
        <pt x="15" y="156" on="0"/>
        <pt x="75" y="251" on="0"/>
        <pt x="125" y="251" on="1"/>
        <pt x="126" y="251" on="0"/>
        <pt x="127" y="251" on="1"/>
        <pt x="147" y="251" on="0"/>
        <pt x="174" y="218" on="0"/>
        <pt x="174" y="173" on="0"/>
        <pt x="145" y="119" on="0"/>
        <pt x="121" y="119" on="1"/>
        <pt x="120" y="119" on="0"/>
      </contour>
    </TTGlyph>
    <TTGlyph name="I" xMin="31" yMin="-58" xMax="322" yMax="705">
      <contour>
        <pt x="263" y="534" on="1"/>
        <pt x="259" y="637" on="1"/>
        <pt x="259" y="643" on="0"/>
        <pt x="259" y="647" on="1"/>
        <pt x="251" y="640" on="0"/>
        <pt x="195" y="619" on="0"/>
        <pt x="153" y="564" on="0"/>
        <pt x="153" y="527" on="0"/>
        <pt x="165" y="498" on="0"/>
        <pt x="176" y="498" on="1"/>
        <pt x="203" y="498" on="0"/>
        <pt x="203" y="537" on="1"/>
        <pt x="203" y="546" on="0"/>
        <pt x="201" y="562" on="0"/>
        <pt x="210" y="567" on="0"/>
        <pt x="221" y="564" on="0"/>
        <pt x="222" y="551" on="0"/>
        <pt x="222" y="522" on="0"/>
        <pt x="203" y="478" on="0"/>
        <pt x="177" y="478" on="1"/>
        <pt x="129" y="478" on="0"/>
        <pt x="129" y="541" on="1"/>
        <pt x="128" y="572" on="0"/>
        <pt x="181" y="636" on="0"/>
        <pt x="209" y="647" on="1"/>
        <pt x="253" y="664" on="0"/>
        <pt x="263" y="696" on="1"/>
        <pt x="265" y="705" on="0"/>
        <pt x="275" y="705" on="1"/>
        <pt x="279" y="703" on="0"/>
        <pt x="280" y="700" on="1"/>
        <pt x="281" y="689" on="1"/>
        <pt x="281" y="684" on="0"/>
        <pt x="281" y="652" on="0"/>
        <pt x="286" y="582" on="0"/>
        <pt x="306" y="462" on="0"/>
        <pt x="309" y="413" on="0"/>
        <pt x="314" y="384" on="1"/>
        <pt x="321" y="336" on="0"/>
        <pt x="321" y="280" on="1"/>
        <pt x="322" y="278" on="0"/>
        <pt x="322" y="267" on="0"/>
        <pt x="319" y="241" on="0"/>
        <pt x="321" y="234" on="0"/>
        <pt x="315" y="201" on="0"/>
        <pt x="315" y="195" on="0"/>
        <pt x="308" y="163" on="0"/>
        <pt x="307" y="157" on="0"/>
        <pt x="298" y="125" on="0"/>
        <pt x="298" y="122" on="1"/>
        <pt x="281" y="41" on="0"/>
        <pt x="180" y="-58" on="0"/>
        <pt x="133" y="-58" on="1"/>
        <pt x="124" y="-58" on="0"/>
        <pt x="74" y="-33" on="0"/>
        <pt x="69" y="-26" on="1"/>
        <pt x="52" y="-7" on="0"/>
        <pt x="32" y="72" on="0"/>
        <pt x="32" y="107" on="1"/>
        <pt x="32" y="181" on="0"/>
        <pt x="87" y="249" on="1"/>
        <pt x="113" y="278" on="0"/>
        <pt x="179" y="278" on="0"/>
        <pt x="208" y="229" on="0"/>
        <pt x="208" y="158" on="0"/>
        <pt x="202" y="127" on="0"/>
        <pt x="159" y="60" on="0"/>
        <pt x="141" y="60" on="1"/>
        <pt x="140" y="60" on="0"/>
        <pt x="139" y="60" on="1"/>
        <pt x="119" y="60" on="0"/>
        <pt x="95" y="99" on="0"/>
        <pt x="95" y="131" on="0"/>
        <pt x="102" y="148" on="0"/>
        <pt x="103" y="162" on="0"/>
        <pt x="125" y="166" on="0"/>
        <pt x="126" y="153" on="1"/>
        <pt x="126" y="146" on="0"/>
        <pt x="120" y="128" on="0"/>
        <pt x="120" y="122" on="1"/>
        <pt x="120" y="87" on="0"/>
        <pt x="140" y="87" on="1"/>
        <pt x="156" y="88" on="0"/>
        <pt x="184" y="150" on="0"/>
        <pt x="185" y="181" on="0"/>
        <pt x="186" y="188" on="1"/>
        <pt x="186" y="255" on="0"/>
        <pt x="103" y="255" on="0"/>
        <pt x="52" y="149" on="0"/>
        <pt x="53" y="104" on="1"/>
        <pt x="53" y="30" on="0"/>
        <pt x="88" y="-9" on="1"/>
        <pt x="92" y="-13" on="0"/>
        <pt x="127" y="-27" on="0"/>
        <pt x="133" y="-27" on="1"/>
        <pt x="170" y="-27" on="0"/>
        <pt x="234" y="52" on="0"/>
        <pt x="246" y="96" on="1"/>
        <pt x="270" y="185" on="0"/>
        <pt x="271" y="329" on="0"/>
        <pt x="262" y="445" on="0"/>
        <pt x="262" y="479" on="1"/>
      </contour>
    </TTGlyph>
    <TTGlyph name="Iacute" xMin="31" yMin="-58" xMax="354" yMax="815">
      <contour>
        <pt x="316" y="815" on="0"/>
        <pt x="332" y="815" on="0"/>
        <pt x="354" y="810" on="0"/>
        <pt x="354" y="769" on="0"/>
        <pt x="308" y="749" on="0"/>
        <pt x="191" y="729" on="0"/>
        <pt x="150" y="714" on="0"/>
        <pt x="143" y="733" on="0"/>
        <pt x="155" y="738" on="1"/>
        <pt x="184" y="749" on="0"/>
        <pt x="291" y="805" on="0"/>
      </contour>
      <contour>
        <pt x="263" y="534" on="1"/>
        <pt x="259" y="637" on="1"/>
        <pt x="259" y="643" on="0"/>
        <pt x="259" y="647" on="1"/>
        <pt x="251" y="640" on="0"/>
        <pt x="195" y="619" on="0"/>
        <pt x="153" y="564" on="0"/>
        <pt x="153" y="527" on="0"/>
        <pt x="165" y="498" on="0"/>
        <pt x="176" y="498" on="1"/>
        <pt x="203" y="498" on="0"/>
        <pt x="203" y="537" on="1"/>
        <pt x="203" y="546" on="0"/>
        <pt x="201" y="562" on="0"/>
        <pt x="210" y="567" on="0"/>
        <pt x="221" y="564" on="0"/>
        <pt x="222" y="551" on="0"/>
        <pt x="222" y="522" on="0"/>
        <pt x="203" y="478" on="0"/>
        <pt x="177" y="478" on="1"/>
        <pt x="129" y="478" on="0"/>
        <pt x="129" y="541" on="1"/>
        <pt x="128" y="572" on="0"/>
        <pt x="181" y="636" on="0"/>
        <pt x="209" y="647" on="1"/>
        <pt x="253" y="664" on="0"/>
        <pt x="263" y="696" on="1"/>
        <pt x="265" y="705" on="0"/>
        <pt x="275" y="705" on="1"/>
        <pt x="279" y="703" on="0"/>
        <pt x="280" y="700" on="1"/>
        <pt x="281" y="689" on="1"/>
        <pt x="281" y="684" on="0"/>
        <pt x="281" y="652" on="0"/>
        <pt x="286" y="582" on="0"/>
        <pt x="306" y="462" on="0"/>
        <pt x="309" y="413" on="0"/>
        <pt x="314" y="384" on="1"/>
        <pt x="321" y="336" on="0"/>
        <pt x="321" y="280" on="1"/>
        <pt x="322" y="278" on="0"/>
        <pt x="322" y="267" on="0"/>
        <pt x="319" y="241" on="0"/>
        <pt x="321" y="234" on="0"/>
        <pt x="315" y="201" on="0"/>
        <pt x="315" y="195" on="0"/>
        <pt x="308" y="163" on="0"/>
        <pt x="307" y="157" on="0"/>
        <pt x="298" y="125" on="0"/>
        <pt x="298" y="122" on="1"/>
        <pt x="281" y="41" on="0"/>
        <pt x="180" y="-58" on="0"/>
        <pt x="133" y="-58" on="1"/>
        <pt x="124" y="-58" on="0"/>
        <pt x="74" y="-33" on="0"/>
        <pt x="69" y="-26" on="1"/>
        <pt x="52" y="-7" on="0"/>
        <pt x="32" y="72" on="0"/>
        <pt x="32" y="107" on="1"/>
        <pt x="32" y="181" on="0"/>
        <pt x="87" y="249" on="1"/>
        <pt x="113" y="278" on="0"/>
        <pt x="179" y="278" on="0"/>
        <pt x="208" y="229" on="0"/>
        <pt x="208" y="158" on="0"/>
        <pt x="202" y="127" on="0"/>
        <pt x="159" y="60" on="0"/>
        <pt x="141" y="60" on="1"/>
        <pt x="140" y="60" on="0"/>
        <pt x="139" y="60" on="1"/>
        <pt x="119" y="60" on="0"/>
        <pt x="95" y="99" on="0"/>
        <pt x="95" y="131" on="0"/>
        <pt x="102" y="148" on="0"/>
        <pt x="103" y="162" on="0"/>
        <pt x="125" y="166" on="0"/>
        <pt x="126" y="153" on="1"/>
        <pt x="126" y="146" on="0"/>
        <pt x="120" y="128" on="0"/>
        <pt x="120" y="122" on="1"/>
        <pt x="120" y="87" on="0"/>
        <pt x="140" y="87" on="1"/>
        <pt x="156" y="88" on="0"/>
        <pt x="184" y="150" on="0"/>
        <pt x="185" y="181" on="0"/>
        <pt x="186" y="188" on="1"/>
        <pt x="186" y="255" on="0"/>
        <pt x="103" y="255" on="0"/>
        <pt x="52" y="149" on="0"/>
        <pt x="53" y="104" on="1"/>
        <pt x="53" y="30" on="0"/>
        <pt x="88" y="-9" on="1"/>
        <pt x="92" y="-13" on="0"/>
        <pt x="127" y="-27" on="0"/>
        <pt x="133" y="-27" on="1"/>
        <pt x="170" y="-27" on="0"/>
        <pt x="234" y="52" on="0"/>
        <pt x="246" y="96" on="1"/>
        <pt x="270" y="185" on="0"/>
        <pt x="271" y="329" on="0"/>
        <pt x="262" y="445" on="0"/>
        <pt x="262" y="479" on="1"/>
      </contour>
    </TTGlyph>
    <TTGlyph name="Icircumflex" xMin="31" yMin="-58" xMax="437" yMax="841">
      <contour>
        <pt x="284" y="749" on="1"/>
        <pt x="258" y="767" on="0"/>
        <pt x="232" y="767" on="0"/>
        <pt x="226" y="763" on="1"/>
        <pt x="196" y="744" on="0"/>
        <pt x="108" y="702" on="0"/>
        <pt x="83" y="683" on="0"/>
        <pt x="71" y="683" on="0"/>
        <pt x="68" y="686" on="1"/>
        <pt x="62" y="694" on="0"/>
        <pt x="78" y="711" on="1"/>
        <pt x="79" y="712" on="0"/>
        <pt x="115" y="745" on="0"/>
        <pt x="142" y="770" on="0"/>
        <pt x="160" y="785" on="0"/>
        <pt x="187" y="807" on="0"/>
        <pt x="208" y="821" on="0"/>
        <pt x="219" y="828" on="1"/>
        <pt x="239" y="841" on="0"/>
        <pt x="256" y="841" on="1"/>
        <pt x="260" y="841" on="0"/>
        <pt x="406" y="734" on="0"/>
        <pt x="418" y="727" on="1"/>
        <pt x="441" y="715" on="0"/>
        <pt x="437" y="700" on="1"/>
        <pt x="432" y="686" on="0"/>
        <pt x="396" y="705" on="0"/>
        <pt x="304" y="737" on="0"/>
      </contour>
      <contour>
        <pt x="263" y="534" on="1"/>
        <pt x="259" y="637" on="1"/>
        <pt x="259" y="643" on="0"/>
        <pt x="259" y="647" on="1"/>
        <pt x="251" y="640" on="0"/>
        <pt x="195" y="619" on="0"/>
        <pt x="153" y="564" on="0"/>
        <pt x="153" y="527" on="0"/>
        <pt x="165" y="498" on="0"/>
        <pt x="176" y="498" on="1"/>
        <pt x="203" y="498" on="0"/>
        <pt x="203" y="537" on="1"/>
        <pt x="203" y="546" on="0"/>
        <pt x="201" y="562" on="0"/>
        <pt x="210" y="567" on="0"/>
        <pt x="221" y="564" on="0"/>
        <pt x="222" y="551" on="0"/>
        <pt x="222" y="522" on="0"/>
        <pt x="203" y="478" on="0"/>
        <pt x="177" y="478" on="1"/>
        <pt x="129" y="478" on="0"/>
        <pt x="129" y="541" on="1"/>
        <pt x="128" y="572" on="0"/>
        <pt x="181" y="636" on="0"/>
        <pt x="209" y="647" on="1"/>
        <pt x="253" y="664" on="0"/>
        <pt x="263" y="696" on="1"/>
        <pt x="265" y="705" on="0"/>
        <pt x="275" y="705" on="1"/>
        <pt x="279" y="703" on="0"/>
        <pt x="280" y="700" on="1"/>
        <pt x="281" y="689" on="1"/>
        <pt x="281" y="684" on="0"/>
        <pt x="281" y="652" on="0"/>
        <pt x="286" y="582" on="0"/>
        <pt x="306" y="462" on="0"/>
        <pt x="309" y="413" on="0"/>
        <pt x="314" y="384" on="1"/>
        <pt x="321" y="336" on="0"/>
        <pt x="321" y="280" on="1"/>
        <pt x="322" y="278" on="0"/>
        <pt x="322" y="267" on="0"/>
        <pt x="319" y="241" on="0"/>
        <pt x="321" y="234" on="0"/>
        <pt x="315" y="201" on="0"/>
        <pt x="315" y="195" on="0"/>
        <pt x="308" y="163" on="0"/>
        <pt x="307" y="157" on="0"/>
        <pt x="298" y="125" on="0"/>
        <pt x="298" y="122" on="1"/>
        <pt x="281" y="41" on="0"/>
        <pt x="180" y="-58" on="0"/>
        <pt x="133" y="-58" on="1"/>
        <pt x="124" y="-58" on="0"/>
        <pt x="74" y="-33" on="0"/>
        <pt x="69" y="-26" on="1"/>
        <pt x="52" y="-7" on="0"/>
        <pt x="32" y="72" on="0"/>
        <pt x="32" y="107" on="1"/>
        <pt x="32" y="181" on="0"/>
        <pt x="87" y="249" on="1"/>
        <pt x="113" y="278" on="0"/>
        <pt x="179" y="278" on="0"/>
        <pt x="208" y="229" on="0"/>
        <pt x="208" y="158" on="0"/>
        <pt x="202" y="127" on="0"/>
        <pt x="159" y="60" on="0"/>
        <pt x="141" y="60" on="1"/>
        <pt x="140" y="60" on="0"/>
        <pt x="139" y="60" on="1"/>
        <pt x="119" y="60" on="0"/>
        <pt x="95" y="99" on="0"/>
        <pt x="95" y="131" on="0"/>
        <pt x="102" y="148" on="0"/>
        <pt x="103" y="162" on="0"/>
        <pt x="125" y="166" on="0"/>
        <pt x="126" y="153" on="1"/>
        <pt x="126" y="146" on="0"/>
        <pt x="120" y="128" on="0"/>
        <pt x="120" y="122" on="1"/>
        <pt x="120" y="87" on="0"/>
        <pt x="140" y="87" on="1"/>
        <pt x="156" y="88" on="0"/>
        <pt x="184" y="150" on="0"/>
        <pt x="185" y="181" on="0"/>
        <pt x="186" y="188" on="1"/>
        <pt x="186" y="255" on="0"/>
        <pt x="103" y="255" on="0"/>
        <pt x="52" y="149" on="0"/>
        <pt x="53" y="104" on="1"/>
        <pt x="53" y="30" on="0"/>
        <pt x="88" y="-9" on="1"/>
        <pt x="92" y="-13" on="0"/>
        <pt x="127" y="-27" on="0"/>
        <pt x="133" y="-27" on="1"/>
        <pt x="170" y="-27" on="0"/>
        <pt x="234" y="52" on="0"/>
        <pt x="246" y="96" on="1"/>
        <pt x="270" y="185" on="0"/>
        <pt x="271" y="329" on="0"/>
        <pt x="262" y="445" on="0"/>
        <pt x="262" y="479" on="1"/>
      </contour>
    </TTGlyph>
    <TTGlyph name="Idieresis" xMin="31" yMin="-58" xMax="364" yMax="802">
      <contour>
        <pt x="339" y="801" on="0"/>
        <pt x="364" y="783" on="0"/>
        <pt x="364" y="754" on="0"/>
        <pt x="338" y="729" on="0"/>
        <pt x="324" y="729" on="1"/>
        <pt x="290" y="729" on="0"/>
        <pt x="287" y="762" on="1"/>
        <pt x="284" y="777" on="0"/>
        <pt x="308" y="801" on="0"/>
      </contour>
      <contour>
        <pt x="207" y="780" on="0"/>
        <pt x="207" y="750" on="0"/>
        <pt x="188" y="728" on="0"/>
        <pt x="158" y="728" on="0"/>
        <pt x="133" y="750" on="0"/>
        <pt x="136" y="765" on="1"/>
        <pt x="138" y="780" on="0"/>
        <pt x="159" y="802" on="0"/>
        <pt x="188" y="802" on="0"/>
      </contour>
      <contour>
        <pt x="263" y="534" on="1"/>
        <pt x="259" y="637" on="1"/>
        <pt x="259" y="643" on="0"/>
        <pt x="259" y="647" on="1"/>
        <pt x="251" y="640" on="0"/>
        <pt x="195" y="619" on="0"/>
        <pt x="153" y="564" on="0"/>
        <pt x="153" y="527" on="0"/>
        <pt x="165" y="498" on="0"/>
        <pt x="176" y="498" on="1"/>
        <pt x="203" y="498" on="0"/>
        <pt x="203" y="537" on="1"/>
        <pt x="203" y="546" on="0"/>
        <pt x="201" y="562" on="0"/>
        <pt x="210" y="567" on="0"/>
        <pt x="221" y="564" on="0"/>
        <pt x="222" y="551" on="0"/>
        <pt x="222" y="522" on="0"/>
        <pt x="203" y="478" on="0"/>
        <pt x="177" y="478" on="1"/>
        <pt x="129" y="478" on="0"/>
        <pt x="129" y="541" on="1"/>
        <pt x="128" y="572" on="0"/>
        <pt x="181" y="636" on="0"/>
        <pt x="209" y="647" on="1"/>
        <pt x="253" y="664" on="0"/>
        <pt x="263" y="696" on="1"/>
        <pt x="265" y="705" on="0"/>
        <pt x="275" y="705" on="1"/>
        <pt x="279" y="703" on="0"/>
        <pt x="280" y="700" on="1"/>
        <pt x="281" y="689" on="1"/>
        <pt x="281" y="684" on="0"/>
        <pt x="281" y="652" on="0"/>
        <pt x="286" y="582" on="0"/>
        <pt x="306" y="462" on="0"/>
        <pt x="309" y="413" on="0"/>
        <pt x="314" y="384" on="1"/>
        <pt x="321" y="336" on="0"/>
        <pt x="321" y="280" on="1"/>
        <pt x="322" y="278" on="0"/>
        <pt x="322" y="267" on="0"/>
        <pt x="319" y="241" on="0"/>
        <pt x="321" y="234" on="0"/>
        <pt x="315" y="201" on="0"/>
        <pt x="315" y="195" on="0"/>
        <pt x="308" y="163" on="0"/>
        <pt x="307" y="157" on="0"/>
        <pt x="298" y="125" on="0"/>
        <pt x="298" y="122" on="1"/>
        <pt x="281" y="41" on="0"/>
        <pt x="180" y="-58" on="0"/>
        <pt x="133" y="-58" on="1"/>
        <pt x="124" y="-58" on="0"/>
        <pt x="74" y="-33" on="0"/>
        <pt x="69" y="-26" on="1"/>
        <pt x="52" y="-7" on="0"/>
        <pt x="32" y="72" on="0"/>
        <pt x="32" y="107" on="1"/>
        <pt x="32" y="181" on="0"/>
        <pt x="87" y="249" on="1"/>
        <pt x="113" y="278" on="0"/>
        <pt x="179" y="278" on="0"/>
        <pt x="208" y="229" on="0"/>
        <pt x="208" y="158" on="0"/>
        <pt x="202" y="127" on="0"/>
        <pt x="159" y="60" on="0"/>
        <pt x="141" y="60" on="1"/>
        <pt x="140" y="60" on="0"/>
        <pt x="139" y="60" on="1"/>
        <pt x="119" y="60" on="0"/>
        <pt x="95" y="99" on="0"/>
        <pt x="95" y="131" on="0"/>
        <pt x="102" y="148" on="0"/>
        <pt x="103" y="162" on="0"/>
        <pt x="125" y="166" on="0"/>
        <pt x="126" y="153" on="1"/>
        <pt x="126" y="146" on="0"/>
        <pt x="120" y="128" on="0"/>
        <pt x="120" y="122" on="1"/>
        <pt x="120" y="87" on="0"/>
        <pt x="140" y="87" on="1"/>
        <pt x="156" y="88" on="0"/>
        <pt x="184" y="150" on="0"/>
        <pt x="185" y="181" on="0"/>
        <pt x="186" y="188" on="1"/>
        <pt x="186" y="255" on="0"/>
        <pt x="103" y="255" on="0"/>
        <pt x="52" y="149" on="0"/>
        <pt x="53" y="104" on="1"/>
        <pt x="53" y="30" on="0"/>
        <pt x="88" y="-9" on="1"/>
        <pt x="92" y="-13" on="0"/>
        <pt x="127" y="-27" on="0"/>
        <pt x="133" y="-27" on="1"/>
        <pt x="170" y="-27" on="0"/>
        <pt x="234" y="52" on="0"/>
        <pt x="246" y="96" on="1"/>
        <pt x="270" y="185" on="0"/>
        <pt x="271" y="329" on="0"/>
        <pt x="262" y="445" on="0"/>
        <pt x="262" y="479" on="1"/>
      </contour>
    </TTGlyph>
    <TTGlyph name="Igrave" xMin="31" yMin="-58" xMax="322" yMax="829">
      <contour>
        <pt x="113" y="829" on="0"/>
        <pt x="128" y="829" on="0"/>
        <pt x="154" y="818" on="0"/>
        <pt x="261" y="762" on="0"/>
        <pt x="290" y="752" on="1"/>
        <pt x="304" y="747" on="0"/>
        <pt x="292" y="729" on="0"/>
        <pt x="254" y="743" on="0"/>
        <pt x="137" y="763" on="0"/>
        <pt x="92" y="782" on="0"/>
        <pt x="89" y="823" on="0"/>
        <pt x="103" y="827" on="1"/>
      </contour>
      <contour>
        <pt x="263" y="534" on="1"/>
        <pt x="259" y="637" on="1"/>
        <pt x="259" y="643" on="0"/>
        <pt x="259" y="647" on="1"/>
        <pt x="251" y="640" on="0"/>
        <pt x="195" y="619" on="0"/>
        <pt x="153" y="564" on="0"/>
        <pt x="153" y="527" on="0"/>
        <pt x="165" y="498" on="0"/>
        <pt x="176" y="498" on="1"/>
        <pt x="203" y="498" on="0"/>
        <pt x="203" y="537" on="1"/>
        <pt x="203" y="546" on="0"/>
        <pt x="201" y="562" on="0"/>
        <pt x="210" y="567" on="0"/>
        <pt x="221" y="564" on="0"/>
        <pt x="222" y="551" on="0"/>
        <pt x="222" y="522" on="0"/>
        <pt x="203" y="478" on="0"/>
        <pt x="177" y="478" on="1"/>
        <pt x="129" y="478" on="0"/>
        <pt x="129" y="541" on="1"/>
        <pt x="128" y="572" on="0"/>
        <pt x="181" y="636" on="0"/>
        <pt x="209" y="647" on="1"/>
        <pt x="253" y="664" on="0"/>
        <pt x="263" y="696" on="1"/>
        <pt x="265" y="705" on="0"/>
        <pt x="275" y="705" on="1"/>
        <pt x="279" y="703" on="0"/>
        <pt x="280" y="700" on="1"/>
        <pt x="281" y="689" on="1"/>
        <pt x="281" y="684" on="0"/>
        <pt x="281" y="652" on="0"/>
        <pt x="286" y="582" on="0"/>
        <pt x="306" y="462" on="0"/>
        <pt x="309" y="413" on="0"/>
        <pt x="314" y="384" on="1"/>
        <pt x="321" y="336" on="0"/>
        <pt x="321" y="280" on="1"/>
        <pt x="322" y="278" on="0"/>
        <pt x="322" y="267" on="0"/>
        <pt x="319" y="241" on="0"/>
        <pt x="321" y="234" on="0"/>
        <pt x="315" y="201" on="0"/>
        <pt x="315" y="195" on="0"/>
        <pt x="308" y="163" on="0"/>
        <pt x="307" y="157" on="0"/>
        <pt x="298" y="125" on="0"/>
        <pt x="298" y="122" on="1"/>
        <pt x="281" y="41" on="0"/>
        <pt x="180" y="-58" on="0"/>
        <pt x="133" y="-58" on="1"/>
        <pt x="124" y="-58" on="0"/>
        <pt x="74" y="-33" on="0"/>
        <pt x="69" y="-26" on="1"/>
        <pt x="52" y="-7" on="0"/>
        <pt x="32" y="72" on="0"/>
        <pt x="32" y="107" on="1"/>
        <pt x="32" y="181" on="0"/>
        <pt x="87" y="249" on="1"/>
        <pt x="113" y="278" on="0"/>
        <pt x="179" y="278" on="0"/>
        <pt x="208" y="229" on="0"/>
        <pt x="208" y="158" on="0"/>
        <pt x="202" y="127" on="0"/>
        <pt x="159" y="60" on="0"/>
        <pt x="141" y="60" on="1"/>
        <pt x="140" y="60" on="0"/>
        <pt x="139" y="60" on="1"/>
        <pt x="119" y="60" on="0"/>
        <pt x="95" y="99" on="0"/>
        <pt x="95" y="131" on="0"/>
        <pt x="102" y="148" on="0"/>
        <pt x="103" y="162" on="0"/>
        <pt x="125" y="166" on="0"/>
        <pt x="126" y="153" on="1"/>
        <pt x="126" y="146" on="0"/>
        <pt x="120" y="128" on="0"/>
        <pt x="120" y="122" on="1"/>
        <pt x="120" y="87" on="0"/>
        <pt x="140" y="87" on="1"/>
        <pt x="156" y="88" on="0"/>
        <pt x="184" y="150" on="0"/>
        <pt x="185" y="181" on="0"/>
        <pt x="186" y="188" on="1"/>
        <pt x="186" y="255" on="0"/>
        <pt x="103" y="255" on="0"/>
        <pt x="52" y="149" on="0"/>
        <pt x="53" y="104" on="1"/>
        <pt x="53" y="30" on="0"/>
        <pt x="88" y="-9" on="1"/>
        <pt x="92" y="-13" on="0"/>
        <pt x="127" y="-27" on="0"/>
        <pt x="133" y="-27" on="1"/>
        <pt x="170" y="-27" on="0"/>
        <pt x="234" y="52" on="0"/>
        <pt x="246" y="96" on="1"/>
        <pt x="270" y="185" on="0"/>
        <pt x="271" y="329" on="0"/>
        <pt x="262" y="445" on="0"/>
        <pt x="262" y="479" on="1"/>
      </contour>
    </TTGlyph>
    <TTGlyph name="J" xMin="-3" yMin="-55" xMax="396" yMax="689">
      <contour>
        <pt x="361" y="644" on="0"/>
        <pt x="379" y="662" on="0"/>
        <pt x="379" y="689" on="0"/>
        <pt x="396" y="689" on="0"/>
        <pt x="396" y="681" on="1"/>
        <pt x="396" y="648" on="0"/>
        <pt x="371" y="623" on="0"/>
        <pt x="358" y="611" on="0"/>
        <pt x="328" y="596" on="0"/>
        <pt x="304" y="596" on="0"/>
        <pt x="299" y="597" on="1"/>
        <pt x="299" y="596" on="0"/>
        <pt x="293" y="538" on="1"/>
        <pt x="292" y="508" on="0"/>
        <pt x="292" y="450" on="1"/>
        <pt x="292" y="372" on="0"/>
        <pt x="298" y="237" on="1"/>
        <pt x="298" y="224" on="0"/>
        <pt x="287" y="177" on="0"/>
        <pt x="286" y="117" on="0"/>
        <pt x="252" y="18" on="0"/>
        <pt x="223" y="-11" on="1"/>
        <pt x="209" y="-25" on="1"/>
        <pt x="179" y="-55" on="0"/>
        <pt x="148" y="-55" on="1"/>
        <pt x="89" y="-55" on="0"/>
        <pt x="48" y="14" on="1"/>
        <pt x="-3" y="98" on="0"/>
        <pt x="-3" y="176" on="1"/>
        <pt x="-3" y="225" on="0"/>
        <pt x="22" y="277" on="1"/>
        <pt x="53" y="342" on="0"/>
        <pt x="106" y="342" on="1"/>
        <pt x="148" y="342" on="0"/>
        <pt x="200" y="256" on="0"/>
        <pt x="200" y="214" on="1"/>
        <pt x="200" y="209" on="0"/>
        <pt x="200" y="204" on="1"/>
        <pt x="200" y="155" on="0"/>
        <pt x="162" y="85" on="0"/>
        <pt x="115" y="84" on="1"/>
        <pt x="92" y="84" on="0"/>
        <pt x="69" y="115" on="1"/>
        <pt x="57" y="134" on="0"/>
        <pt x="57" y="199" on="0"/>
        <pt x="96" y="231" on="0"/>
        <pt x="120" y="231" on="1"/>
        <pt x="124" y="231" on="0"/>
        <pt x="135" y="231" on="0"/>
        <pt x="139" y="218" on="0"/>
        <pt x="132" y="207" on="0"/>
        <pt x="109" y="210" on="0"/>
        <pt x="88" y="185" on="0"/>
        <pt x="88" y="137" on="0"/>
        <pt x="108" y="121" on="1"/>
        <pt x="114" y="116" on="0"/>
        <pt x="115" y="115" on="1"/>
        <pt x="173" y="115" on="0"/>
        <pt x="175" y="213" on="1"/>
        <pt x="175" y="249" on="0"/>
        <pt x="141" y="320" on="0"/>
        <pt x="108" y="320" on="1"/>
        <pt x="62" y="320" on="0"/>
        <pt x="39" y="264" on="1"/>
        <pt x="20" y="219" on="0"/>
        <pt x="20" y="173" on="1"/>
        <pt x="20" y="110" on="0"/>
        <pt x="100" y="-9" on="0"/>
        <pt x="148" y="-9" on="1"/>
        <pt x="156" y="-9" on="0"/>
        <pt x="166" y="0" on="1"/>
        <pt x="187" y="19" on="0"/>
        <pt x="190" y="22" on="1"/>
        <pt x="264" y="92" on="0"/>
        <pt x="267" y="166" on="1"/>
        <pt x="264" y="236" on="1"/>
        <pt x="264" y="236" on="0"/>
        <pt x="258" y="280" on="1"/>
        <pt x="257" y="317" on="0"/>
        <pt x="243" y="460" on="0"/>
        <pt x="243" y="528" on="0"/>
        <pt x="243" y="541" on="1"/>
        <pt x="244" y="573" on="0"/>
        <pt x="265" y="600" on="1"/>
        <pt x="185" y="617" on="0"/>
        <pt x="121" y="617" on="0"/>
        <pt x="98" y="602" on="1"/>
        <pt x="88" y="596" on="0"/>
        <pt x="88" y="582" on="0"/>
        <pt x="100" y="562" on="0"/>
        <pt x="93" y="553" on="0"/>
        <pt x="84" y="553" on="0"/>
        <pt x="79" y="561" on="0"/>
        <pt x="74" y="569" on="0"/>
        <pt x="72" y="571" on="1"/>
        <pt x="68" y="577" on="0"/>
        <pt x="68" y="585" on="1"/>
        <pt x="68" y="610" on="0"/>
        <pt x="116" y="643" on="0"/>
        <pt x="164" y="643" on="1"/>
        <pt x="304" y="643" on="1"/>
        <pt x="306" y="644" on="1"/>
        <pt x="314" y="650" on="0"/>
        <pt x="318" y="642" on="1"/>
        <pt x="319" y="642" on="0"/>
        <pt x="342" y="642" on="0"/>
      </contour>
    </TTGlyph>
    <TTGlyph name="K" xMin="16" yMin="-69" xMax="657" yMax="747">
      <contour>
        <pt x="315" y="268" on="1"/>
        <pt x="279" y="264" on="1"/>
        <pt x="263" y="264" on="0"/>
        <pt x="244" y="303" on="0"/>
        <pt x="244" y="343" on="0"/>
        <pt x="274" y="376" on="1"/>
        <pt x="288" y="390" on="0"/>
        <pt x="299" y="389" on="1"/>
        <pt x="332" y="389" on="0"/>
        <pt x="352" y="338" on="1"/>
        <pt x="387" y="393" on="0"/>
        <pt x="422" y="516" on="1"/>
        <pt x="449" y="614" on="0"/>
        <pt x="473" y="660" on="1"/>
        <pt x="520" y="747" on="0"/>
        <pt x="599" y="747" on="1"/>
        <pt x="650" y="747" on="0"/>
        <pt x="656" y="696" on="1"/>
        <pt x="656" y="688" on="1"/>
        <pt x="656" y="682" on="0"/>
        <pt x="657" y="671" on="0"/>
        <pt x="652" y="658" on="0"/>
        <pt x="642" y="641" on="0"/>
        <pt x="637" y="631" on="0"/>
        <pt x="625" y="632" on="0"/>
        <pt x="620" y="640" on="0"/>
        <pt x="635" y="667" on="0"/>
        <pt x="635" y="683" on="0"/>
        <pt x="631" y="691" on="1"/>
        <pt x="626" y="717" on="0"/>
        <pt x="598" y="717" on="1"/>
        <pt x="575" y="717" on="0"/>
        <pt x="555" y="691" on="0"/>
        <pt x="546" y="676" on="0"/>
        <pt x="533" y="651" on="0"/>
        <pt x="529" y="645" on="1"/>
        <pt x="501" y="598" on="0"/>
        <pt x="431" y="404" on="0"/>
        <pt x="391" y="328" on="0"/>
        <pt x="364" y="298" on="1"/>
        <pt x="376" y="255" on="0"/>
        <pt x="411" y="117" on="0"/>
        <pt x="457" y="58" on="1"/>
        <pt x="458" y="57" on="0"/>
        <pt x="469" y="43" on="0"/>
        <pt x="473" y="38" on="0"/>
        <pt x="483" y="25" on="0"/>
        <pt x="486" y="22" on="1"/>
        <pt x="500" y="8" on="0"/>
        <pt x="508" y="3" on="0"/>
        <pt x="520" y="-5" on="0"/>
        <pt x="524" y="-6" on="1"/>
        <pt x="538" y="-11" on="0"/>
        <pt x="554" y="-11" on="1"/>
        <pt x="583" y="-11" on="0"/>
        <pt x="610" y="40" on="1"/>
        <pt x="627" y="72" on="0"/>
        <pt x="627" y="85" on="1"/>
        <pt x="626" y="114" on="0"/>
        <pt x="600" y="156" on="0"/>
        <pt x="577" y="156" on="1"/>
        <pt x="576" y="156" on="0"/>
        <pt x="575" y="156" on="1"/>
        <pt x="557" y="156" on="0"/>
        <pt x="538" y="133" on="0"/>
        <pt x="538" y="102" on="0"/>
        <pt x="552" y="82" on="0"/>
        <pt x="575" y="81" on="0"/>
        <pt x="584" y="101" on="1"/>
        <pt x="585" y="107" on="0"/>
        <pt x="596" y="109" on="0"/>
        <pt x="603" y="101" on="0"/>
        <pt x="598" y="84" on="0"/>
        <pt x="577" y="59" on="0"/>
        <pt x="563" y="59" on="1"/>
        <pt x="562" y="59" on="0"/>
        <pt x="561" y="59" on="1"/>
        <pt x="542" y="59" on="0"/>
        <pt x="513" y="92" on="0"/>
        <pt x="513" y="142" on="0"/>
        <pt x="545" y="178" on="0"/>
        <pt x="575" y="178" on="1"/>
        <pt x="576" y="178" on="0"/>
        <pt x="577" y="178" on="1"/>
        <pt x="608" y="178" on="0"/>
        <pt x="646" y="122" on="0"/>
        <pt x="646" y="52" on="0"/>
        <pt x="613" y="-13" on="0"/>
        <pt x="607" y="-20" on="1"/>
        <pt x="580" y="-49" on="0"/>
        <pt x="545" y="-49" on="1"/>
        <pt x="487" y="-49" on="0"/>
        <pt x="422" y="32" on="1"/>
        <pt x="407" y="51" on="0"/>
        <pt x="396" y="78" on="1"/>
        <pt x="372" y="134" on="0"/>
        <pt x="352" y="263" on="0"/>
        <pt x="348" y="282" on="1"/>
        <pt x="331" y="268" on="0"/>
      </contour>
      <contour>
        <pt x="200" y="414" on="1"/>
        <pt x="202" y="511" on="1"/>
        <pt x="202" y="588" on="0"/>
        <pt x="177" y="631" on="1"/>
        <pt x="176" y="633" on="0"/>
        <pt x="171" y="644" on="1"/>
        <pt x="161" y="668" on="0"/>
        <pt x="146" y="668" on="1"/>
        <pt x="113" y="668" on="0"/>
        <pt x="53" y="584" on="0"/>
        <pt x="53" y="527" on="0"/>
        <pt x="74" y="504" on="1"/>
        <pt x="80" y="496" on="0"/>
        <pt x="96" y="496" on="0"/>
        <pt x="104" y="500" on="1"/>
        <pt x="139" y="516" on="0"/>
        <pt x="115" y="558" on="1"/>
        <pt x="113" y="563" on="0"/>
        <pt x="120" y="572" on="0"/>
        <pt x="129" y="572" on="0"/>
        <pt x="132" y="567" on="1"/>
        <pt x="132" y="566" on="1"/>
        <pt x="143" y="546" on="0"/>
        <pt x="143" y="529" on="1"/>
        <pt x="142" y="494" on="0"/>
        <pt x="108" y="479" on="1"/>
        <pt x="95" y="473" on="0"/>
        <pt x="67" y="473" on="0"/>
        <pt x="56" y="485" on="1"/>
        <pt x="28" y="517" on="0"/>
        <pt x="28" y="594" on="0"/>
        <pt x="103" y="699" on="0"/>
        <pt x="147" y="699" on="1"/>
        <pt x="175" y="699" on="0"/>
        <pt x="216" y="666" on="0"/>
        <pt x="226" y="639" on="1"/>
        <pt x="246" y="589" on="0"/>
        <pt x="248" y="535" on="1"/>
        <pt x="248" y="414" on="1"/>
        <pt x="248" y="373" on="0"/>
        <pt x="234" y="254" on="0"/>
        <pt x="230" y="200" on="0"/>
        <pt x="213" y="112" on="0"/>
        <pt x="183" y="6" on="0"/>
        <pt x="131" y="-69" on="0"/>
        <pt x="65" y="-69" on="0"/>
        <pt x="17" y="16" on="0"/>
        <pt x="17" y="89" on="0"/>
        <pt x="54" y="150" on="0"/>
        <pt x="119" y="151" on="0"/>
        <pt x="128" y="119" on="1"/>
        <pt x="131" y="107" on="0"/>
        <pt x="131" y="78" on="0"/>
        <pt x="118" y="55" on="0"/>
        <pt x="101" y="63" on="0"/>
        <pt x="110" y="82" on="0"/>
        <pt x="113" y="107" on="0"/>
        <pt x="101" y="128" on="0"/>
        <pt x="88" y="128" on="1"/>
        <pt x="73" y="128" on="1"/>
        <pt x="56" y="122" on="0"/>
        <pt x="36" y="77" on="0"/>
        <pt x="36" y="22" on="0"/>
        <pt x="72" y="-43" on="0"/>
        <pt x="124" y="-43" on="0"/>
        <pt x="163" y="27" on="0"/>
        <pt x="173" y="78" on="1"/>
        <pt x="192" y="175" on="0"/>
        <pt x="200" y="335" on="0"/>
      </contour>
      <contour>
        <pt x="280" y="307" on="1"/>
        <pt x="316" y="308" on="1"/>
        <pt x="328" y="308" on="0"/>
        <pt x="339" y="320" on="1"/>
        <pt x="338" y="320" on="1"/>
        <pt x="336" y="329" on="0"/>
        <pt x="326" y="351" on="1"/>
        <pt x="314" y="370" on="0"/>
        <pt x="301" y="370" on="1"/>
        <pt x="300" y="370" on="1"/>
        <pt x="290" y="370" on="0"/>
        <pt x="279" y="348" on="1"/>
        <pt x="276" y="348" on="0"/>
        <pt x="276" y="338" on="0"/>
        <pt x="279" y="307" on="0"/>
      </contour>
    </TTGlyph>
    <TTGlyph name="L" xMin="13" yMin="-58" xMax="625" yMax="757">
      <contour>
        <pt x="241" y="380" on="1"/>
        <pt x="231" y="458" on="0"/>
        <pt x="231" y="556" on="0"/>
        <pt x="243" y="613" on="1"/>
        <pt x="262" y="699" on="0"/>
        <pt x="318" y="742" on="1"/>
        <pt x="336" y="757" on="0"/>
        <pt x="380" y="757" on="0"/>
        <pt x="450" y="699" on="0"/>
        <pt x="450" y="590" on="1"/>
        <pt x="450" y="469" on="0"/>
        <pt x="374" y="395" on="1"/>
        <pt x="334" y="356" on="0"/>
        <pt x="280" y="351" on="1"/>
        <pt x="282" y="336" on="0"/>
        <pt x="290" y="290" on="0"/>
        <pt x="291" y="280" on="1"/>
        <pt x="295" y="238" on="0"/>
        <pt x="295" y="211" on="1"/>
        <pt x="295" y="153" on="0"/>
        <pt x="271" y="95" on="1"/>
        <pt x="287" y="83" on="0"/>
        <pt x="342" y="36" on="0"/>
        <pt x="349" y="31" on="1"/>
        <pt x="401" y="-9" on="0"/>
        <pt x="506" y="-9" on="0"/>
        <pt x="578" y="78" on="0"/>
        <pt x="577" y="128" on="1"/>
        <pt x="577" y="245" on="0"/>
        <pt x="526" y="272" on="1"/>
        <pt x="509" y="282" on="0"/>
        <pt x="439" y="282" on="0"/>
        <pt x="402" y="218" on="0"/>
        <pt x="402" y="181" on="1"/>
        <pt x="402" y="179" on="0"/>
        <pt x="402" y="177" on="1"/>
        <pt x="402" y="156" on="0"/>
        <pt x="432" y="115" on="0"/>
        <pt x="447" y="115" on="1"/>
        <pt x="473" y="116" on="0"/>
        <pt x="501" y="146" on="0"/>
        <pt x="502" y="178" on="0"/>
        <pt x="513" y="184" on="0"/>
        <pt x="524" y="178" on="0"/>
        <pt x="524" y="171" on="1"/>
        <pt x="523" y="134" on="0"/>
        <pt x="486" y="87" on="0"/>
        <pt x="417" y="86" on="0"/>
        <pt x="373" y="148" on="0"/>
        <pt x="373" y="178" on="1"/>
        <pt x="373" y="180" on="0"/>
        <pt x="373" y="181" on="1"/>
        <pt x="373" y="226" on="0"/>
        <pt x="429" y="309" on="0"/>
        <pt x="517" y="309" on="0"/>
        <pt x="540" y="296" on="1"/>
        <pt x="576" y="276" on="0"/>
        <pt x="624" y="175" on="0"/>
        <pt x="624" y="72" on="0"/>
        <pt x="590" y="19" on="1"/>
        <pt x="540" y="-58" on="0"/>
        <pt x="455" y="-58" on="1"/>
        <pt x="421" y="-58" on="0"/>
        <pt x="358" y="-34" on="0"/>
        <pt x="324" y="-8" on="0"/>
        <pt x="265" y="44" on="0"/>
        <pt x="251" y="55" on="1"/>
        <pt x="245" y="44" on="0"/>
        <pt x="220" y="3" on="0"/>
        <pt x="215" y="-6" on="1"/>
        <pt x="191" y="-44" on="0"/>
        <pt x="158" y="-44" on="1"/>
        <pt x="105" y="-44" on="0"/>
        <pt x="13" y="32" on="0"/>
        <pt x="13" y="83" on="1"/>
        <pt x="13" y="118" on="0"/>
        <pt x="73" y="179" on="0"/>
        <pt x="106" y="179" on="1"/>
        <pt x="135" y="179" on="0"/>
        <pt x="174" y="158" on="1"/>
        <pt x="185" y="151" on="0"/>
        <pt x="235" y="120" on="0"/>
        <pt x="239" y="118" on="1"/>
        <pt x="256" y="166" on="0"/>
        <pt x="256" y="246" on="0"/>
        <pt x="243" y="352" on="1"/>
        <pt x="207" y="360" on="0"/>
        <pt x="184" y="386" on="1"/>
        <pt x="176" y="395" on="0"/>
        <pt x="153" y="431" on="0"/>
        <pt x="145" y="441" on="0"/>
        <pt x="150" y="450" on="0"/>
        <pt x="161" y="451" on="0"/>
        <pt x="165" y="447" on="1"/>
        <pt x="164" y="447" on="1"/>
        <pt x="178" y="428" on="0"/>
        <pt x="186" y="418" on="1"/>
        <pt x="210" y="390" on="0"/>
      </contour>
      <contour>
        <pt x="410" y="590" on="1"/>
        <pt x="410" y="660" on="0"/>
        <pt x="376" y="689" on="1"/>
        <pt x="359" y="703" on="0"/>
        <pt x="340" y="703" on="0"/>
        <pt x="326" y="684" on="1"/>
        <pt x="281" y="625" on="0"/>
        <pt x="272" y="558" on="1"/>
        <pt x="269" y="532" on="0"/>
        <pt x="269" y="447" on="0"/>
        <pt x="278" y="377" on="1"/>
        <pt x="324" y="384" on="0"/>
        <pt x="352" y="414" on="1"/>
        <pt x="410" y="478" on="0"/>
      </contour>
      <contour>
        <pt x="78" y="150" on="0"/>
        <pt x="40" y="113" on="0"/>
        <pt x="40" y="44" on="0"/>
        <pt x="115" y="-6" on="0"/>
        <pt x="158" y="-6" on="1"/>
        <pt x="175" y="-6" on="0"/>
        <pt x="195" y="34" on="1"/>
        <pt x="210" y="55" on="0"/>
        <pt x="221" y="77" on="1"/>
        <pt x="220" y="77" on="1"/>
        <pt x="212" y="82" on="0"/>
        <pt x="188" y="102" on="1"/>
        <pt x="129" y="151" on="0"/>
        <pt x="109" y="151" on="1"/>
      </contour>
    </TTGlyph>
    <TTGlyph name="Lslash" xMin="13" yMin="-58" xMax="625" yMax="757">
      <contour>
        <pt x="267" y="274" on="1"/>
        <pt x="295" y="271" on="1"/>
        <pt x="348" y="271" on="0"/>
        <pt x="372" y="286" on="0"/>
        <pt x="380" y="269" on="0"/>
        <pt x="372" y="265" on="1"/>
        <pt x="332" y="238" on="0"/>
        <pt x="294" y="238" on="1"/>
        <pt x="267" y="240" on="1"/>
        <pt x="240" y="238" on="1"/>
        <pt x="203" y="238" on="0"/>
        <pt x="175" y="246" on="0"/>
        <pt x="142" y="246" on="0"/>
        <pt x="112" y="224" on="0"/>
        <pt x="95" y="246" on="0"/>
        <pt x="111" y="258" on="0"/>
        <pt x="126" y="272" on="0"/>
        <pt x="130" y="276" on="1"/>
        <pt x="144" y="286" on="0"/>
        <pt x="171" y="286" on="0"/>
        <pt x="204" y="274" on="0"/>
        <pt x="211" y="274" on="1"/>
        <pt x="240" y="271" on="1"/>
      </contour>
      <contour>
        <pt x="241" y="380" on="1"/>
        <pt x="231" y="458" on="0"/>
        <pt x="231" y="556" on="0"/>
        <pt x="243" y="613" on="1"/>
        <pt x="262" y="699" on="0"/>
        <pt x="318" y="742" on="1"/>
        <pt x="336" y="757" on="0"/>
        <pt x="380" y="757" on="0"/>
        <pt x="450" y="699" on="0"/>
        <pt x="450" y="590" on="1"/>
        <pt x="450" y="469" on="0"/>
        <pt x="374" y="395" on="1"/>
        <pt x="334" y="356" on="0"/>
        <pt x="280" y="351" on="1"/>
        <pt x="282" y="336" on="0"/>
        <pt x="290" y="290" on="0"/>
        <pt x="291" y="280" on="1"/>
        <pt x="295" y="238" on="0"/>
        <pt x="295" y="211" on="1"/>
        <pt x="295" y="153" on="0"/>
        <pt x="271" y="95" on="1"/>
        <pt x="287" y="83" on="0"/>
        <pt x="342" y="36" on="0"/>
        <pt x="349" y="31" on="1"/>
        <pt x="401" y="-9" on="0"/>
        <pt x="506" y="-9" on="0"/>
        <pt x="578" y="78" on="0"/>
        <pt x="577" y="128" on="1"/>
        <pt x="577" y="245" on="0"/>
        <pt x="526" y="272" on="1"/>
        <pt x="509" y="282" on="0"/>
        <pt x="439" y="282" on="0"/>
        <pt x="402" y="218" on="0"/>
        <pt x="402" y="181" on="1"/>
        <pt x="402" y="179" on="0"/>
        <pt x="402" y="177" on="1"/>
        <pt x="402" y="156" on="0"/>
        <pt x="432" y="115" on="0"/>
        <pt x="447" y="115" on="1"/>
        <pt x="473" y="116" on="0"/>
        <pt x="501" y="146" on="0"/>
        <pt x="502" y="178" on="0"/>
        <pt x="513" y="184" on="0"/>
        <pt x="524" y="178" on="0"/>
        <pt x="524" y="171" on="1"/>
        <pt x="523" y="134" on="0"/>
        <pt x="486" y="87" on="0"/>
        <pt x="417" y="86" on="0"/>
        <pt x="373" y="148" on="0"/>
        <pt x="373" y="178" on="1"/>
        <pt x="373" y="180" on="0"/>
        <pt x="373" y="181" on="1"/>
        <pt x="373" y="226" on="0"/>
        <pt x="429" y="309" on="0"/>
        <pt x="517" y="309" on="0"/>
        <pt x="540" y="296" on="1"/>
        <pt x="576" y="276" on="0"/>
        <pt x="624" y="175" on="0"/>
        <pt x="624" y="72" on="0"/>
        <pt x="590" y="19" on="1"/>
        <pt x="540" y="-58" on="0"/>
        <pt x="455" y="-58" on="1"/>
        <pt x="421" y="-58" on="0"/>
        <pt x="358" y="-34" on="0"/>
        <pt x="324" y="-8" on="0"/>
        <pt x="265" y="44" on="0"/>
        <pt x="251" y="55" on="1"/>
        <pt x="245" y="44" on="0"/>
        <pt x="220" y="3" on="0"/>
        <pt x="215" y="-6" on="1"/>
        <pt x="191" y="-44" on="0"/>
        <pt x="158" y="-44" on="1"/>
        <pt x="105" y="-44" on="0"/>
        <pt x="13" y="32" on="0"/>
        <pt x="13" y="83" on="1"/>
        <pt x="13" y="118" on="0"/>
        <pt x="73" y="179" on="0"/>
        <pt x="106" y="179" on="1"/>
        <pt x="135" y="179" on="0"/>
        <pt x="174" y="158" on="1"/>
        <pt x="185" y="151" on="0"/>
        <pt x="235" y="120" on="0"/>
        <pt x="239" y="118" on="1"/>
        <pt x="256" y="166" on="0"/>
        <pt x="256" y="246" on="0"/>
        <pt x="243" y="352" on="1"/>
        <pt x="207" y="360" on="0"/>
        <pt x="184" y="386" on="1"/>
        <pt x="176" y="395" on="0"/>
        <pt x="153" y="431" on="0"/>
        <pt x="145" y="441" on="0"/>
        <pt x="150" y="450" on="0"/>
        <pt x="161" y="451" on="0"/>
        <pt x="165" y="447" on="1"/>
        <pt x="164" y="447" on="1"/>
        <pt x="178" y="428" on="0"/>
        <pt x="186" y="418" on="1"/>
        <pt x="210" y="390" on="0"/>
      </contour>
      <contour>
        <pt x="410" y="590" on="1"/>
        <pt x="410" y="660" on="0"/>
        <pt x="376" y="689" on="1"/>
        <pt x="359" y="703" on="0"/>
        <pt x="340" y="703" on="0"/>
        <pt x="326" y="684" on="1"/>
        <pt x="281" y="625" on="0"/>
        <pt x="272" y="558" on="1"/>
        <pt x="269" y="532" on="0"/>
        <pt x="269" y="447" on="0"/>
        <pt x="278" y="377" on="1"/>
        <pt x="324" y="384" on="0"/>
        <pt x="352" y="414" on="1"/>
        <pt x="410" y="478" on="0"/>
      </contour>
      <contour>
        <pt x="78" y="150" on="0"/>
        <pt x="40" y="113" on="0"/>
        <pt x="40" y="44" on="0"/>
        <pt x="115" y="-6" on="0"/>
        <pt x="158" y="-6" on="1"/>
        <pt x="175" y="-6" on="0"/>
        <pt x="195" y="34" on="1"/>
        <pt x="210" y="55" on="0"/>
        <pt x="221" y="77" on="1"/>
        <pt x="220" y="77" on="1"/>
        <pt x="212" y="82" on="0"/>
        <pt x="188" y="102" on="1"/>
        <pt x="129" y="151" on="0"/>
        <pt x="109" y="151" on="1"/>
      </contour>
    </TTGlyph>
    <TTGlyph name="M" xMin="3" yMin="-102" xMax="795" yMax="704">
      <contour>
        <pt x="531" y="317" on="1"/>
        <pt x="523" y="373" on="0"/>
        <pt x="523" y="436" on="0"/>
        <pt x="532" y="511" on="0"/>
        <pt x="563" y="630" on="0"/>
        <pt x="572" y="650" on="1"/>
        <pt x="591" y="693" on="0"/>
        <pt x="628" y="693" on="1"/>
        <pt x="668" y="692" on="0"/>
        <pt x="668" y="627" on="1"/>
        <pt x="668" y="483" on="0"/>
        <pt x="585" y="320" on="1"/>
        <pt x="598" y="265" on="0"/>
        <pt x="607" y="184" on="0"/>
        <pt x="609" y="168" on="1"/>
        <pt x="615" y="122" on="0"/>
        <pt x="625" y="91" on="1"/>
        <pt x="653" y="6" on="0"/>
        <pt x="685" y="-12" on="1"/>
        <pt x="692" y="-17" on="0"/>
        <pt x="707" y="-17" on="0"/>
        <pt x="750" y="8" on="0"/>
        <pt x="757" y="16" on="1"/>
        <pt x="774" y="33" on="0"/>
        <pt x="776" y="94" on="0"/>
        <pt x="767" y="118" on="0"/>
        <pt x="734" y="158" on="0"/>
        <pt x="729" y="157" on="1"/>
        <pt x="704" y="157" on="0"/>
        <pt x="700" y="133" on="1"/>
        <pt x="699" y="123" on="0"/>
        <pt x="680" y="128" on="0"/>
        <pt x="683" y="156" on="0"/>
        <pt x="708" y="184" on="0"/>
        <pt x="726" y="184" on="1"/>
        <pt x="728" y="184" on="0"/>
        <pt x="729" y="184" on="1"/>
        <pt x="753" y="184" on="0"/>
        <pt x="793" y="118" on="0"/>
        <pt x="795" y="67" on="1"/>
        <pt x="795" y="27" on="0"/>
        <pt x="758" y="-11" on="0"/>
        <pt x="710" y="-45" on="0"/>
        <pt x="696" y="-45" on="1"/>
        <pt x="662" y="-45" on="0"/>
        <pt x="595" y="42" on="0"/>
        <pt x="584" y="76" on="1"/>
        <pt x="550" y="178" on="0"/>
        <pt x="542" y="240" on="1"/>
        <pt x="510" y="182" on="0"/>
        <pt x="442" y="82" on="0"/>
        <pt x="431" y="54" on="1"/>
        <pt x="431" y="49" on="0"/>
        <pt x="431" y="44" on="1"/>
        <pt x="431" y="-9" on="0"/>
        <pt x="411" y="-30" on="1"/>
        <pt x="404" y="-38" on="0"/>
        <pt x="375" y="-30" on="0"/>
        <pt x="374" y="-20" on="1"/>
        <pt x="372" y="-8" on="0"/>
        <pt x="372" y="37" on="0"/>
        <pt x="389" y="75" on="1"/>
        <pt x="386" y="82" on="0"/>
        <pt x="383" y="109" on="0"/>
        <pt x="364" y="168" on="0"/>
        <pt x="352" y="225" on="0"/>
        <pt x="325" y="306" on="1"/>
        <pt x="311" y="230" on="0"/>
        <pt x="255" y="52" on="0"/>
        <pt x="208" y="-34" on="0"/>
        <pt x="139" y="-102" on="0"/>
        <pt x="115" y="-102" on="1"/>
        <pt x="107" y="-102" on="0"/>
        <pt x="101" y="-99" on="1"/>
        <pt x="101" y="-100" on="1"/>
        <pt x="3" y="-99" on="0"/>
        <pt x="3" y="30" on="1"/>
        <pt x="3" y="135" on="0"/>
        <pt x="75" y="207" on="1"/>
        <pt x="90" y="222" on="0"/>
        <pt x="137" y="222" on="0"/>
        <pt x="171" y="207" on="0"/>
        <pt x="196" y="166" on="0"/>
        <pt x="196" y="120" on="0"/>
        <pt x="153" y="65" on="0"/>
        <pt x="125" y="65" on="1"/>
        <pt x="109" y="65" on="0"/>
        <pt x="83" y="82" on="0"/>
        <pt x="83" y="117" on="0"/>
        <pt x="109" y="144" on="0"/>
        <pt x="131" y="147" on="0"/>
        <pt x="137" y="138" on="0"/>
        <pt x="134" y="128" on="0"/>
        <pt x="118" y="126" on="0"/>
        <pt x="102" y="109" on="0"/>
        <pt x="102" y="101" on="1"/>
        <pt x="102" y="84" on="0"/>
        <pt x="143" y="84" on="0"/>
        <pt x="177" y="126" on="0"/>
        <pt x="177" y="168" on="0"/>
        <pt x="135" y="195" on="0"/>
        <pt x="102" y="195" on="0"/>
        <pt x="87" y="180" on="1"/>
        <pt x="34" y="121" on="0"/>
        <pt x="34" y="-67" on="0"/>
        <pt x="103" y="-67" on="1"/>
        <pt x="125" y="-67" on="0"/>
        <pt x="145" y="-50" on="0"/>
        <pt x="155" y="-42" on="0"/>
        <pt x="169" y="-20" on="0"/>
        <pt x="174" y="-13" on="0"/>
        <pt x="188" y="15" on="0"/>
        <pt x="189" y="16" on="1"/>
        <pt x="228" y="85" on="0"/>
        <pt x="268" y="319" on="1"/>
        <pt x="271" y="337" on="0"/>
        <pt x="286" y="407" on="1"/>
        <pt x="280" y="419" on="0"/>
        <pt x="244" y="489" on="0"/>
        <pt x="236" y="507" on="1"/>
        <pt x="211" y="559" on="0"/>
        <pt x="211" y="610" on="1"/>
        <pt x="211" y="632" on="0"/>
        <pt x="248" y="704" on="0"/>
        <pt x="268" y="704" on="1"/>
        <pt x="297" y="704" on="0"/>
        <pt x="318" y="672" on="1"/>
        <pt x="355" y="616" on="0"/>
        <pt x="355" y="527" on="1"/>
        <pt x="355" y="469" on="0"/>
        <pt x="342" y="389" on="1"/>
        <pt x="348" y="372" on="0"/>
        <pt x="374" y="309" on="0"/>
        <pt x="382" y="290" on="1"/>
        <pt x="400" y="241" on="0"/>
        <pt x="411" y="187" on="0"/>
        <pt x="420" y="151" on="0"/>
        <pt x="421" y="141" on="1"/>
        <pt x="431" y="154" on="0"/>
        <pt x="433" y="160" on="1"/>
        <pt x="453" y="186" on="0"/>
        <pt x="466" y="210" on="1"/>
        <pt x="489" y="250" on="0"/>
      </contour>
      <contour>
        <pt x="628" y="655" on="1"/>
        <pt x="629" y="661" on="1"/>
        <pt x="605" y="661" on="0"/>
        <pt x="592" y="604" on="1"/>
        <pt x="581" y="552" on="0"/>
        <pt x="574" y="486" on="0"/>
        <pt x="570" y="465" on="0"/>
        <pt x="570" y="422" on="0"/>
        <pt x="572" y="398" on="1"/>
        <pt x="573" y="398" on="1"/>
        <pt x="617" y="493" on="0"/>
        <pt x="626" y="600" on="1"/>
        <pt x="628" y="628" on="1"/>
      </contour>
      <contour>
        <pt x="258" y="664" on="0"/>
        <pt x="241" y="623" on="0"/>
        <pt x="241" y="610" on="1"/>
        <pt x="241" y="560" on="0"/>
        <pt x="296" y="474" on="1"/>
        <pt x="298" y="502" on="0"/>
        <pt x="298" y="536" on="0"/>
        <pt x="298" y="546" on="0"/>
        <pt x="297" y="565" on="0"/>
        <pt x="296" y="584" on="0"/>
        <pt x="294" y="611" on="0"/>
        <pt x="290" y="633" on="0"/>
        <pt x="287" y="643" on="1"/>
        <pt x="281" y="664" on="0"/>
      </contour>
    </TTGlyph>
    <TTGlyph name="N" xMin="0" yMin="-88" xMax="693" yMax="711">
      <contour>
        <pt x="216" y="366" on="1"/>
        <pt x="219" y="463" on="1"/>
        <pt x="219" y="554" on="0"/>
        <pt x="208" y="607" on="0"/>
        <pt x="200" y="632" on="1"/>
        <pt x="184" y="683" on="0"/>
        <pt x="99" y="683" on="0"/>
        <pt x="34" y="581" on="0"/>
        <pt x="34" y="534" on="1"/>
        <pt x="34" y="442" on="0"/>
        <pt x="66" y="399" on="1"/>
        <pt x="78" y="384" on="0"/>
        <pt x="127" y="384" on="0"/>
        <pt x="165" y="421" on="0"/>
        <pt x="165" y="468" on="0"/>
        <pt x="143" y="485" on="0"/>
        <pt x="127" y="485" on="0"/>
        <pt x="114" y="479" on="0"/>
        <pt x="106" y="486" on="0"/>
        <pt x="106" y="492" on="1"/>
        <pt x="108" y="505" on="0"/>
        <pt x="150" y="505" on="0"/>
        <pt x="184" y="477" on="0"/>
        <pt x="184" y="412" on="0"/>
        <pt x="136" y="362" on="0"/>
        <pt x="59" y="362" on="0"/>
        <pt x="21" y="415" on="0"/>
        <pt x="1" y="472" on="0"/>
        <pt x="1" y="525" on="0"/>
        <pt x="1" y="534" on="1"/>
        <pt x="5" y="604" on="0"/>
        <pt x="88" y="711" on="0"/>
        <pt x="143" y="711" on="1"/>
        <pt x="175" y="711" on="0"/>
        <pt x="224" y="663" on="0"/>
        <pt x="238" y="627" on="1"/>
        <pt x="263" y="560" on="0"/>
        <pt x="267" y="497" on="1"/>
        <pt x="267" y="490" on="0"/>
        <pt x="270" y="462" on="0"/>
        <pt x="270" y="460" on="1"/>
        <pt x="286" y="486" on="0"/>
        <pt x="360" y="593" on="0"/>
        <pt x="404" y="647" on="0"/>
        <pt x="487" y="701" on="0"/>
        <pt x="571" y="701" on="0"/>
        <pt x="614" y="623" on="0"/>
        <pt x="614" y="553" on="0"/>
        <pt x="604" y="503" on="0"/>
        <pt x="593" y="471" on="0"/>
        <pt x="582" y="443" on="1"/>
        <pt x="527" y="304" on="0"/>
        <pt x="525" y="141" on="1"/>
        <pt x="525" y="-54" on="0"/>
        <pt x="573" y="-54" on="1"/>
        <pt x="597" y="-54" on="0"/>
        <pt x="634" y="-22" on="0"/>
        <pt x="644" y="3" on="1"/>
        <pt x="663" y="50" on="0"/>
        <pt x="663" y="103" on="1"/>
        <pt x="663" y="140" on="1"/>
        <pt x="663" y="168" on="0"/>
        <pt x="652" y="186" on="0"/>
        <pt x="648" y="190" on="1"/>
        <pt x="641" y="200" on="0"/>
        <pt x="628" y="200" on="1"/>
        <pt x="609" y="200" on="0"/>
        <pt x="594" y="157" on="1"/>
        <pt x="591" y="150" on="0"/>
        <pt x="589" y="136" on="1"/>
        <pt x="589" y="122" on="0"/>
        <pt x="602" y="88" on="0"/>
        <pt x="613" y="88" on="1"/>
        <pt x="628" y="109" on="0"/>
        <pt x="635" y="78" on="0"/>
        <pt x="622" y="72" on="1"/>
        <pt x="618" y="71" on="0"/>
        <pt x="613" y="71" on="1"/>
        <pt x="596" y="71" on="0"/>
        <pt x="566" y="119" on="0"/>
        <pt x="566" y="155" on="0"/>
        <pt x="582" y="189" on="1"/>
        <pt x="601" y="232" on="0"/>
        <pt x="654" y="232" on="0"/>
        <pt x="670" y="206" on="1"/>
        <pt x="693" y="168" on="0"/>
        <pt x="692" y="63" on="0"/>
        <pt x="669" y="-20" on="0"/>
        <pt x="612" y="-88" on="0"/>
        <pt x="544" y="-88" on="0"/>
        <pt x="504" y="-34" on="0"/>
        <pt x="496" y="9" on="1"/>
        <pt x="482" y="84" on="0"/>
        <pt x="482" y="141" on="1"/>
        <pt x="482" y="258" on="0"/>
        <pt x="536" y="409" on="1"/>
        <pt x="542" y="426" on="0"/>
        <pt x="558" y="460" on="1"/>
        <pt x="590" y="530" on="0"/>
        <pt x="590" y="577" on="1"/>
        <pt x="590" y="599" on="0"/>
        <pt x="571" y="657" on="0"/>
        <pt x="543" y="671" on="0"/>
        <pt x="502" y="671" on="0"/>
        <pt x="450" y="635" on="0"/>
        <pt x="421" y="598" on="0"/>
        <pt x="375" y="529" on="0"/>
        <pt x="317" y="445" on="0"/>
        <pt x="274" y="372" on="1"/>
        <pt x="274" y="357" on="1"/>
        <pt x="275" y="237" on="1"/>
        <pt x="275" y="14" on="0"/>
        <pt x="206" y="-22" on="1"/>
        <pt x="189" y="-31" on="0"/>
        <pt x="163" y="-31" on="0"/>
        <pt x="134" y="-2" on="0"/>
        <pt x="126" y="54" on="0"/>
        <pt x="125" y="57" on="1"/>
        <pt x="123" y="109" on="1"/>
        <pt x="123" y="136" on="0"/>
        <pt x="142" y="189" on="0"/>
        <pt x="162" y="239" on="0"/>
        <pt x="192" y="318" on="0"/>
        <pt x="217" y="366" on="1"/>
      </contour>
      <contour>
        <pt x="180" y="151" on="0"/>
        <pt x="171" y="117" on="0"/>
        <pt x="170" y="84" on="0"/>
        <pt x="170" y="54" on="0"/>
        <pt x="180" y="31" on="1"/>
        <pt x="181" y="31" on="1"/>
        <pt x="214" y="63" on="0"/>
        <pt x="216" y="248" on="1"/>
        <pt x="213" y="236" on="0"/>
      </contour>
    </TTGlyph>
    <TTGlyph name="Ntilde" xMin="0" yMin="-111" xMax="694" yMax="855">
      <contour>
        <pt x="663" y="119" on="1"/>
        <pt x="663" y="178" on="0"/>
        <pt x="629" y="178" on="1"/>
        <pt x="612" y="178" on="0"/>
        <pt x="594" y="134" on="1"/>
        <pt x="590" y="126" on="0"/>
        <pt x="590" y="101" on="0"/>
        <pt x="602" y="67" on="0"/>
        <pt x="613" y="66" on="1"/>
        <pt x="628" y="86" on="0"/>
        <pt x="636" y="57" on="0"/>
        <pt x="623" y="50" on="1"/>
        <pt x="613" y="48" on="1"/>
        <pt x="596" y="48" on="0"/>
        <pt x="566" y="96" on="0"/>
        <pt x="566" y="133" on="0"/>
        <pt x="582" y="167" on="1"/>
        <pt x="601" y="209" on="0"/>
        <pt x="629" y="209" on="1"/>
        <pt x="630" y="209" on="0"/>
        <pt x="631" y="209" on="1"/>
        <pt x="655" y="209" on="0"/>
        <pt x="670" y="184" on="1"/>
        <pt x="694" y="144" on="0"/>
        <pt x="694" y="41" on="0"/>
        <pt x="671" y="-43" on="0"/>
        <pt x="613" y="-111" on="0"/>
        <pt x="544" y="-111" on="0"/>
        <pt x="496" y="-58" on="0"/>
        <pt x="483" y="-20" on="1"/>
        <pt x="457" y="54" on="0"/>
        <pt x="457" y="141" on="0"/>
        <pt x="475" y="222" on="0"/>
        <pt x="494" y="276" on="0"/>
        <pt x="530" y="369" on="0"/>
        <pt x="542" y="403" on="0"/>
        <pt x="558" y="438" on="1"/>
        <pt x="590" y="508" on="0"/>
        <pt x="590" y="556" on="1"/>
        <pt x="590" y="578" on="0"/>
        <pt x="571" y="635" on="0"/>
        <pt x="546" y="647" on="0"/>
        <pt x="529" y="650" on="1"/>
        <pt x="485" y="650" on="0"/>
        <pt x="450" y="610" on="1"/>
        <pt x="422" y="580" on="0"/>
        <pt x="376" y="506" on="0"/>
        <pt x="314" y="418" on="0"/>
        <pt x="276" y="349" on="1"/>
        <pt x="276" y="335" on="1"/>
        <pt x="277" y="240" on="1"/>
        <pt x="277" y="-5" on="0"/>
        <pt x="207" y="-45" on="1"/>
        <pt x="190" y="-55" on="0"/>
        <pt x="177" y="-55" on="1"/>
        <pt x="135" y="-55" on="0"/>
        <pt x="127" y="36" on="1"/>
        <pt x="126" y="69" on="0"/>
        <pt x="124" y="87" on="0"/>
        <pt x="124" y="104" on="0"/>
        <pt x="135" y="145" on="0"/>
        <pt x="143" y="167" on="0"/>
        <pt x="163" y="217" on="0"/>
        <pt x="194" y="299" on="0"/>
        <pt x="217" y="344" on="1"/>
        <pt x="216" y="344" on="1"/>
        <pt x="219" y="441" on="1"/>
        <pt x="219" y="532" on="0"/>
        <pt x="208" y="585" on="0"/>
        <pt x="200" y="610" on="1"/>
        <pt x="184" y="661" on="0"/>
        <pt x="99" y="661" on="0"/>
        <pt x="34" y="559" on="0"/>
        <pt x="35" y="512" on="1"/>
        <pt x="35" y="421" on="0"/>
        <pt x="67" y="376" on="1"/>
        <pt x="78" y="362" on="0"/>
        <pt x="127" y="362" on="0"/>
        <pt x="165" y="399" on="0"/>
        <pt x="166" y="445" on="0"/>
        <pt x="144" y="463" on="0"/>
        <pt x="127" y="463" on="0"/>
        <pt x="114" y="458" on="0"/>
        <pt x="106" y="466" on="0"/>
        <pt x="107" y="476" on="0"/>
        <pt x="125" y="483" on="0"/>
        <pt x="151" y="483" on="0"/>
        <pt x="184" y="454" on="0"/>
        <pt x="183" y="390" on="0"/>
        <pt x="136" y="339" on="0"/>
        <pt x="61" y="339" on="0"/>
        <pt x="30" y="383" on="0"/>
        <pt x="22" y="398" on="1"/>
        <pt x="1" y="436" on="0"/>
        <pt x="1" y="502" on="1"/>
        <pt x="1" y="578" on="0"/>
        <pt x="88" y="690" on="0"/>
        <pt x="143" y="690" on="1"/>
        <pt x="175" y="690" on="0"/>
        <pt x="224" y="643" on="0"/>
        <pt x="238" y="606" on="1"/>
        <pt x="270" y="523" on="0"/>
        <pt x="270" y="438" on="1"/>
        <pt x="327" y="529" on="0"/>
        <pt x="385" y="602" on="0"/>
        <pt x="411" y="628" on="1"/>
        <pt x="464" y="679" on="0"/>
        <pt x="529" y="679" on="1"/>
        <pt x="571" y="679" on="0"/>
        <pt x="615" y="601" on="0"/>
        <pt x="615" y="531" on="0"/>
        <pt x="605" y="480" on="0"/>
        <pt x="594" y="449" on="0"/>
        <pt x="571" y="391" on="0"/>
        <pt x="566" y="376" on="1"/>
        <pt x="526" y="262" on="0"/>
        <pt x="526" y="119" on="1"/>
        <pt x="526" y="-75" on="0"/>
        <pt x="573" y="-75" on="1"/>
        <pt x="604" y="-75" on="0"/>
        <pt x="626" y="-46" on="1"/>
        <pt x="663" y="1" on="0"/>
        <pt x="663" y="82" on="1"/>
      </contour>
      <contour>
        <pt x="533" y="855" on="1"/>
        <pt x="549" y="855" on="0"/>
        <pt x="549" y="809" on="0"/>
        <pt x="509" y="771" on="0"/>
        <pt x="479" y="771" on="1"/>
        <pt x="453" y="771" on="0"/>
        <pt x="432" y="780" on="1"/>
        <pt x="360" y="810" on="0"/>
        <pt x="310" y="810" on="0"/>
        <pt x="308" y="794" on="1"/>
        <pt x="305" y="770" on="0"/>
        <pt x="292" y="770" on="1"/>
        <pt x="280" y="774" on="0"/>
        <pt x="278" y="787" on="1"/>
        <pt x="278" y="801" on="0"/>
        <pt x="316" y="849" on="0"/>
        <pt x="334" y="851" on="0"/>
        <pt x="341" y="851" on="1"/>
        <pt x="375" y="851" on="0"/>
        <pt x="458" y="815" on="0"/>
        <pt x="497" y="815" on="0"/>
        <pt x="513" y="817" on="0"/>
        <pt x="529" y="832" on="0"/>
        <pt x="528" y="843" on="1"/>
        <pt x="527" y="855" on="0"/>
      </contour>
      <contour>
        <pt x="169" y="93" on="0"/>
        <pt x="169" y="37" on="0"/>
        <pt x="180" y="9" on="1"/>
        <pt x="181" y="9" on="1"/>
        <pt x="214" y="41" on="0"/>
        <pt x="216" y="225" on="1"/>
        <pt x="184" y="144" on="0"/>
      </contour>
    </TTGlyph>
    <TTGlyph name="O" xMin="12" yMin="-12" xMax="609" yMax="680">
      <contour>
        <pt x="246" y="387" on="1"/>
        <pt x="246" y="335" on="0"/>
        <pt x="306" y="335" on="1"/>
        <pt x="336" y="335" on="0"/>
        <pt x="393" y="385" on="0"/>
        <pt x="393" y="414" on="1"/>
        <pt x="393" y="424" on="0"/>
        <pt x="374" y="445" on="0"/>
        <pt x="352" y="445" on="0"/>
        <pt x="308" y="412" on="0"/>
        <pt x="308" y="402" on="1"/>
        <pt x="308" y="399" on="0"/>
        <pt x="310" y="396" on="1"/>
        <pt x="321" y="377" on="0"/>
        <pt x="296" y="376" on="0"/>
        <pt x="288" y="401" on="0"/>
        <pt x="298" y="430" on="0"/>
        <pt x="347" y="474" on="0"/>
        <pt x="364" y="474" on="1"/>
        <pt x="365" y="474" on="0"/>
        <pt x="366" y="474" on="1"/>
        <pt x="404" y="454" on="1"/>
        <pt x="424" y="434" on="0"/>
        <pt x="424" y="414" on="1"/>
        <pt x="424" y="373" on="0"/>
        <pt x="346" y="301" on="0"/>
        <pt x="266" y="301" on="0"/>
        <pt x="214" y="344" on="0"/>
        <pt x="214" y="383" on="1"/>
        <pt x="214" y="480" on="0"/>
        <pt x="312" y="537" on="1"/>
        <pt x="349" y="559" on="0"/>
        <pt x="381" y="559" on="1"/>
        <pt x="439" y="559" on="0"/>
        <pt x="536" y="510" on="0"/>
        <pt x="562" y="464" on="1"/>
        <pt x="609" y="379" on="0"/>
        <pt x="609" y="318" on="1"/>
        <pt x="609" y="196" on="0"/>
        <pt x="543" y="103" on="1"/>
        <pt x="511" y="56" on="0"/>
        <pt x="377" y="-12" on="0"/>
        <pt x="318" y="-12" on="1"/>
        <pt x="181" y="-12" on="0"/>
        <pt x="12" y="176" on="0"/>
        <pt x="12" y="309" on="1"/>
        <pt x="12" y="375" on="0"/>
        <pt x="90" y="554" on="0"/>
        <pt x="137" y="596" on="1"/>
        <pt x="165" y="622" on="0"/>
        <pt x="242" y="661" on="1"/>
        <pt x="280" y="680" on="0"/>
        <pt x="323" y="680" on="1"/>
        <pt x="437" y="680" on="0"/>
        <pt x="490" y="614" on="1"/>
        <pt x="507" y="592" on="0"/>
        <pt x="520" y="581" on="0"/>
        <pt x="516" y="569" on="0"/>
        <pt x="506" y="566" on="0"/>
        <pt x="501" y="570" on="1"/>
        <pt x="500" y="570" on="1"/>
        <pt x="414" y="646" on="0"/>
        <pt x="323" y="646" on="1"/>
        <pt x="278" y="646" on="0"/>
        <pt x="254" y="634" on="1"/>
        <pt x="170" y="590" on="0"/>
        <pt x="103" y="487" on="0"/>
        <pt x="72" y="379" on="1"/>
        <pt x="62" y="346" on="0"/>
        <pt x="62" y="306" on="0"/>
        <pt x="62" y="274" on="0"/>
        <pt x="76" y="227" on="1"/>
        <pt x="103" y="142" on="0"/>
        <pt x="227" y="39" on="0"/>
        <pt x="317" y="38" on="1"/>
        <pt x="367" y="38" on="0"/>
        <pt x="480" y="90" on="0"/>
        <pt x="506" y="129" on="1"/>
        <pt x="567" y="215" on="0"/>
        <pt x="567" y="319" on="1"/>
        <pt x="567" y="378" on="0"/>
        <pt x="528" y="445" on="1"/>
        <pt x="506" y="483" on="0"/>
        <pt x="426" y="525" on="0"/>
        <pt x="354" y="525" on="0"/>
        <pt x="345" y="520" on="1"/>
        <pt x="295" y="492" on="0"/>
        <pt x="246" y="434" on="0"/>
      </contour>
    </TTGlyph>
    <TTGlyph name="OE" xMin="12" yMin="-67" xMax="1000" yMax="706">
      <contour>
        <pt x="608" y="342" on="1"/>
        <pt x="618" y="350" on="0"/>
        <pt x="634" y="366" on="1"/>
        <pt x="607" y="407" on="0"/>
        <pt x="607" y="468" on="1"/>
        <pt x="607" y="555" on="0"/>
        <pt x="730" y="706" on="0"/>
        <pt x="815" y="706" on="1"/>
        <pt x="879" y="706" on="0"/>
        <pt x="952" y="628" on="0"/>
        <pt x="952" y="564" on="1"/>
        <pt x="952" y="529" on="0"/>
        <pt x="892" y="448" on="0"/>
        <pt x="858" y="448" on="1"/>
        <pt x="835" y="448" on="0"/>
        <pt x="799" y="484" on="0"/>
        <pt x="799" y="522" on="0"/>
        <pt x="831" y="578" on="0"/>
        <pt x="853" y="578" on="0"/>
        <pt x="853" y="568" on="1"/>
        <pt x="850" y="561" on="1"/>
        <pt x="818" y="529" on="0"/>
        <pt x="818" y="491" on="0"/>
        <pt x="842" y="467" on="0"/>
        <pt x="857" y="467" on="1"/>
        <pt x="882" y="467" on="0"/>
        <pt x="909" y="535" on="0"/>
        <pt x="909" y="602" on="0"/>
        <pt x="854" y="656" on="0"/>
        <pt x="816" y="656" on="1"/>
        <pt x="732" y="656" on="0"/>
        <pt x="673" y="594" on="0"/>
        <pt x="633" y="507" on="0"/>
        <pt x="633" y="422" on="0"/>
        <pt x="654" y="384" on="1"/>
        <pt x="724" y="441" on="0"/>
        <pt x="821" y="441" on="0"/>
        <pt x="821" y="367" on="0"/>
        <pt x="755" y="318" on="0"/>
        <pt x="680" y="318" on="0"/>
        <pt x="651" y="344" on="1"/>
        <pt x="628" y="323" on="0"/>
        <pt x="609" y="299" on="1"/>
        <pt x="604" y="200" on="0"/>
        <pt x="553" y="121" on="1"/>
        <pt x="562" y="70" on="0"/>
        <pt x="619" y="-9" on="0"/>
        <pt x="700" y="-9" on="0"/>
        <pt x="864" y="38" on="0"/>
        <pt x="915" y="84" on="0"/>
        <pt x="952" y="165" on="0"/>
        <pt x="952" y="228" on="0"/>
        <pt x="926" y="277" on="0"/>
        <pt x="902" y="277" on="1"/>
        <pt x="861" y="277" on="0"/>
        <pt x="809" y="205" on="0"/>
        <pt x="809" y="162" on="1"/>
        <pt x="809" y="148" on="0"/>
        <pt x="824" y="120" on="0"/>
        <pt x="855" y="120" on="0"/>
        <pt x="883" y="152" on="0"/>
        <pt x="883" y="183" on="0"/>
        <pt x="859" y="185" on="0"/>
        <pt x="859" y="204" on="0"/>
        <pt x="874" y="204" on="1"/>
        <pt x="900" y="204" on="0"/>
        <pt x="900" y="144" on="0"/>
        <pt x="864" y="101" on="0"/>
        <pt x="813" y="101" on="0"/>
        <pt x="791" y="140" on="0"/>
        <pt x="791" y="167" on="1"/>
        <pt x="791" y="218" on="0"/>
        <pt x="853" y="309" on="0"/>
        <pt x="942" y="309" on="0"/>
        <pt x="1000" y="243" on="0"/>
        <pt x="1000" y="203" on="1"/>
        <pt x="1000" y="136" on="0"/>
        <pt x="917" y="0" on="0"/>
        <pt x="857" y="-25" on="1"/>
        <pt x="828" y="-37" on="0"/>
        <pt x="693" y="-67" on="0"/>
        <pt x="664" y="-67" on="1"/>
        <pt x="552" y="-67" on="0"/>
        <pt x="524" y="83" on="1"/>
        <pt x="442" y="-12" on="0"/>
        <pt x="184" y="-12" on="0"/>
        <pt x="12" y="173" on="0"/>
        <pt x="12" y="309" on="1"/>
        <pt x="12" y="374" on="0"/>
        <pt x="89" y="553" on="0"/>
        <pt x="137" y="596" on="1"/>
        <pt x="168" y="625" on="0"/>
        <pt x="242" y="661" on="1"/>
        <pt x="283" y="680" on="0"/>
        <pt x="323" y="680" on="1"/>
        <pt x="404" y="680" on="0"/>
        <pt x="460" y="643" on="1"/>
        <pt x="473" y="634" on="0"/>
        <pt x="511" y="589" on="0"/>
        <pt x="523" y="577" on="0"/>
        <pt x="512" y="562" on="0"/>
        <pt x="501" y="570" on="1"/>
        <pt x="500" y="570" on="1"/>
        <pt x="414" y="646" on="0"/>
        <pt x="323" y="646" on="1"/>
        <pt x="266" y="646" on="0"/>
        <pt x="166" y="580" on="0"/>
        <pt x="100" y="479" on="0"/>
        <pt x="62" y="362" on="0"/>
        <pt x="62" y="309" on="1"/>
        <pt x="62" y="200" on="0"/>
        <pt x="210" y="38" on="0"/>
        <pt x="317" y="38" on="1"/>
        <pt x="448" y="38" on="0"/>
        <pt x="519" y="149" on="1"/>
        <pt x="519" y="152" on="1"/>
        <pt x="519" y="222" on="0"/>
        <pt x="566" y="289" on="1"/>
        <pt x="567" y="299" on="0"/>
        <pt x="567" y="319" on="1"/>
        <pt x="567" y="402" on="0"/>
        <pt x="461" y="525" on="0"/>
        <pt x="380" y="525" on="1"/>
        <pt x="327" y="525" on="0"/>
        <pt x="246" y="436" on="0"/>
        <pt x="246" y="383" on="1"/>
        <pt x="246" y="359" on="0"/>
        <pt x="281" y="335" on="0"/>
        <pt x="336" y="335" on="0"/>
        <pt x="393" y="385" on="0"/>
        <pt x="393" y="414" on="1"/>
        <pt x="393" y="424" on="0"/>
        <pt x="374" y="445" on="0"/>
        <pt x="352" y="445" on="0"/>
        <pt x="309" y="414" on="0"/>
        <pt x="309" y="403" on="1"/>
        <pt x="315" y="384" on="1"/>
        <pt x="315" y="376" on="0"/>
        <pt x="300" y="376" on="0"/>
        <pt x="290" y="392" on="0"/>
        <pt x="290" y="401" on="1"/>
        <pt x="290" y="421" on="0"/>
        <pt x="344" y="474" on="0"/>
        <pt x="384" y="474" on="0"/>
        <pt x="424" y="435" on="0"/>
        <pt x="424" y="414" on="1"/>
        <pt x="424" y="374" on="0"/>
        <pt x="347" y="301" on="0"/>
        <pt x="266" y="301" on="0"/>
        <pt x="214" y="344" on="0"/>
        <pt x="214" y="383" on="1"/>
        <pt x="214" y="447" on="0"/>
        <pt x="318" y="559" on="0"/>
        <pt x="381" y="559" on="1"/>
        <pt x="473" y="559" on="0"/>
        <pt x="600" y="433" on="0"/>
      </contour>
      <contour>
        <pt x="790" y="403" on="1"/>
        <pt x="790" y="414" on="0"/>
        <pt x="739" y="414" on="0"/>
        <pt x="674" y="364" on="1"/>
        <pt x="694" y="349" on="0"/>
        <pt x="742" y="349" on="0"/>
        <pt x="790" y="380" on="0"/>
      </contour>
    </TTGlyph>
    <TTGlyph name="Oacute" xMin="12" yMin="-12" xMax="609" yMax="805">
      <contour>
        <pt x="440" y="805" on="0"/>
        <pt x="455" y="805" on="0"/>
        <pt x="465" y="803" on="1"/>
        <pt x="479" y="799" on="0"/>
        <pt x="476" y="759" on="0"/>
        <pt x="457" y="750" on="1"/>
        <pt x="431" y="739" on="0"/>
        <pt x="314" y="719" on="0"/>
        <pt x="273" y="704" on="0"/>
        <pt x="266" y="723" on="0"/>
        <pt x="278" y="728" on="1"/>
        <pt x="306" y="738" on="0"/>
        <pt x="414" y="794" on="0"/>
      </contour>
      <contour>
        <pt x="246" y="387" on="1"/>
        <pt x="246" y="335" on="0"/>
        <pt x="306" y="335" on="1"/>
        <pt x="336" y="335" on="0"/>
        <pt x="393" y="385" on="0"/>
        <pt x="393" y="414" on="1"/>
        <pt x="393" y="424" on="0"/>
        <pt x="374" y="445" on="0"/>
        <pt x="352" y="445" on="0"/>
        <pt x="308" y="412" on="0"/>
        <pt x="308" y="402" on="1"/>
        <pt x="308" y="399" on="0"/>
        <pt x="310" y="396" on="1"/>
        <pt x="321" y="377" on="0"/>
        <pt x="296" y="376" on="0"/>
        <pt x="288" y="401" on="0"/>
        <pt x="298" y="430" on="0"/>
        <pt x="347" y="474" on="0"/>
        <pt x="364" y="474" on="1"/>
        <pt x="365" y="474" on="0"/>
        <pt x="366" y="474" on="1"/>
        <pt x="404" y="454" on="1"/>
        <pt x="424" y="434" on="0"/>
        <pt x="424" y="414" on="1"/>
        <pt x="424" y="373" on="0"/>
        <pt x="346" y="301" on="0"/>
        <pt x="266" y="301" on="0"/>
        <pt x="214" y="344" on="0"/>
        <pt x="214" y="383" on="1"/>
        <pt x="214" y="480" on="0"/>
        <pt x="312" y="537" on="1"/>
        <pt x="349" y="559" on="0"/>
        <pt x="381" y="559" on="1"/>
        <pt x="439" y="559" on="0"/>
        <pt x="536" y="510" on="0"/>
        <pt x="562" y="464" on="1"/>
        <pt x="609" y="379" on="0"/>
        <pt x="609" y="318" on="1"/>
        <pt x="609" y="196" on="0"/>
        <pt x="543" y="103" on="1"/>
        <pt x="511" y="56" on="0"/>
        <pt x="377" y="-12" on="0"/>
        <pt x="318" y="-12" on="1"/>
        <pt x="181" y="-12" on="0"/>
        <pt x="12" y="176" on="0"/>
        <pt x="12" y="309" on="1"/>
        <pt x="12" y="375" on="0"/>
        <pt x="90" y="554" on="0"/>
        <pt x="137" y="596" on="1"/>
        <pt x="165" y="622" on="0"/>
        <pt x="242" y="661" on="1"/>
        <pt x="280" y="680" on="0"/>
        <pt x="323" y="680" on="1"/>
        <pt x="437" y="680" on="0"/>
        <pt x="490" y="614" on="1"/>
        <pt x="507" y="592" on="0"/>
        <pt x="520" y="581" on="0"/>
        <pt x="516" y="569" on="0"/>
        <pt x="506" y="566" on="0"/>
        <pt x="501" y="570" on="1"/>
        <pt x="500" y="570" on="1"/>
        <pt x="414" y="646" on="0"/>
        <pt x="323" y="646" on="1"/>
        <pt x="278" y="646" on="0"/>
        <pt x="254" y="634" on="1"/>
        <pt x="170" y="590" on="0"/>
        <pt x="103" y="487" on="0"/>
        <pt x="72" y="379" on="1"/>
        <pt x="62" y="346" on="0"/>
        <pt x="62" y="306" on="0"/>
        <pt x="62" y="274" on="0"/>
        <pt x="76" y="227" on="1"/>
        <pt x="103" y="142" on="0"/>
        <pt x="227" y="39" on="0"/>
        <pt x="317" y="38" on="1"/>
        <pt x="367" y="38" on="0"/>
        <pt x="480" y="90" on="0"/>
        <pt x="506" y="129" on="1"/>
        <pt x="567" y="215" on="0"/>
        <pt x="567" y="319" on="1"/>
        <pt x="567" y="378" on="0"/>
        <pt x="528" y="445" on="1"/>
        <pt x="506" y="483" on="0"/>
        <pt x="426" y="525" on="0"/>
        <pt x="354" y="525" on="0"/>
        <pt x="345" y="520" on="1"/>
        <pt x="295" y="492" on="0"/>
        <pt x="246" y="434" on="0"/>
      </contour>
    </TTGlyph>
    <TTGlyph name="Ocircumflex" xMin="12" yMin="-12" xMax="609" yMax="844">
      <contour>
        <pt x="510" y="720" on="0"/>
        <pt x="510" y="695" on="0"/>
        <pt x="499" y="695" on="1"/>
        <pt x="493" y="695" on="0"/>
        <pt x="468" y="708" on="0"/>
        <pt x="377" y="740" on="0"/>
        <pt x="331" y="770" on="0"/>
        <pt x="304" y="770" on="0"/>
        <pt x="298" y="766" on="1"/>
        <pt x="268" y="746" on="0"/>
        <pt x="180" y="706" on="0"/>
        <pt x="156" y="687" on="0"/>
        <pt x="143" y="687" on="0"/>
        <pt x="140" y="690" on="1"/>
        <pt x="134" y="698" on="0"/>
        <pt x="151" y="715" on="1"/>
        <pt x="190" y="755" on="0"/>
        <pt x="299" y="844" on="0"/>
        <pt x="328" y="844" on="1"/>
        <pt x="331" y="844" on="0"/>
        <pt x="479" y="737" on="0"/>
      </contour>
      <contour>
        <pt x="246" y="387" on="1"/>
        <pt x="246" y="335" on="0"/>
        <pt x="306" y="335" on="1"/>
        <pt x="336" y="335" on="0"/>
        <pt x="393" y="385" on="0"/>
        <pt x="393" y="414" on="1"/>
        <pt x="393" y="424" on="0"/>
        <pt x="374" y="445" on="0"/>
        <pt x="352" y="445" on="0"/>
        <pt x="308" y="412" on="0"/>
        <pt x="308" y="402" on="1"/>
        <pt x="308" y="399" on="0"/>
        <pt x="310" y="396" on="1"/>
        <pt x="321" y="377" on="0"/>
        <pt x="296" y="376" on="0"/>
        <pt x="288" y="401" on="0"/>
        <pt x="298" y="430" on="0"/>
        <pt x="347" y="474" on="0"/>
        <pt x="364" y="474" on="1"/>
        <pt x="365" y="474" on="0"/>
        <pt x="366" y="474" on="1"/>
        <pt x="404" y="454" on="1"/>
        <pt x="424" y="434" on="0"/>
        <pt x="424" y="414" on="1"/>
        <pt x="424" y="373" on="0"/>
        <pt x="346" y="301" on="0"/>
        <pt x="266" y="301" on="0"/>
        <pt x="214" y="344" on="0"/>
        <pt x="214" y="383" on="1"/>
        <pt x="214" y="480" on="0"/>
        <pt x="312" y="537" on="1"/>
        <pt x="349" y="559" on="0"/>
        <pt x="381" y="559" on="1"/>
        <pt x="439" y="559" on="0"/>
        <pt x="536" y="510" on="0"/>
        <pt x="562" y="464" on="1"/>
        <pt x="609" y="379" on="0"/>
        <pt x="609" y="318" on="1"/>
        <pt x="609" y="196" on="0"/>
        <pt x="543" y="103" on="1"/>
        <pt x="511" y="56" on="0"/>
        <pt x="377" y="-12" on="0"/>
        <pt x="318" y="-12" on="1"/>
        <pt x="181" y="-12" on="0"/>
        <pt x="12" y="176" on="0"/>
        <pt x="12" y="309" on="1"/>
        <pt x="12" y="375" on="0"/>
        <pt x="90" y="554" on="0"/>
        <pt x="137" y="596" on="1"/>
        <pt x="165" y="622" on="0"/>
        <pt x="242" y="661" on="1"/>
        <pt x="280" y="680" on="0"/>
        <pt x="323" y="680" on="1"/>
        <pt x="437" y="680" on="0"/>
        <pt x="490" y="614" on="1"/>
        <pt x="507" y="592" on="0"/>
        <pt x="520" y="581" on="0"/>
        <pt x="516" y="569" on="0"/>
        <pt x="506" y="566" on="0"/>
        <pt x="501" y="570" on="1"/>
        <pt x="500" y="570" on="1"/>
        <pt x="414" y="646" on="0"/>
        <pt x="323" y="646" on="1"/>
        <pt x="278" y="646" on="0"/>
        <pt x="254" y="634" on="1"/>
        <pt x="170" y="590" on="0"/>
        <pt x="103" y="487" on="0"/>
        <pt x="72" y="379" on="1"/>
        <pt x="62" y="346" on="0"/>
        <pt x="62" y="306" on="0"/>
        <pt x="62" y="274" on="0"/>
        <pt x="76" y="227" on="1"/>
        <pt x="103" y="142" on="0"/>
        <pt x="227" y="39" on="0"/>
        <pt x="317" y="38" on="1"/>
        <pt x="367" y="38" on="0"/>
        <pt x="480" y="90" on="0"/>
        <pt x="506" y="129" on="1"/>
        <pt x="567" y="215" on="0"/>
        <pt x="567" y="319" on="1"/>
        <pt x="567" y="378" on="0"/>
        <pt x="528" y="445" on="1"/>
        <pt x="506" y="483" on="0"/>
        <pt x="426" y="525" on="0"/>
        <pt x="354" y="525" on="0"/>
        <pt x="345" y="520" on="1"/>
        <pt x="295" y="492" on="0"/>
        <pt x="246" y="434" on="0"/>
      </contour>
    </TTGlyph>
</ttFont>
